<?xml version="1.0" encoding="utf-8"?>
<!-- Generator: Adobe Illustrator 26.2.1, SVG Export Plug-In . SVG Version: 6.00 Build 0)  -->
<svg version="1.1" id="Layer_1" xmlns="http://www.w3.org/2000/svg" xmlns:xlink="http://www.w3.org/1999/xlink" x="0px" y="0px"
	 viewBox="0 0 482.7 245.3" style="enable-background:new 0 0 482.7 245.3;" xml:space="preserve">
<style type="text/css">
	.st0{fill:#FFFFFF;}
</style>
<g>
	<path class="st0" d="M209.9,41c2.8,0.9,6.6,0.5,8.4-2c0.1-0.1,0.2-0.3,0.3-0.4c0.8,1.8,2.2,3.5,4.8,4.7c0.8,0.4,2.4,0.7,4.1,0.7
		c1.9,0,4.1-0.5,5.3-1.9c1.1-1.3,1.7-3.4,0.2-5.8c-0.5-0.8-0.8-1.9-1.1-3.1c-0.4-1.5-0.9-3.2-1.9-4.8s-2.1-3.1-3.4-4.6
		c0.1-0.1,0.2-0.2,0.4-0.3c0.8-0.8,1.6-1.5,2.4-2.3c3.3-3.3,4.4-7.2,3.2-10.9c-1-3.2-5.3-4.4-8.3-4.4c0.1-1.4-0.6-2.8-1.8-3.8
		c-2.3-1.9-8-2.5-10.4,0.2c-2.8,3.1-3.7,6.4-4,9.7c-2.5-0.8-5-0.8-6.1-0.7c-2.1,0.2-4,0.9-5.7,2.1c-1.2-0.8-2.6-1.2-3.6-1.4
		c-4.7-2.1-10.8-1-14.6,2.6c-0.8,0.8-1.6,1.7-2.3,2.6c-0.1-3-0.1-5.9,0.9-8.6c0.7-1.9,0.1-4.4-2.7-5.8c-2.5-1.2-7-1.4-9.1,1
		c-0.1-0.1-0.3-0.3-0.4-0.4c-4.2-3.8-10.5-4-14.8-2.5c-1.8,0.6-3.6,1.7-5,2.9c-1.1,0.5-2,1.3-2.5,2.3c-2.1,4.4-2.2,8.6-2.2,12.7
		c0,0.9,0,1.8-0.1,2.7c-0.2,5.4-1.3,10-3.5,14.6c-0.8,1.7-0.7,3.5,0.3,5c1.5,2.2,4.5,2.9,7,2.9c0.3,0,0.5,0,0.8,0
		c3.7,0,8-1.1,13-3.4c1.6-0.7,3-1.7,4.3-2.7c0.8,0.7,1.9,1.3,3.2,1.7c0.8,0.2,1.8,0.4,2.7,0.4c2.3,0,4.6-0.8,5.8-2.8
		c2.7,1.8,6.5,2.3,10,2c1.3,1.1,3.1,1.8,5.3,2c0.3,0,0.5,0,0.8,0c2.4,0,4.4-0.8,5.6-2.3c1.5,1,3.4,1.6,5.4,1.8
		c0.5,0,0.9,0.1,1.4,0.1c2.1,0,3.9-0.5,5.6-1.5C207.9,40.1,208.8,40.6,209.9,41z M224.2,33.3c-0.1-0.5-0.2-1-0.4-1.5
		c0-0.2-0.1-0.3-0.1-0.5c0.1,0.2,0.2,0.4,0.3,0.5c0.5,0.8,0.8,1.9,1.1,3.1c0.1,0.5,0.3,1,0.4,1.4C224.9,35.9,224.6,35.2,224.2,33.3z
		 M225.1,12.8c0.3,0,0.6,0.1,0.9,0.2c0,0.7-0.3,1.7-1.7,3.1c-0.5,0.5-1,1-1.5,1.4C223.9,16.2,224.8,14.7,225.1,12.8z M213.7,28.3
		c0.7-3.1,1.5-6.4,1.3-9.9v-1.1c-0.1-3.2-0.2-5.5,0.5-7.4c-0.4,2.7-0.1,5.2,0.1,7.2l5.8,2c-0.8,0.8-1.6,1.5-2.4,2.4l0.2,5
		c0.4,0.3,0.8,0.7,1.1,1.1l-5.2,0.9c-0.5,2.4-1.4,4.5-2.4,6.1c-0.1,0-0.2,0-0.3,0C212.7,32.4,213.2,30.4,213.7,28.3z M148.3,9.7
		l-0.6,1.2c0.1-0.3,0.2-0.7,0.4-1L148.3,9.7z M147.7,10c-0.3,0.2-0.5,0.3-0.6,0.4L147.7,10z M149.9,20.8l-2.3,3.3
		c0,3.7-0.4,6.5-1.2,8.9l3.4,3.1c-2.1,0.7-4,1.1-5.6,1h-0.4c-0.1,0-0.3,0-0.4,0c2-4.8,3-9.7,3.3-15.2c0-1,0.1-2,0.1-2.9
		c0-2.1,0.1-4,0.4-5.8c0,1.5,0.1,3,0.2,4.5v0.4l3.5,2.4C150.6,20.6,150.2,20.7,149.9,20.8z M159.8,27.7c-0.3,2.4-1.8,4.1-3.2,5.3
		c1.7-2.4,2.8-5.5,2.4-8.5C159.8,25.2,160,26.2,159.8,27.7z M159.6,15c-0.5,1-1.3,1.9-2.4,2.7l0.3,3.3c-0.6-0.7-1.5-1.2-2.9-1.2
		c-0.1,0-0.2,0-0.3,0c1.4-1.2,2.2-2.8,2.8-4.1c1.2-2.5,1.4-5.2,0.8-7.7l-2-0.9c1.3,0.2,2.5,0.6,3.4,1.5
		C161.8,10.7,159.8,14.6,159.6,15z M167.5,33.1c-0.2,0-0.5,0-0.7-0.1c0.1-0.9,0.3-1.8,0.5-2.7c0.2-1.2,0.5-2.4,0.6-3.7
		c0.2-2.3,0-4.5-0.2-6.6l-0.1-1c-0.3-3.2,0.1-5.8,1.1-8.3c-0.5,3.3-0.2,6.6,0,9.8C169.1,25.2,169.3,29.3,167.5,33.1z M189.1,29.1
		c0.1,1.9,0.3,3.6,0.1,5.2c-0.5,0-1.2-0.1-1.5-0.3c0.2,0.1,0.5,0.5,0.6,1.2l-2.9-2.2c1.3-1.3,1.9-2.8,2.3-4c0.1-0.3,0.2-0.6,0.3-0.9
		l0.3-1.4c0-1.4,0.1-2.6,0.2-3.5l-6.4-2.5l-0.3,0.4c-0.2,0.3-0.4,0.6-0.6,0.9c-0.2,0.3-0.4,0.6-0.6,0.8c-0.5,0.7-0.9,1.3-1.4,2.1
		c-0.6,0.9-1.2,2-1.6,3.1l-0.1,0.2c-0.1,0.2-0.1,0.4-0.2,0.7c-0.7,0.6-1,1.3-1.1,2l-0.1-0.1l0,0c-0.3-0.6-0.5-1.7,1.2-4.2
		c1.5-2.4,3.3-5.1,5.2-6.9c1.9-1.8,5-2.3,7.2-1.2l0.2,0.1C188.6,22,188.9,25.7,189.1,29.1z M196.6,27.6c0.1-1.5,0.7-5.5,2.7-7.8
		c-0.2,0.4-0.4,0.9-0.6,1.4c-1.1,2.5-1.7,5-1.8,7.5c-0.1,1.1,0.2,2.1,0.3,2.9c0,0.1,0,0.2,0.1,0.3C196.5,30.7,196.4,29.1,196.6,27.6
		z M200.9,33.8c-1.5-0.1-2.5-0.7-3.2-1.4l6.1,0.7C203.2,33.7,202.2,34,200.9,33.8z M204.5,32.5c0.1-0.3,0.3-0.6,0.5-1
		C204.9,31.9,204.7,32.3,204.5,32.5z M206.8,18.4c0.2-0.3,0.4-0.5,0.5-0.6c0.1,0.1,0.1,0.2,0.2,0.3l-0.1-0.3l0,0
		c0.1,0.1,0.1,0.3,0.2,0.5s0.2,0.5,0.3,0.8l-0.2-0.5c0.1,0.3,0.1,0.6,0,0.9l-0.9-0.5C206.8,18.6,206.8,18.5,206.8,18.4z"/>
	<path class="st0" d="M240.8,41.8c1,0.4,2.1,0.6,3.3,0.6c1.6,0,3.2-0.4,4.2-1.1c1.1-0.7,2-1.6,2.8-2.6c0.9,1.2,2.4,2,4.3,2.4
		c1.8,0.3,4.2,0.2,5.9-1c0.2,0.1,0.4,0.3,0.6,0.4c2.5,1.5,7.3,1.7,9.6-0.2c1.2-1,2.2-2.2,2.9-3.4c2.3,1.5,5.2,2.3,8.1,2.3
		c1.3,0,2.7-0.2,4-0.5c-0.3,0.4-0.5,0.7-0.7,1.1c-0.1,0.3-0.2,0.6-0.4,0.8c-0.7,1.4-1.7,3.6-0.7,6.4c1.4,4.2,6,5.9,9.9,5.9
		c0.1,0,0.2,0,0.3,0c0.8,0,1.8,0.1,3,0.1c5.5,0,14.8-1.1,18.3-9.3c0.8-1.9,1.1-3.8,1.1-5.6c0.4,0.2,0.7,0.4,1.1,0.6l0,0
		c2,0.9,4.6,1.5,7.4,1.5c2.6,0,5.2-0.6,7.5-1.9c2.9-1.8,4.6-4.7,4.8-8.2c0.1-1.8-0.9-3.4-2.6-4.5c0.5-0.6,0.9-1.3,1.2-2
		c0.8-1.9,1.2-5-1.5-8.8c-2.3-3.1-5.7-4.8-9.5-4.8c-0.1,0-0.1,0-0.2,0c-3,0-6,1.1-8.6,2.9c-1.7-1.2-4-1.5-5.8-1.3
		c-3.2-1.1-7-1.2-8.8-1c-2.4,0.3-4.6,1.3-6.5,2.8c-0.2-0.7-0.5-1.3-0.9-1.8c-1.6-2-4.5-2.3-5.8-2.3l0,0c-1-0.1-2.1-0.1-3,0.1
		c-4.8,1-8.7,3.2-11.5,6.5c-0.1-0.9-0.2-1.9-0.2-2.8v-0.8c0-1,0-1.9-0.1-2.8c0.1-0.5,0.2-0.9,0.2-1.4c0.4-2.4-0.9-5.3-5-6.3
		c-3.7-0.9-8.1,0.1-9.2,3.7c-0.2,0.7-0.4,1.4-0.6,2.1c-0.6,2.1-1.2,4.2-1.9,6.2c-0.2-0.4-0.5-0.9-0.7-1.3c-0.4-0.9-0.5-1.8-0.6-2.9
		c-0.1-1.3-0.3-2.8-1-4.4c-1.7-4.3-8.7-5.2-12.3-3.8c-2.7,1.1-3.9,3.5-3.2,6c-0.7,4-0.5,7.6-0.3,11.1c0.1,2.2,0.2,4.2,0.2,6.4
		c0,1.2-0.6,2.7-1.1,4.3c-0.9,2.7-2,5.8-1.2,9C237.9,39.8,239.1,41.1,240.8,41.8z M329.6,19.9v-0.2c0-0.3,0-0.6,0-1
		c0,0,0,0.1,0.1,0.1c0.3,0.4,0.9,1.4,0.7,1.9c-0.2,0.4-0.6,0.8-1.2,1.2C329.5,21.3,329.6,20.6,329.6,19.9z M319.2,20.5
		c0.2-0.2,0.3-0.5,0.5-0.7c-0.1,0.2-0.2,0.3-0.3,0.5c-0.4,0.7-0.7,1.5-1,2.4l2.4,2.3l-2.7,3.8c0,0.1,0,0.2,0.1,0.3
		c-0.2-0.4-0.4-0.9-0.5-1.3C317.1,25.4,317.6,22.7,319.2,20.5z M310.9,18.4c-0.1,0.1-0.1,0.2-0.2,0.4v-0.4H310.9z M307.1,31.5
		l1.8-3.2c-0.1-1.5,0-2.8,0.3-4.1c-0.3,2.5-0.1,5,0.4,7.8l0.2,1c0.5,3,0.9,5.5,0,7.8c-0.4,1-1.1,1.9-2,2.6c1.9-3.1,1.9-6.8,1.6-9.5
		l-2.7-2.2C306.9,31.7,307,31.6,307.1,31.5z M297.5,24c0.3-2.4,1.5-4.4,3.3-5.6c-0.2,0.2-0.3,0.4-0.3,0.5c-0.9,1.6-1.5,3.4-1.7,5.3
		l0,0c-0.2,1.4-0.2,3.2,0.4,4.9C297.9,27.8,297.2,26,297.5,24z M296.2,36.7c0.2-0.3,0.4-0.6,0.6-0.8c1.2,0.7,2.6,1.3,4.1,1.7
		c0.5,0.1,1.1,0.2,1.7,0.2c-0.2,1.2-0.6,2.1-1.3,2.7c-0.8,0.7-2,1.1-3.4,1.2c-0.1-0.2-0.1-0.4-0.1-0.5c-0.2-1.6-1-2.9-2.4-3.8
		C295.7,37.2,295.9,37,296.2,36.7z M291.4,44.4c0.1,0.2,0.1,0.4,0.2,0.6c-0.1-0.1-0.2-0.2-0.3-0.4C291.4,44.5,291.4,44.4,291.4,44.4
		z M287.6,16.2c0.1,0,0.5,0,0.9,0h0.2c-0.4,3.9,0.4,7.4,1.2,10.8c0.1,0.5,0.3,1.1,0.4,1.6c0.4,1.5,0.7,2.6,0.6,3.3
		c-0.5,0-1.2,0-1.4-0.1c0,0,0.1,0,0.2,0.1l-2.8-0.4c1.3-1.9,1.7-4,2-5.8l0.1-0.6v-1.4c-0.1-0.6-0.3-1.3-0.3-2
		c-0.1-0.7-0.1-1.3-0.1-1.8l-5.2-2.1C284.8,16.9,286.3,16.4,287.6,16.2z M278.7,22.1c0.5-0.9,1.1-1.7,1.8-2.3
		c-1.1,1.7-1.9,3.5-2.4,5.5l0,0c0,0-0.7,3-0.1,5.5c-0.2-0.1-0.3-0.2-0.5-0.4C275.5,28.8,277.3,24.4,278.7,22.1z M245.4,31.3
		c0.7-1.9,1.4-4.1,1.5-6.4c0.1-2.5,0-4.8-0.2-7.1c-0.2-3.5-0.4-6.8,0.3-10.2V7.4c0.8,0,1.7,0.2,2.2,0.4c0.2,0.6,0.3,1.4,0.4,2.2
		c0.2,1.5,0.4,3.3,1.3,5.2c0.8,1.6,1.6,3,2.5,4.4c0.6,1,1.3,2,1.8,3.1l0.1,0.1h6.1c2.4-4.4,3.8-9,5.1-13.5c0.1-0.4,0.2-0.8,0.3-1.2
		c0.2,0,0.4,0,0.6,0c0,0.1,0,0.2,0,0.3v1.1c0.1,0.7,0.1,1.5,0.1,2.5v0.9c0.1,3.7,0.6,7.1,1.2,10.6v0.1c0.8,5.1,0.9,8.5-1.4,10.7
		c-0.2,0-0.4,0-0.7,0c0.1-0.3,0.1-0.5,0.2-0.8c0.5-1.9,1-3.9,1-6.3c0-0.1,0-0.3,0-0.5l-6.5-1.8c-1.1,1.9-2.3,3.9-3.2,6.1l-0.2,0.9
		c-0.1,0.7-0.3,1.3-0.6,1.9c-0.2,0-0.4,0-0.6,0c-0.2-0.9-0.3-1.9-0.5-2.9c-0.2-1.7-0.5-3.6-1.1-5.5c0-0.1-0.1-0.2-0.1-0.3l-6.8,0.9
		c-0.2,3.3-1.6,7.5-3.6,9c-0.1,0-0.2,0-0.4,0C244.4,34.2,244.9,32.8,245.4,31.3z"/>
	<path class="st0" d="M97.3,75.3c2.5,3.1,6.7,3.9,8.4,4.1c0.8,0.1,1.5,0.1,2.2,0.1c2.1,0,3.9-0.4,5.5-1.1c1.2-0.5,2.4-1.2,3.6-2.6
		c0.8-0.9,1.2-2,1.4-2.7V73c0.2-0.5,0.4-1.2,0.4-2c0.1-1.1-0.2-2-0.4-2.6c0-0.1-0.1-0.3-0.1-0.4c-0.6-3-4-4.7-5.1-5.1
		c-2-0.9-4.2-1.3-6.7-1.3c-5.2,0-10.8,2.7-11.5,8c-0.2,1.7,0.3,3.4,1.5,4.8C96.8,74.7,97,75,97.3,75.3z M106.5,68.6
		c1.6,0,2.9,0.3,4.1,0.8c0.4,0.1,0.8,0.4,1.1,0.6c0,0.1,0.1,0.2,0.1,0.4c0,0.1,0.1,0.2,0.1,0.3c0,0,0,0,0,0.1v0.1
		c-0.1,0.2-0.1,0.4-0.2,0.6c-0.2,0.2-0.4,0.4-1.1,0.7c-1,0.4-2.4,0.6-4.1,0.4c-1.6-0.2-3.1-0.8-3.7-1.4l-0.6-0.8
		C102.7,69.2,104.8,68.5,106.5,68.6z"/>
	<path class="st0" d="M26.9,76.6c-0.6,4.5-0.4,9.6,0.7,15.7c0.3,1.6,0.6,3.3,0.9,4.9c1,5.3,1.9,10.3,1.6,15.4
		c-0.3,4.7-2.2,8.9-4.1,13.3c-0.6,1.3-1.2,2.7-1.8,4.2c-1.1,2.6-0.4,5.3,1.9,7.1c1.8,1.4,4.8,2.2,7.6,2.2c2.3,0,4.6-0.5,6-1.6
		c4.2-3.2,7.2-7.5,9.1-12.6c0,0.3,0,0.6,0,1c0,2.9,1.7,5.3,4.7,6.5c1.5,0.6,3.3,0.9,5.1,0.9c3.1,0,6.2-0.9,8-2.7
		c5.8-6,6.2-15.2,5.5-21.9c-0.2-1.8-0.5-3.5-0.9-5.1c-0.2-1.3-0.5-2.5-0.6-3.6c0.1-0.1,0.1-0.1,0.2-0.2c0,0.5,0.1,1,0.2,1.5
		c0.5,2.5,2.5,4.5,5.6,5.6c3.3,1.2,8.3,1.3,11.5-0.2c0,0.2,0,0.3,0,0.5c0.1,1,0.2,2,0.3,3c0.7,5.8,1.3,11.2-1.7,15.6
		c-1.9,2.7-1.3,5.9,1.4,8c2.1,1.6,5.8,2.7,9.4,2.7c3.2,0,6.2-0.8,7.9-2.9c2.4-2.8,3.6-5.8,4.3-8.9c3.8,6.3,10.4,10.5,18.7,11.1
		c0.6,0,1.3,0.1,1.9,0.1c5.8,0,11-2.2,14.5-6.1c0.3-0.3,0.5-0.6,0.8-0.9c-0.2,0.6-0.3,1.3-0.5,2c-0.6,2.3-1.3,4.8-1.2,7.3
		c0.1,2.9,2,5.3,5.2,6.4c3.7,1.3,9.4,0.9,12.1-2c2.4-2.7,3.7-6.3,4.4-10c0.2,0.7,0.4,1.4,0.6,2.1c3,8.8,13.1,12,21.6,12
		c0,0,0,0,0.1,0c2.8,0,6.2-1.3,7.2-4.2c0.3-0.8,1-3.7-2.2-6.2c-1.2-0.9-2.4-1.6-3.4-2.2c-1.8-1-2.8-1.6-3.2-2.7
		c-0.6-1.6-1-3.3-1.5-5.1c-0.5-2.1-1.1-4.2-1.9-6.4c-1.5-3.8-3.5-7.9-6.7-11.3c1.6-2,3.1-3.9,4.8-5.7c2.6-2.7,9.6-9.9,5.7-19.2
		c-1.9-4.6-9.4-6-13.5-4.9c-3.4,1-5.4,3.7-4.9,7c0.3,1.9-0.8,3.8-2.4,5.6c-0.1-8.9,0.8-18.3,4.4-27.9c1-2.8-0.2-5.6-3.1-7.2
		c-4.2-2.3-12.9-2.6-15.8,1.4c-6.4,8.6-7.9,19-7.7,29.2c-0.3-0.3-0.6-0.6-1-0.9c-4.8-3.9-12.2-5.3-18.8-3.6
		c-7.3,1.9-11.9,7.2-14.6,13.6c0.5-1.7,1.2-3.5,2.2-5.2c1.7-2.8,0.8-6-2.2-7.9c-3.9-2.5-12.1-3.2-15.1,1.1c-1.4,2-2.6,4.1-3.5,6.3
		c-2.1-2.6-5.1-4.8-7.8-6c-4.5-2-9.7-2.5-14.5-1.4c-3.5-1.1-8.9-1.4-11.6,1.3l0,0c-6.5,6.3-6.3,14.1-5.6,20.9c0.3,2.7,0.5,6,0,9.3
		c-0.1,0.5-0.2,1-0.3,1.5c0.5-4.9,0.1-10.3-1-16.2l-0.4-2.3c-1.7-8.7-3.3-17-1.2-24.9c1-0.1,1.9-0.1,2.8-0.1c2.5,0,5.2,0.4,8.1,1.1
		c0.6,0.2,1.4,0.4,2.2,0.8c1.6,0.6,3.5,1.3,5.4,1.4c0.9,0.2,1.9,0.2,2.9-0.2c2.9-1,4.6-4.5,4.8-4.8c1.6-3.4,1.8-7.6,0.6-11
		c-2.3-6.5-10.7-7.8-15.7-8.6l-0.5-0.1c-6.5-1-12.9,0-18.3,1.1c-1.6,0.3-3.2,0.7-4.8,1c-8.9,2-18.2,4.1-25.9,0.1
		c-3-1.5-6.1-0.6-8,2.5c-2.4,3.8-3,12.1,1.1,15.2C10.4,77.1,19.2,77.5,26.9,76.6z M156.4,62.2c1.2-0.6,4.8-0.5,6.5,0.1
		c-4.7,13.3-4.8,25.8-4.2,37.4l6,2.3c0.6-0.6,1.2-1.2,1.9-1.8c3.8-3.5,8.9-8.2,8.4-14.7c1.4-0.3,4.3,0.3,5,1.1
		c1.4,3.6,0.2,6.8-4.3,11.5c-2.2,2.3-4.1,4.7-6,7.1c-0.5,0.6-0.9,1.2-1.4,1.7l0.7,5c2.8,2.1,4.9,5.3,7.1,10.7
		c0.7,1.7,1.2,3.6,1.6,5.5c0.5,1.9,1,3.9,1.7,5.8c1.1,2.9,3.2,4.5,5.1,5.6c-5.1-0.6-10.4-2.7-11.9-7.1c-0.6-1.8-1-3.8-1.4-6
		c-0.4-1.9-0.7-3.9-1.3-5.9c-0.1-0.4-0.2-0.8-0.4-1.3c-0.4-1.5-0.9-3.2-1.6-4.9l-4.7-1.9c-0.1,0.1-0.4,0.2-1,0.3l-2.8,3.5
		c0,1.8,0,3.4-0.1,4.9c-0.2,4.9-0.6,13.2-3.7,16.7c-0.9,0.7-4.3,0.6-5.2-0.1c0-1.5,0.5-3.2,1-5c0.4-1.6,0.9-3.2,1.1-4.9
		c0.4-2.9,0.5-6.1,0.4-9.8c-0.1-5.6-0.8-11.1-1.5-16.4c-0.2-1.3-0.3-2.5-0.5-3.8C149.6,85.1,149.3,72,156.4,62.2z M144.7,103.1
		c0.3,2.2,0.5,4.5,0.8,6.7c-1.7-1.1-3.8-1.7-5.7-1.9c-4.3-0.4-7.7,1-8.8,3.7c-0.5,1.1-0.9,2.4-1.3,3.8c-0.4,1.3-0.9,2.9-1.5,4.2
		c0,0,0-0.1-0.1-0.1c-0.8-1.7-1.2-3.8-1.3-6.3c0-5.1,0.9-10,2.6-13.5c0.3-0.7,0.6-1.2,0.9-1.7c1,4.3,6.7,6.1,10.6,6
		C142.4,104,143.7,103.6,144.7,103.1z M125.2,89.3c1.3-0.3,2.6-0.5,3.9-0.5c3.3,0,6.6,1,8.8,2.7c1.7,1.4,2.7,3.3,2.8,5.5
		c-1.2,0.1-3.1-0.4-3.8-0.9c-0.2-1.3-1.1-5.2-3.9-6.7c-1.4-0.7-2.4-0.3-3.7,0.1h-0.1c-3.1,1.1-5,4.4-6.3,7.1
		c-2.9,6.1-3.2,13-3.2,16.6s0.7,6.6,1.9,9.3c0.7,1.4,1.8,3.4,3.6,4.8c-0.7-0.5-1.3-1.8-0.9-3l1.4,3.9l4.2-0.3c0.1,0,0.2-0.1,0.5-0.3
		c3.3-2.1,4.6-6.4,5.7-10.1c0.3-0.9,0.6-1.8,0.8-2.5c1.1-0.3,3.5,0,4.4,0.6c0.7,3.8-0.1,7.2-2.3,9.7c-2.4,2.7-6.1,4-10.6,3.7
		c-9.5-0.7-15.7-7.6-15.7-17.3C113,102.8,116.2,91.6,125.2,89.3z M95.2,109.5c-0.1-1-0.2-1.9-0.3-2.9c-0.7-6.9,0.8-12.9,4.6-18.4
		c0.9-0.5,3.5-0.3,5,0.3c-4.5,8.5-3.3,16.5-2.1,24.9v0.2c1,6.5,0.9,11.4-2.5,15.5c-1.1,0.8-5,0.5-7-0.3
		C96.7,122.5,95.9,115.6,95.2,109.5z M92.2,129.9L92.2,129.9l-2.9-2L92.2,129.9z M56.7,120.5c0.4-1.5,0.8-3.1,1.1-4.8
		c0.6-4.1,0.4-7.9,0-11.1c-0.7-6.9-0.4-11.3,3.4-15.1c0.8-0.4,3.5-0.3,5.3,0.4l2.3,0.1c3.5-1,7.5-0.8,10.9,0.7
		c3.3,1.5,6.3,4.5,6.6,6.8c0.1,0.7,0,1.6-1.4,2.8c-1.4,0.9-6.3,0.5-7.3-0.6c-0.1-0.5-0.1-1.1,0-1.8c0-0.6,0.1-1.3,0-2.1
		c0-0.8-0.3-1.5-1.1-3.6l-4.8-1.9l-0.5,0.2c-1,0.4-1.4,0.7-1.8,0.9c-1.2,0.9-3.3,2.7-5.3,4.9l-0.9,2.6c0.2,2,0.5,4,0.9,5.9
		c0.3,1.6,0.6,3.1,0.8,4.5c0.5,4.2,0.6,12-3.5,16.2c-1.1,0.8-4.8,0.8-5.8,0.1C55.7,124.2,56.2,122.4,56.7,120.5z M67.6,69.1
		c0.3,0,0.6,0.1,0.9,0.2L67.6,69.1z M7,65.8c-0.6-1-0.4-4,0.2-5.5c9.7,4.5,20.4,2.1,29.8,0c1.6-0.4,3.1-0.7,4.7-1
		c4.8-1,10.4-1.9,15.8-1l0.5,0.1c3.2,0.5,9.3,1.4,10.2,4c0.6,1.7,0.5,4-0.3,5.7c-0.1,0.3-0.4,0.7-0.7,1l0,0l0,0
		c-0.8,0-2.2-0.5-3.5-1c-1-0.4-1.9-0.7-2.9-1c-3.5-0.9-6.8-1.3-9.8-1.4c-1.8,0-3.8,0.1-5.9,0.4l-2.8,2.3
		c-3.6,10.4-1.6,20.7,0.3,30.6l0.4,2.3c1.9,10,2.2,23.4-7.3,30.8c-0.9,0.4-3.2,0.2-4.5-0.2c0.5-1.1,0.9-2.1,1.4-3.1
		c2.2-4.8,4.4-9.7,4.8-15.7c0.3-5.9-0.7-11.6-1.8-17.1c-0.3-1.6-0.6-3.2-0.9-4.8C33.5,83.6,33.5,78,35,73.5L31,69
		C23.1,70.3,14.2,71.1,7,65.8z"/>
	<path class="st0" d="M267.7,105.8c-4.1-4.1-11.5-5-17.4-3.9c-1.9-1-4.3-1.3-6-1.3c-2.6,0-4.6,0.7-5.9,2.1c-1.8,2-3,4-3.6,6.1
		c-2-2.3-4.6-4-7.6-4.8c-5.1-1.5-12.6-1-17.3,2.7c-2.8,2.3-4.2,5.4-4,9.1c0,0.1,0,0.1,0,0.2c-3.3,9.1-2.5,17.1,2.4,22.2
		c3.4,3.5,8,5.4,12.9,5.4c1.3,0,2.6-0.1,4-0.4c2.9-0.6,5.5-1.8,7.6-3.5c0.6,2.1,2.4,4.2,6.1,5.3c1.3,0.4,2.7,0.6,4.1,0.6
		c3.2,0,6.3-1.1,7.6-3.7c2.5-5.1,3.4-11,2.5-18.3c-0.2-1.5-0.5-3.1-0.9-4.6c0,0,0,0,0-0.1c0.3-0.5,0.7-1,1-1.4
		c2.6,2.5,8,3.9,11.7,2.9c2.6-0.7,4.4-2.4,5.1-4.7C271.2,111.8,270.3,108.4,267.7,105.8z M215.8,134.1c0.3,0.6,0.7,1,1,1.4
		c-1.2-0.5-2.3-1.3-3.3-2.3c-4.4-4.5-1.8-12.5-0.6-15.7V115c0,0,0.1,0.1,0.1,0.3c-0.1-1.4,0.3-2.4,1.4-3.2c1.1-0.9,2.7-1.4,4.4-1.7
		c-1,0.9-1.7,2.1-2.3,3c-0.3,0.5-0.6,0.9-0.9,1.3l-0.7,1.4c-0.7,3.3-1.1,6.7-1.1,9.7C213.9,128.2,214.1,131.3,215.8,134.1z
		 M220.9,127.2c0-0.4,0-0.9-0.1-1.4c0-2.1,0.2-4.4,0.6-6.8c0,0.3,0.1,0.7,0.1,1.1C221.9,122.7,221.6,125.1,220.9,127.2z
		 M219.2,113.3c-0.4-1.1-0.2-2.2,0.2-3c1.1-0.1,2.3-0.2,3.4-0.1L219.2,113.3z M231.9,129.7c-1.2,3.3-4.2,5.7-7.9,6.5
		c-0.2,0-0.5,0.1-0.7,0.1c1.5-1,2.8-3,4-5.9c1.3-3.2,1.7-7,1.4-10.9c-0.3-3.8-1.1-6.6-2.3-8.5c2.2,0.9,3.8,2.5,5,4.9
		C233.3,119.8,233.5,125.4,231.9,129.7z M263.5,113.4c-1.1,0.4-4.3-0.3-5.2-1.1c-0.4-0.5-0.5-0.7-0.5-0.7s0,0.1,0.1,0.3l-5.6-2.7
		c-0.2,0.2-0.5,0.3-0.7,0.4c-0.7,0.4-1.7,1-2.6,2c-1,1.1-1.9,2.4-2.7,3.6c0.2-0.3,0.4-0.5,0.4-0.5l-1.5,3.6c0.1,0.6,0.3,1.2,0.4,1.8
		c0.3,1.4,0.6,2.7,0.7,3.9c0.6,5.7,0.1,10.3-1.7,14.1c-1.1,0.4-3.8,0.1-4.8-0.6c0.2-1.8,0.4-3.7,0.7-5.5c0.6-4.1,1.1-8.3,0.8-12.8
		v-0.1c-0.4-5.5-0.5-8.6,2.1-11.5c0.9-0.3,3.2,0,3.8,0.5c0,0,0,0-0.1-0.1l3.5,1c4.5-1.3,9.9-0.5,12.2,1.7
		C263.5,111.5,263.7,112.3,263.5,113.4z"/>
	<path class="st0" d="M418.4,106.7c-0.9-3.7-1.6-7.3-1.4-10.5l-5.7-3c-1.9,1.5-3.5,3.2-4.9,5.2c-2.9,4.1-4.7,9.2-5.5,14.9
		c-0.4,2.9-0.7,5.9-0.2,8.8c0.3,1.9,0.9,3.4,1.7,4.7c-0.5-0.8-0.7-2.4,0.5-3.6l-0.3,4.5l4.4,1c-0.2,0.1-0.4,0.2-0.4,0.2
		c0.1,0,0.1,0,0.3-0.1c7-1.1,10-10.3,11.3-14.2c0,0.1-0.1,0.2-0.1,0.2l1.3-3.5C419.1,109.8,418.8,108.3,418.4,106.7z M411.6,112.5
		c-1.5,4.7-2.9,7.1-4,8.3c-0.3-1.9-0.1-4.3,0.2-6.5l0,0c0.5-3.6,1.5-6.8,2.9-9.6c0.2,1.2,0.5,2.4,0.8,3.6c0.2,1,0.4,1.9,0.7,2.9
		C412,111.6,411.8,112,411.6,112.5z"/>
	<path class="st0" d="M187.9,198.2c2-2.4,3.7-5.5,4.2-8.8c0.4-3.1-0.4-6-2.3-8.5c-5.3-6.9-16.5-8.1-24.6-6.3
		c-7.7,1.7-14.4,6.7-17.8,13.5c-0.4,0.8-0.7,1.6-1.1,2.4c-0.5-3.9-1.6-7.9-2.6-11.8c-2.3-8.9-4.5-17.3-1-24.6
		c1.2-2.4,0.7-5.7-2.9-7.6c-3.7-2-10.3-2.2-12.6,1.8c-5.5,9.5-4.8,18.8-3.4,28c-6,0.2-11.9,2.4-16.2,6.3c-4.2,3.7-7,8.7-8.5,14.7
		c-0.3-4.4,0.2-8.7,2.6-11.7c1.7-2.1,1.5-4.9-0.5-6.7c-0.8-0.7-2-1.3-3.4-1.7c1.5-0.2,2.8-0.7,3.9-1.5c1-0.7,2.4-1.9,3.4-3.5
		c1-1.5,1.2-3.3,0.6-5l-0.3-0.6c-0.1-0.2-0.2-0.5-0.3-0.7c-0.7-1.4-1.7-2.5-2.9-3.3c-0.6-0.4-1.1-0.6-1.6-0.9
		c-0.2-0.1-0.3-0.2-0.5-0.3l-2.1-0.8l-2.3-0.5h-0.2c-2-0.2-3.9-0.1-5.7,0.3c-1,0.3-2.4,0.7-3.7,1.8c-0.8,0.6-1.4,1.4-1.7,2.3
		c-0.4,0.9-0.5,1.8-0.4,2.7c-0.1,0.5-0.1,1-0.1,1.5c0.1,2.5,1.4,4.6,3.7,6.3c1,0.7,2.3,1.3,3.7,1.7c-1.5,0.3-2.8,0.8-3.8,1.7
		c-5.7,5.5-7.4,11.5-7.6,17.5c-0.3-2-0.6-4-1-6c-1.9-11.3-3.8-22,1.6-31c1.5-2.5,0.7-5.5-1.9-7.3c-3.4-2.2-10.4-2.8-13.1,0.9
		c-6.3,8.7-7.5,18.2-7.5,26c-2.5,0.6-5,0.6-7.8,0.7c-1.4,0-2.9,0.1-4.5,0.2c2.7-7,5.2-15.2,1.2-23.9c-2.1-4.5-9.8-5.8-13.7-4.4
		c-3.2,1.1-4.8,3.8-4.1,6.9c1.2,5.7-1.4,11.7-3.9,17.4l-0.1,0.1c-2.8,6.4-4.3,12.6-4.9,19.4c-0.6,7-1.4,12.9-3.5,18.8
		c-0.9,2.6-2.1,5.4-3.5,8.6c-0.3,0.6-0.6,1.4-0.9,2.2c-0.5,1.2-1.1,3-1.7,4.1c-1.2,0.8-2.1,2-2.5,3.4L8,232.4
		c-0.5,1.7-0.2,3.4,0.8,4.8c2.8,3.8,10.1,3.9,10.2,3.9l0,0c8.9-0.1,12.1-7.8,14.5-13.5c0.3-0.7,0.6-1.4,0.9-2.1
		c3.7-8.5,5.9-16.2,6.5-23.7c0.2-2.4,0.4-4.6,0.7-6.5c3.7-1.1,7.6-0.8,11.9-0.6c1.4,0.1,2.7,0.2,4.1,0.2c0.5,0,1,0,1.4,0
		c0.1,0.8,0.1,1.6,0.2,2.4c0.5,6.1,0.8,13.1-1.7,19.4c-1,2.5-2.4,4.8-4.1,6.8c-0.4,0.4-0.8,0.9-1.4,1.4c-1.6,1.5-3.5,3.3-4.1,6.3
		c-0.3,1.6,0.1,3.1,1.2,4.4c2.6,3.1,8.3,3.1,8.4,3.1c5.6-0.1,10.6-2.4,14.5-6.4c2.5-2.7,4.4-6,5.8-9.5c-0.2,1.3-0.2,2.6,0.1,4
		c0.4,1.9,1.7,3.5,3.7,4.4c1.4,0.7,3.2,0.9,4.9,0.9c2.2,0,4.3-0.5,5.7-1.2c4.1-2.2,6.2-5.8,7.3-9.7c0.6,1.4,1.5,2.7,2.6,3.9
		c4.3,4.5,10.8,5.9,14.3,6.4c2.9,0.4,6,0.4,8.9,0c1.4,0.4,3.2,0.7,5,0.7c3.3,0,6.6-0.9,8.3-3c3.6-4.5,5.1-10.6,6.4-16.6
		c0.4,1.2,0.8,2.5,1.3,3.6c3,6.8,8.3,11.4,15.2,13.3c2.5,0.7,5.1,1,7.7,1c7.5,0,15.2-2.7,20.4-7.4c5.5-5,7.8-11.7,6.5-19
		C195.8,201,192.5,198.7,187.9,198.2z M67.1,227.6c-2.6,2.8-5.7,4.2-9.6,4.2c-0.4,0-1.2-0.1-1.9-0.3c0.4-0.4,0.9-0.9,1.4-1.4
		c0.6-0.6,1.3-1.2,1.9-1.9c2.2-2.6,4-5.5,5.2-8.8c3-7.6,2.7-15.6,2.2-22.5c-0.1-1.7-0.3-3.5-0.4-5.2l-0.1-0.6l-3.7-3.2
		c-1.3,0.1-2.6,0.1-4.1,0.1c-1.3,0-2.6-0.1-3.9-0.2c-5.4-0.3-11.1-0.7-16.9,1.7l-2.1,2.7c-0.4,2.7-0.8,5.6-1.1,9.1
		c-0.6,6.8-2.5,13.6-5.9,21.5c-0.3,0.7-0.6,1.4-0.9,2.2c-2.6,6.2-4.3,9.2-8.1,9.2c-0.7,0-2.2-0.3-3.3-0.6l0.2-0.1
		c1.3-1.7,2.3-4.3,3.1-6.4c0.3-0.7,0.5-1.4,0.7-1.8c1.5-3.4,2.7-6.4,3.7-9.2c2.3-6.6,3.2-13,3.9-20.6c0.5-6.1,1.9-11.5,4.4-17.2
		l0.1-0.1c2.7-6.2,5.7-13.2,4.5-20.6c1.4-0.1,3.8,0.4,4.5,1.1c2.5,5.6,1.3,11-1.6,18.5c-0.7,1.7-1.3,3.5-1.8,5.4l3.9,4.5
		c1.3-0.2,2.6-0.4,4.1-0.5c1.7-0.1,3.4-0.2,5.1-0.2c3.9-0.1,8-0.1,12.5-1.8l2.3-3.4c-0.3-7.5,0.3-16.1,5.9-24c0.6-0.2,1.7-0.1,2.6,0
		c-5.5,10.8-3.5,22.6-1.5,34.1c0.9,5,1.7,9.8,1.8,14.3C74,212.2,72.4,222,67.1,227.6z M80.2,214.4c0,0.1,0,0.2-0.1,0.3
		c0-0.1,0.1-0.3,0.1-0.4V214.4z M91.1,166.8L91.1,166.8L91.1,166.8l0.1-0.2C91.2,166.7,91.2,166.8,91.1,166.8L91.1,166.8z
		 M90.9,166.2L90.9,166.2l-0.1-0.3C90.9,166.1,90.9,166.1,90.9,166.2z M90.9,167.1C90.9,167.2,90.9,167.2,90.9,167.1
		c0,0.1,0,0.1-0.1,0.1L90.9,167.1z M90.7,167.7l0.1-0.2l0,0C90.8,167.6,90.7,167.7,90.7,167.7z M93,205.4l0.2,1.5
		c1.3,9.9-0.1,15.8-4.1,17.9c-0.8,0.4-3.2,0.5-4.2,0.2c-0.2-1.4,0.4-3,1-4.9c0.5-1.5,1-3.1,1.3-4.8c0.6-3.9,0.3-7.8,0-11.5
		c-0.1-0.9-0.1-1.7-0.2-2.6c-0.5-7.2,0.3-12.7,5.2-17.6c0.5-0.2,1.6-0.2,2.5-0.1C91,190.4,92.1,198.7,93,205.4z M92.4,183.6
		L92.4,183.6L92.4,183.6L92.4,183.6z M95.1,170.4c-1.5-0.1-2.7-0.4-3.4-0.9c-0.8-0.5-0.8-0.8-0.8-0.9c0,0.2,0,0.4-0.1,0.4l0.2-1.6
		c0.1-0.1,0.3-0.1,0.5-0.2c0.9-0.2,1.9-0.3,2.9-0.2l1.5,0.3l1.2,0.4c0.1,0.1,0.3,0.1,0.4,0.2c0.4,0.2,0.7,0.4,1,0.5
		c0.1,0.1,0.3,0.2,0.5,0.6c-0.3,0.3-0.7,0.7-1.1,1C97.5,170.3,96.8,170.5,95.1,170.4z M125.1,206.1c-0.6,3.2-1.5,6.2-2.6,9.5
		l-0.1,0.4c-1.6,1.2-2.5,1.5-2.9,1.6c-0.5-0.8-0.9-3-0.5-8.8c0-0.5,0.1-0.9,0.1-1.3c0.1-3.3,1-8.2,2.9-12c1.4-2.7,2.9-4.1,4.1-4.8
		C126.4,195.2,126.1,200.2,125.1,206.1z M138.6,210.1c-0.8,4.3-2.1,10.8-5.1,14.7c-0.9,0.5-4.3,0.8-6.3,0l-1.9-0.2
		c-2.5,0.4-5.2,0.5-7.7,0.1c-4.3-0.6-8.1-2.2-10.1-4.3c-1.8-1.9-2.3-4.4-2.5-8.4c-0.5-11,2-19.1,7.4-24.1c3.5-3.1,8.2-4.7,13.1-4.5
		c-4,1.1-7.4,4.1-9.8,8.9c-2.1,4.1-3.4,9.7-3.6,14.9c0,0.3,0,0.7-0.1,1.1c-0.3,5.1-0.9,14.6,5.8,16.1c2.9,0.6,6.1-0.6,9.8-3.7
		l1.1-1.6l0.4-1.4c1.1-3.3,2.2-6.7,2.8-10.4c1.3-7.6,1.6-13.9,0.8-19.8c-0.1-0.5-0.1-1-0.2-1.5l-3.4-3c-0.4,0-0.7,0-1,0l3.4-3.5
		c-1.6-9.5-3.2-18.6,1.6-27.2c0.7-0.2,1.9-0.1,2.8,0.2c-3.8,9.3-1.2,19.2,1.1,28c1.2,4.4,2.2,8.5,2.6,12.4
		C140.1,198.4,139.7,204.1,138.6,210.1z M185.1,218.1c-5.2,4.8-14.3,6.8-21.6,4.8c-6.1-1.7-9.2-6-10.7-9.4
		c-2.9-6.6-2.6-15.5,0.8-22.2c2.5-4.9,7.4-8.6,13.1-9.9c1.7-0.4,3.5-0.5,5.3-0.5c4.9,0,9.9,1.4,12.3,4.3c0.7,0.9,1,2,0.8,3.2
		c-0.4,2.9-2.9,6-5,7.6c-3.1,2.4-7.2,3.6-12.7,3.8c1.6-0.4,3.3-1.1,4.8-2.3c1.8-1.3,5.5-5.5,6.1-9.5c0.3-2.3-0.4-3.8-1.1-4.8
		c-0.8-1.1-2-1.7-3.3-1.9c-3.3-0.3-7.1,2.8-8.5,4.1c-3.5,3.2-5.3,7.4-6.1,10.4l2.9,3.8c-0.1,0-0.2,0-0.3,0l-3.7,3.3
		c-0.1,2.6,0,5.2,0.5,7.7c1.4,7.2,3.9,11.2,7.5,12.3c5.2,1.6,10.6-3.3,12.9-6.4c2.5-3.4,3.8-7.4,5-11c1.1-0.7,4.3-0.5,5.4,0.2
		C190.4,211.8,187.6,215.8,185.1,218.1z M176.8,205.5c-0.9,2.6-1.9,5-3.3,7c-1.8,2.4-4.5,4.1-5.2,3.9c0,0-1.5-0.9-2.7-6.9
		c-0.2-0.8-0.3-1.6-0.3-2.5C168.8,207,172.8,206.7,176.8,205.5z"/>
	<path class="st0" d="M255,197.5c-2.5-1.9-7.7-2-10.6-0.2c3.4-5.1,6.2-12.5-1.3-19.7c-4.1-4-16.5-7.1-22.4-3.5
		c-1.5,0.9-4.9,3.8-3,9.7c1.6,5.3,3.9,10.3,5.9,14.5c-3.1,3-6.4,6.5-7.9,11.3c-1.8,5.7-0.6,10.8,3.4,14.4c3.4,3.1,8.6,4.8,13.8,4.8
		c3,0,6-0.5,8.7-1.7c0.4-0.2,0.9-0.4,1.4-0.6c2.9,0.7,7.7,0.9,10.3-1.3c1.4-1.3,2-3,1.6-4.9c0-0.7-0.1-1.4-0.3-2.1
		c3.8-4,5.7-8.1,5.5-11.9C260.1,204.1,259.1,200.6,255,197.5z M233.1,216v-0.1C233.1,215.9,233.1,215.9,233.1,216
		C233.1,215.9,233.1,216,233.1,216z M247.9,220.2C247.9,220.2,247.9,220.1,247.9,220.2c0-0.2,0-0.3,0-0.3V220.2
		C248,220.2,247.9,220.2,247.9,220.2z M248,221.4v0.5C248,221.8,248,221.6,248,221.4z M248.1,215l-0.6,4.5c0.2,0.3,0.3,0.6,0.4,0.7
		c-1.1,0.1-2.8-0.1-3.5-0.3l0,0h-3.2c-0.8,0.4-1.5,0.7-2.1,1c-0.3,0.1-0.7,0.3-1.1,0.4c0.1-0.1,0.2-0.1,0.3-0.2l0.5-0.3
		c0.3-0.2,0.7-0.4,1.2-0.8l1.1-4.8c-0.7-1.1-1.6-2.5-2.4-3.6c-0.5-0.7-1.1-1.6-1.2-1.8c-0.8-1.4-1.5-2.8-2.3-4.2l-6-0.3
		c-0.6,0.8-1,1.6-1.4,2.2c-1.8,3.4-2.3,7.4-1.4,10.7l0,0c0.3,1.3,0.8,2.2,1.4,2.9c-1.5-0.5-2.9-1.2-3.9-2.1
		c-1.9-1.8-2.4-4.1-1.4-7.2c1.1-3.4,3.8-6.1,6.6-8.9c0.4-0.4,0.9-0.9,1.3-1.3l0.7-4c-2.1-4.3-4.8-10-6.6-15.8
		c-0.4-1.4-0.1-1.6,0-1.7c0.7-0.4,2.1-0.6,3.7-0.6c-1.5,2.1-0.4,4.8,0.2,6.1c0.8,1.9,1.6,3.8,2.6,6l6.5-0.4c0.8-2.3,0.9-4.6,0.4-6.7
		c-0.2-1-0.8-2.1-1.4-3.1c0.8,0.4,1.4,0.8,1.9,1.2c4,3.8,3.4,7.3-2.4,14.3l-0.4,3.9c1,1.9,1.9,3.6,2.9,5.2c1.2,2.1,2.6,4.2,4.2,6.7
		l5.5,0.4c2.6-2.9,3.8-5.6,3.6-8.2c0-0.4-0.1-0.8-0.2-1.2c1.6,1.4,1.6,2.6,1.6,3C253.3,208.9,251.4,211.9,248.1,215z"/>
	<path class="st0" d="M474.3,232.5L474.3,232.5c-2.2-2-5.5-3.2-9-3.5c-0.3-0.2-0.6-0.3-1-0.5c-0.7-0.3-1.3-0.5-1.9-0.7
		c-0.5-0.2-1-0.3-1.4-0.5c-0.5-0.6-1-1.2-1.5-1.9c-0.2-0.3-0.5-0.6-0.7-1c-0.2-0.5-0.4-1-0.6-1.6v-0.1c-0.6-1.7-1.1-3.5-1.6-5.4
		c-0.8-3.2-1.7-6.5-3.3-9.8c-1.4-2.8-3.2-5.3-5.4-7.3c1.3-0.7,2.7-1.5,4.1-2.5c8.9-6.3,13.2-12.7,13.4-19.7c0.1-4-3.8-7.1-9.5-7.5
		c-5.1-0.4-8.8,1.9-9.2,5.6c-0.3,2.7-2.3,5.3-6.1,8c0.3-2.9,0.7-5.7,1.2-8.7c1.1-6.7,1.4-14.1-3.9-21.9c-2.9-4.2-12.5-4.6-16.3-2.3
		c-2.6,1.5-3.4,4.4-2.1,7c2.6,5,1.5,10.2,0.4,16.1l-0.2,1.2c-1.3,6.8-1.4,13.8-1.4,19.6c0,3.6,0.1,7.1,0,10.6
		c-1.1-1.9-3.2-3.3-6-3.9c-1.2-0.2-2.4-0.3-3.6-0.3c2.6-4.5,3.8-9.9,1.9-14.9c-3.2-8.5-13.9-11.9-22.5-10.3
		c-7.2,1.4-13.4,6.8-17,15.1c-2,4.6-3.2,9.6-3.5,14.6c-0.2-0.1-0.4-0.2-0.7-0.3c-2.3-0.8-5.3-0.9-7.9-0.2c7.6-4.4,11.2-12.3,9-19.6
		c-2.6-8.4-11.2-12.1-18.4-11.9c-7.2,0.1-13.9,4.1-19.2,11.4c-2.1,2.8-3.6,6-4.5,9.3c-2.8-4.3-7.3-7.4-13.2-8.8
		c-0.9-0.2-1.8-0.3-2.6-0.4c-1.7-0.2-2.6-0.4-3.2-1c-1.5-1.4-2.6-3.7-3-6.1c-0.6-4,1.4-7.7,5.3-10c0,0,0,0,0,0.1
		c0.4,1.3,0.4,2.5,0,3.6c-0.8,2.5,0.1,5.8,4.7,7.7c4.6,1.9,12.2,2,14.5-2.6c4.6-9.1,1.1-15.2-1.4-18c-5.9-6.7-18.2-9.2-28-5.7
		c-8.1,2.8-14,8.7-16.2,15.9c-2.1,6.7-0.7,13.8,3.8,20c2.5,3.4,5.9,6.1,9.8,7.9c1.7,0.8,3.6,1.1,5.5,1.4c1.4,0.2,3.5,0.6,4.1,1
		c0.8,0.6,1.3,4.2,0.3,8.7c-0.7,3.3-2.3,6.3-4.3,8c-2.2,1.9-6,3.1-8.2,2c-1-0.5-1.9-1.6-2.3-2.8c-0.2-0.5-0.3-1.3,0.1-2
		c0.6-1.1,2.4-2.4,3.9-3.4c0.7-0.5,1.4-0.9,2-1.4c3.3-2.5,2.4-5.4,2.1-6.2c-1.9-4.5-10.5-5.1-11.9-4.9c-8.3,1.2-13.6,4.3-16.4,9.4
		c-3.6,6.8-0.3,14.3,4.5,18.9c4.8,4.5,12.8,7.9,22.2,7.9c4,0,8.3-0.6,12.7-2.1c7.7-2.6,13.6-8.3,16.3-15.4c1.6,4.7,4,9.4,7.9,12.7
		c4,3.4,9.4,5.2,14.8,5.2c3.4,0,6.7-0.7,9.8-2.1c4-1.9,8-5.5,10.5-9.9c0.1,0.1,0.1,0.3,0.2,0.4c2.9,6.4,8,10.9,14.6,12.9
		c2.8,0.8,5.5,1.3,8.2,1.3c4.4,0,8.7-1.2,12.4-3.4l-0.1,0.5c-0.1,1.9,0.5,3.5,1.8,4.9l0.8,0.7c2.9,2.6,8.9,4.7,13.9,3.9
		c2.7-0.4,4.8-1.7,6.2-3.6c0.3-0.2,0.5-0.5,0.7-0.8c3.8-5,6.2-10.6,7.7-16.2c0.7,3.5,1.1,5.6,1.8,7c1.6,3.3,4.2,6.1,7.5,8.2
		c4.4,4.6,11.2,7.2,17.9,7.2c2.9,0,5.7-0.5,8.2-1.5c2.6-1,4.3-3,4.7-5.3C476.9,237.3,476.9,234.9,474.3,232.5z M308.5,225.3
		c-8.3,2.8-20.6,2.6-28-4.3c-2.9-2.7-5-6.9-3.1-10.4c1.7-3.1,5.3-5,11.1-5.8h0.1c0.5,0,1.3,0.1,2.2,0.3c-2.1,1.4-4.2,3.1-5.5,5.4
		c-1.2,2.2-1.4,4.8-0.6,7.3c0.9,2.9,3,5.5,5.7,6.9c5.2,2.7,12,0.6,16-2.9c3.2-2.8,5.6-7.1,6.6-11.9c0.7-3.5,1.9-12-3-15.7
		c-2-1.5-4.6-1.9-7.2-2.3c-1.4-0.2-2.9-0.5-3.7-0.8c-2.8-1.3-5.3-3.3-7.1-5.7c-3.2-4.4-4.2-9.2-2.8-13.8c1.6-5.1,6-9.3,11.9-11.4
		c7-2.5,16.5-0.7,20.5,3.7c2.3,2.6,2.5,5.9,0.6,9.9c-1.3,0.5-4.7,0.2-6.2-0.6c0.5-2.2,0.4-4.4-0.3-6.8c-0.3-0.9-0.8-1.7-1.6-2.9
		c-0.2-0.4-0.5-0.7-0.7-1l-4.3-1.5c-0.3,0.1-0.6,0.2-0.9,0.3c-0.7,0.2-1.4,0.4-2,0.7c-6.9,3.7-10.5,10.4-9.5,17.5
		c0.6,4,2.4,7.7,5.1,10.2c2.3,2.2,5,2.6,7.2,2.8c0.7,0.1,1.4,0.2,2,0.3c4,0.9,9,3.3,10.4,9.6C323.6,212.2,317.9,222.2,308.5,225.3z
		 M356.7,225.9c-5.5,2.5-12.7,1.7-17.2-2.1c-5.1-4.2-6.9-12.7-7.5-17.4c-0.9-6.3,0.5-11.9,4-16.6c2.8-3.8,7.4-8.4,13.7-8.5
		c0.1,0,0.2,0,0.2,0c4.5,0,9.9,2.2,11.4,7c1.6,5-2.2,9.3-5.8,11.4c-2.5,1.4-5.2,2.1-8.2,2.2c3.1-1.3,5.8-4.1,7-6.6
		c1.2-2.3,1.6-4.8,1.2-7.1c-0.1-0.8-1.4-3.5-1.4-3.6l-2.3-0.6l0.5-2l-2.4-0.4v-0.2v0.2l-0.5-0.1l-2.3,1.9l0.5,0.7l0,0
		c-1.3,1.1-2.6,2.5-3.9,4.3c-2.3,3.1-3.8,6.2-4.6,9.5l2.6,4.2l0,0l-3.3,2.7c0.2,6.2,2.1,12.7,5.3,17.8c0.6,1,1.3,2,2.2,2.8l4.1,0.6
		c2-1.1,3.5-2.8,4.6-4.3s2.1-3.1,2.9-4.6c0.9-1.6,1.8-3.1,2.8-4.4c0.3-0.2,1.6-0.6,3.2-0.4c1.2,0.1,1.9,0.5,2.2,0.7
		C365.9,218.2,361.2,223.8,356.7,225.9z M356,207.2c-0.4,0.3-0.8,0.6-1.1,1c-1.5,1.7-2.5,3.6-3.6,5.4c-0.8,1.4-1.6,2.7-2.4,3.9
		c0,0.1-0.1,0.1-0.1,0.2c-1.4-2.6-2.5-5.7-3.1-8.9C349.3,209.1,352.8,208.5,356,207.2z M402.6,227.1c-4.5,3.1-9.9,3.8-15.7,2
		c-4.7-1.5-8.2-4.5-10.3-9.1c-3.2-7-2.9-17.2,0.8-25.4c1.3-2.9,5-9.7,11.9-11c0.9-0.2,1.8-0.2,2.8-0.2c4.6,0,10.2,1.8,11.8,6.1
		c1.7,4.7-1.7,10.8-6,14.1c-2.7,2-6.1,3.2-9.8,3.2c3.3-1.6,5.9-5.6,6.7-7c1.2-1.9,1.9-3.8,2.2-5.6c0.3-1.5,0.4-3.1,0.2-4.7v-0.2
		c-0.1-0.8-0.4-1.6-0.8-2.4l-5.2-1.3l-0.1,0.1c-2.1,1.6-3.6,3.9-4.7,5.7c-2.1,3.4-3.5,7.4-4.3,11.9l3.1,3.4l-3.8,3.3
		c0,3.2,0.4,6.2,1.3,9c0.6,2.1,1.6,4.7,3.4,7c0.2,0.3,0.4,0.5,0.8,0.8c0.2,0.2,0.8,0.7,0.9,0.9c-0.5-0.6-0.9-2-0.2-3.4
		c0.6-1.2,1.9-1.9,3.2-1.8l0,0c0,0,0,0,0.1,0l-0.6,7c5.1,0.5,9-5.4,10.9-8.2c2.3-3.4,4.3-7.5,6-12.1c0.9-0.5,3.6-0.4,4.7,0.2
		C411.3,216.9,407.9,223.5,402.6,227.1z M398.9,211.1c-1.1,2.3-2.2,4.5-3.4,6.3c-1.7,2.5-2.8,3.8-3.6,4.4l-0.1-0.1
		c-0.1-0.1-0.2-0.2-0.2-0.2c-1-1.3-1.7-3.1-2.1-4.6c-0.3-1-0.6-2.1-0.7-3.2C392.4,213.6,395.9,212.7,398.9,211.1z M450.7,233.1
		l-0.8-0.7c-2.4-1.4-4.2-3.4-5.3-5.6c-0.4-0.8-1-3.9-1.5-6.4c-1-5.4-2.2-11.6-4.4-15.4l-5.4-0.9l-1.3,2.5
		c-0.7,9.3-2.4,19.8-8.8,28.2c0.1-0.2,0.3-0.3,0.3-0.3l-1.1,1.2c-0.1,0.2-0.4,0.7-1.7,0.9c-2.6,0.4-6.6-0.9-8.2-2.3l-0.1-0.1
		c0.1-0.2,0.2-0.4,0.3-0.6c0.1-0.1,0.3-0.2,0.8-0.3l1.9-1.3c2.5-3.4,4.8-7.1,6.8-10.9c0.7-1.3,1.3-2.7,1.7-3.7l0.2-0.8
		c1-7,1-14.4,0.9-21.3c-0.1-5.8,0-12,1.2-18.2l0.2-1.2c1.2-6.1,2.5-12.4-0.2-18.9c1.9-0.2,4.7,0.1,5.6,0.8c3.2,4.8,3.9,9.3,2.7,16.7
		c-0.9,5.5-1.5,10.8-1.9,16.1l5.1,3.4c6-3.2,14.1-8.3,15.4-16.2c1.2-0.4,3.9,0,4.9,0.7c-0.3,4.4-3.7,8.9-10.4,13.7
		c-1.3,1-2.8,1.7-4.4,2.6c-1.3,0.7-2.7,1.5-4.1,2.3l0.3,6c3.1,1.6,5.6,4.2,7.3,7.6c1.3,2.6,2,5.4,2.8,8.5c0.5,1.9,1,3.9,1.7,5.9v0.1
		c0.2,0.7,0.5,1.5,0.9,2.4l0.4,0.7c0.4,0.5,0.7,1,1.1,1.4c0.7,0.9,1.4,1.8,2.2,2.7l0.9,0.7c1.1,0.6,2.1,1,3.1,1.3
		c0.5,0.2,0.9,0.3,1.4,0.5c0.2,0.1,0.3,0.2,0.5,0.3l2,0.7c1.9,0,3.8,0.6,5,1.4C463.3,239.7,454.9,237.7,450.7,233.1z"/>
	<path class="st0" d="M482.5,80.8c-0.6-2.5-2-4.4-3.9-5c-1.6-0.6-3.4-0.2-4.8,1c-2.5,2-6,2.5-9.7,2.6c0-0.4,0-0.9,0.1-1.3
		c0.5-1.7,1.1-3.4,1.8-5c0.6-1.2,1.5-2.5,2.4-3.8c1.4-1.9,3-4.1,3.7-6.8c0.8-2.8-0.3-5.4-2.9-7.1c-4.4-2.8-13.6-3-16.8-0.3
		c-3.8,3.2-5.2,8.2-6.4,12.2l-0.2,0.6c-1.2,4.2-1.7,8.6-1.6,13.9c-4.8,1.8-8.9,4.4-12.7,7.1c-1.3,0.4-2.6,1.3-3.6,2.6
		c0-0.1,0-0.2,0.1-0.3c0.6-0.9,0.9-1.9,0.9-2.9c0.2-2.1-0.7-4.6-4.1-5.8c-3.1-1.6-6.9-1.3-9.6-0.6C407,84.3,397,88.3,391.4,99
		c-0.6,1.1-1.1,2.3-1.7,3.5c0.1-1.8-0.2-3.6-1-5.3c-3.1-7.1-12.2-9.2-19.5-8.7c-5.9,0.4-11.6,2.7-16.4,6.6c-0.1-2-0.7-4-1.7-5.9
		c-2.4-4.2-7.3-7.6-12.8-8.9c-0.7-0.2-1.3-0.3-2-0.4c0.7-0.9,1.3-2,1.7-3.4c1-3.2,1-8-1.1-10.8c-3.7-5.2-10.4-6.3-15.7-7.3l-0.5-0.1
		c-5.2-0.9-10.6-0.9-17,0.1c-2.1,0.3-4.3,0.8-6.4,1.2c-8.1,1.6-16.5,3.3-22.8-0.8c-2.5-1.6-5.4-1.2-7.2,1.1
		c-2.7,3.4-3.2,11.7,0,14.9c6.1,6.1,13.3,7.4,19.8,7.3c-1.1,6-0.7,12.3-0.2,17.8c0.6,6.1,1.2,12.6,0.5,19.3
		c-0.2,2.5-0.8,5.1-1.5,7.8c-0.9,4-1.9,8.2-1.7,12.6c0.1,3,2.2,5.5,5.6,6.6c1.4,0.5,3,0.7,4.6,0.7c3,0,6.1-0.9,7.8-2.9
		c2.7-3.1,4.6-7,5.8-11.7c0.5,1.2,1.4,2.3,2.7,3.2c2,1.2,5.1,2,8.1,2c2.7,0,5.3-0.6,6.7-1.9c7.3-6.6,6.4-16.8,5.7-24.2
		c-0.6-6.3-0.7-11.5,0.8-16.3c0.2,0.5,0.3,1,0.2,1.6c-0.4,3.8,2.5,6.9,7.5,7.9c1.7,0.3,3.4,0.4,5.1,0.2c-2,4-2.8,8.5-2.4,12.8
		c0.7,7.1,4.6,13.4,11,17.6c5,3.3,11.2,5.1,17.2,5.1c3.1,0,6.1-0.5,8.8-1.4c4.9-1.7,8.5-4.8,10.8-8.9c5.5,6.6,16,8.1,25.1,5.7
		c0.9,1.8,2.7,3.1,5.3,3.9c1.3,0.4,2.9,0.6,4.4,0.6c2.4,0,4.8-0.6,6.3-2c4.3-4.1,4.2-8.1,3.7-12.1c-0.6-4.6-1.7-9.2-2.9-13.4
		c-0.2-0.8-0.5-1.6-0.7-2.4c3.5,0.2,6.5-2.3,8.9-4.3c0.8-0.7,1.7-1.4,2.3-1.7c0.9-0.5,1.9-1,2.8-1.4v0.1c0.2,6.1-0.3,12.5-0.8,18.6
		c-0.7,8.4-1.4,17-0.4,25.6c0.5,4.5,5.7,7.1,10.5,7.4c0.2,0,0.4,0,0.6,0c4.3,0,7.6-2.1,8.3-5.5c3.2-15.3,2.6-32.4,1.9-43.8
		c-0.2-2.3-0.4-4.7-0.6-7c5.3-1.1,10.5-3,14.9-7.9C482.3,87.7,483.2,84,482.5,80.8z M301.5,102.5c0.2,1.2,0.4,2.5,0.5,3.7
		c2,15.8,0.3,27.4-4.9,33.4c-0.3,0.3-1.7,0.7-3.6,0.5c-1.3-0.1-2-0.5-2.2-0.7c-0.1-3.4,0.7-6.9,1.5-10.6c0.7-2.8,1.3-5.8,1.6-8.8
		c0.7-7.3,0.1-14.2-0.6-20.6c-0.7-6.3-1.1-13.5,1.1-19.7l-3.7-4.6c-8.8,0.9-14.5-0.6-18.9-4.9c-0.4-0.8-0.4-2.9-0.1-4.3
		c8.4,4.5,18,2.6,26.5,0.9c2.1-0.4,4.1-0.8,6-1.1c5.6-0.9,10.3-0.9,14.7-0.1l0.5,0.1c4.3,0.8,9.1,1.6,11.2,4.5
		c0.8,1.1,0.4,5.1-0.5,5.8c-1.1,0.4-1.8,0.2-3.7-0.4c-0.6-0.2-1.2-0.4-1.8-0.6c-3.3-1-6.3-1.6-9.1-2c-3.2-0.4-6.6-0.3-10.7,0.1
		l-2.8,2.1C298.9,83.7,300.3,93.7,301.5,102.5z M313.1,91.6c-1.9,4.6-2.7,9.5-2.5,14.8c0.1,1.3,0.1,2.6,0.2,4
		c0.2,2.9,0.4,5.6,0.2,8.3c-0.1,2-0.7,3.8-1.4,5.7c0.5-5.6,0.3-12-0.6-19.2c-0.2-1.2-0.3-2.5-0.5-3.7c-1.1-7.5-2.2-15.3,0-21.8
		c2.6-0.2,4.8-0.2,7,0.1c1.7,0.2,3.4,0.5,5.2,1c-0.6,0.3-1.1,0.7-1.5,1.2c-1.4,1.6-2.6,3.2-3.6,4.9c-0.6,0.8-1.2,1.5-1.6,2.3
		C313.4,90.1,313.2,90.9,313.1,91.6z M345.6,97.5c-0.4,0.2-1.5,0.5-3.1,0.4c-1.5-0.1-2.6-0.6-3.1-0.9c0.2-2.2-0.4-4.3-1.6-6.2
		c-0.3-0.5-0.7-0.8-1.1-1.3c-0.2-0.2-0.4-0.4-0.6-0.6l0.1,0.1l-3.7-1.5c-0.9,0.2-1.7,0.5-2.5,0.9c-0.7,0.3-1.4,0.6-2.2,1l-1.7,1.9
		c-2.4,6.4-2.4,12.9-1.6,20.7c0.7,7.9,1,14.2-3.2,18.2c-1.2,0.4-4.6,0.2-6.2-0.4c0.2-0.8,0.5-1.5,0.8-2.3c0.9-2.6,1.8-5.3,2.1-8.5
		c0.2-3.2,0-6.3-0.2-9.3c-0.1-1.3-0.2-2.5-0.2-3.8c-0.2-4.5,0.6-8.6,2.2-12.4l0.3-1.9c0.1,0.4,0,0.7-0.1,0.8c0.3-0.5,0.6-1,1.1-1.5
		l0.3-0.4c0.8-1.4,1.8-2.7,2.9-4c0.6-0.2,2.3-0.4,4.1,0.1l1.3,0.1c2.3-0.3,4.7-0.1,7,0.4c3.6,0.9,6.9,3.1,8.3,5.6
		C345.8,94.4,346,95.9,345.6,97.5z M377.3,132.4c-6,2.1-14.2,0.9-19.8-2.9c-4.6-3.1-7.5-7.5-7.9-12.5c-0.5-5.1,1.6-10.4,5.7-14.5
		s9.2-6.5,14.4-6.8c0.5,0,1,0,1.5,0c4.7,0,9.8,1.4,11.2,4.6c1.7,3.9-2.4,8.9-5.8,11.1c-3.2,2.1-7.1,3.2-12,3.5
		c4.6-1.7,8-5.2,10.7-10.7l0.3-1.8c-0.1,0.2-0.2,0.4-0.3,0.5l-1.9-6.2v-0.3h-0.1v-0.1l-0.5,0.1c-2,0-3.9,1.2-5.2,2.1
		c-0.2,0.1-0.3,0.2-0.5,0.3c-3,1.9-5.6,4.5-7.6,7.7c-1,1.5-1.7,3.2-2.2,4.9l3.1,3.5c-0.1,0-0.1,0-0.2,0l-3.6,3.9
		c0.5,4,2.3,7.6,5.2,10.4c3,2.9,6,3.2,8,3c3.4-0.4,6.8-2.7,9.5-6.6c1.1-0.5,4.2-0.4,5.8,0.2C383.5,128.9,380.9,131.1,377.3,132.4z
		 M374.7,120c-0.5,0.4-0.9,0.8-1.3,1.3c-1.5,2.2-3.3,3.7-4.6,3.8c-0.3,0-1.1,0.1-2.4-1.1c-0.7-0.7-1.3-1.4-1.8-2.2
		C368.4,121.6,371.7,121,374.7,120z M386.4,118.8c-2.5-0.7-5.7-0.9-8.3-0.3c0.8-0.4,1.5-0.8,2.3-1.3c2.8-1.8,5.3-4.3,7-7.1
		C386.6,112.9,386.3,115.9,386.4,118.8z M422.3,87.3l-0.3,0.6C422.1,87.7,422.2,87.5,422.3,87.3z M422,87.5V88l0,0
		C421.9,87.9,421.9,87.7,422,87.5z M426.9,133.1c-1.1,0.5-4.1,0.2-5.1-0.5c-0.1-0.5-0.2-1-0.2-1.6l-4.8-2.9
		c-8,3.3-19.1,2.3-22.2-4.4c-2.6-5.7-0.4-14.8,3-21.3c3.4-6.6,9.3-10.6,19.6-13.6c1.5-0.4,3.3-0.4,4.3,0c-2.3,6.9,0.2,14,2.4,20.3
		c0.7,1.9,1.3,3.8,1.8,5.5c1.1,4,2.2,8.2,2.7,12.4C428.8,130.5,428.5,131.5,426.9,133.1z M474.8,85.6c-3.7,4.2-8.8,5.4-14,6.3
		l-2.9,3.8l0.1,1.4c0.3,2.8,0.6,5.7,0.8,8.6c0.7,11,1.3,27.2-1.7,41.7c-0.4,0.2-1.4,0.4-2.9,0.1c-1.6-0.3-2.5-0.9-2.8-1.2
		c-0.9-7.8-0.2-15.7,0.4-24c0.5-6.3,1.1-12.9,0.9-19.4c-0.1-1.7-0.1-3.4-0.2-5l-4.5-3.2c-3.2,1-6,2.2-8.6,3.7
		c-1.1,0.6-2.1,1.5-3.3,2.4c-1,0.8-2.8,2.3-3.8,2.7c-0.4-1-0.4-3.6,0-5.1l0.1-0.2c0.4-1.3,0.9-2.2,1.2-2.4c-0.1,0.1-0.3,0.2-0.7,0.2
		l1.9-0.6c4.3-3.1,9.1-6.1,14.6-7.6l1.5-5.9c0,0,0.1,0.2,0.1,0.5c-0.2-4.7,0.2-8.6,1.3-12.2l0.2-0.6c1-3.4,2-6.8,4.1-8.7
		c1.6-0.7,6.7-0.4,8.4,0.6c-0.5,1.3-1.5,2.6-2.5,4.1c-1.1,1.5-2.2,3.1-3.1,5c-0.9,2-1.7,4.1-2.3,6.4l-0.1,0.7
		c-0.1,1.8-0.2,3.7-0.2,5.8l3.5,3.5c4.7,0,10.3,0,15.1-2.6C475.5,84.5,475.2,85.2,474.8,85.6z"/>
</g>
<g>
	<path d="M209,35.7c0,2.3,5.2,2.9,6.4,1.2c1.6-2.3,2.6-5,3.3-7.9c0.7,1.2,1.4,2.4,1.7,3.7c0.9,3.3,1,5.7,4.4,7.3
		c1.3,0.6,7,0.9,5.2-1.9c-1.6-2.4-1.5-5.5-3-8c-1.4-2.3-3.3-4.5-5.4-6.4c1.7-1.8,3.5-3.4,5.2-5.1c2-2,3.3-4.6,2.4-7.4
		c-0.7-2.1-7.6-2.9-7.4-0.4c0.2,2.4-1.1,4.1-2.7,5.8c-0.4-3.6-0.7-7.2,1.5-10.4c1.4-2.1-4.6-3.1-5.9-1.6c-3.7,4.1-3.2,8.7-3.1,13.9
		C211.7,24.4,209,29.9,209,35.7z"/>
	<path d="M164.2,19.3c0.2,2.3,0.5,4.6,0.3,6.9c-0.3,2.7-1.2,5.2-1.2,7.9c0,2.5,5.8,3.3,6.9,1.3c5.1-8.8-0.3-18.8,3-28.1
		c0.7-2-5.1-2.7-6-1.2C164.6,10.4,163.7,14.4,164.2,19.3z"/>
	<path d="M144.1,40.6c3.9,0.1,8.3-1.6,11.6-3.1c3.8-1.8,7-5,7.5-9.4c0.5-3.9-1.3-6.4-4-7.6c1.4-1,2.6-2.4,3.4-3.9
		c1.8-3.4,2.3-7.8-0.8-10.6c-3-2.6-7.7-3-11.3-1.8c-1.4,0.5-3,1.4-4.2,2.7c-0.6,0.1-1,0.4-1.2,0.8c-2.2,4.6-1.8,9.1-2,14.1
		c-0.2,5.7-1.4,10.8-3.8,15.9C138.3,39.8,141.6,40.9,144.1,40.6z M154.7,8.9c0.4,1.8,0.2,3.7-0.6,5.4c-0.5,1.2-1.3,2.5-2.4,3.3
		c-0.3,0.2-0.5,0.3-0.8,0.4c-0.1-2.1-0.2-4.1-0.3-6.1C152,11,153.2,9.7,154.7,8.9z M152.2,32.7c-0.7,0.6-1.6,1.1-2.4,1.5
		c1.1-3.1,1.4-6.6,1.4-10c0.8-0.3,1.7-0.5,2.5-0.6c1.5-0.3,1.4-0.4,1.8,1C156.2,27.4,154.2,30.9,152.2,32.7z"/>
	<path d="M208.9,28.5c-0.1-2-4.3-2.4-5.3-1c-1,1.3-2.2,3-2.7,4.6c-0.1-1-0.5-2.2-0.5-3.2c0.1-2.2,0.7-4.3,1.5-6.3
		c0.5-1.1,1-2.2,1.7-3.2c0.2-0.2,0.4-0.3,0.7-0.5c0,0.2,0,0.4,0.2,0.6c0.3,1.6,4.6,2,5.4,0.7c2.4-4.4-4.7-5.7-7.7-5.5
		c-6.2,0.6-8.5,7.1-9.1,12.6c-0.5,5.3,2,9.5,7.5,10C206.2,37.9,209.2,33.7,208.9,28.5z"/>
	<path d="M173.2,32.2c1.8,4,7.8,4,11.6,3.3c0.2,2.5,7,3.3,7.6,0.6c1.4-5.9-2-13.2,2.2-18.4c1-1.2-1.1-2.2-3.1-2.5
		c-3.6-1.8-8.3-1-11.2,1.8c-2.2,2.1-4.1,5-5.8,7.6C173.1,27,172,29.6,173.2,32.2z M180.9,31.2c-0.1-0.7-0.1-1.4,0.1-2
		c0.3-0.8,0.7-1.6,1.2-2.4c0.6-1,1.3-1.9,1.9-2.8c0.3-0.5,0.6-0.9,0.9-1.4c-0.2,1.3-0.3,2.7-0.3,4.1c-0.6,1.5-0.9,3.1-2.2,4.1
		c-0.4,0.3-0.8,0.4-1.3,0.5c-0.4,0.1-0.8,0.1-1.2,0.2C179.6,31.5,179.8,31.4,180.9,31.2z"/>
	<path d="M240.9,37.3c0.4,1.8,4.3,1.9,5.5,1.1c3.4-2.2,5-7.8,5.3-11.8c0,0.1,0.1,0.2,0.1,0.3c1,3,0.9,6.1,1.8,9.1
		c0.6,2,5.2,2.3,6.3,0.8c0.9-1.2,1.4-2.6,1.5-4c0.8-2,1.9-3.8,3-5.6c0,0.1,0,0.3,0,0.4c0,3-1.1,5.5-1.6,8.4
		c-0.4,2.4,5.2,2.8,6.4,1.7c4.3-3.6,3.8-9.1,2.9-14.2c-0.6-3.5-1.1-6.7-1.2-10.3c0-1.4,0-2.7-0.2-3.8c0.1-0.6,0.2-1.3,0.3-1.9
		c0.5-2.6-6.6-3.5-7.4-0.9c-1.6,5.2-2.9,10.2-5.5,15c0-0.1-0.1-0.1-0.1-0.2c-1.3-2.5-3-4.8-4.2-7.3c-1.3-2.6-0.7-5.1-1.7-7.6
		c-1.2-2.9-10.1-3-8.9,0.2c0.1,0.2,0.1,0.3,0.2,0.5c-1.3,6.1,0,11.6-0.2,17.9C243.2,29,240,33.3,240.9,37.3z"/>
	<path d="M275.2,33.1c3.2,2.7,8.3,3.1,12.1,1.5c1.4,1.2,5.2,1.1,6.1,0c1.9-2.4,0.5-5.5-0.1-8.3c-0.9-3.9-1.8-7.6-0.8-11.7
		c0.3-1.3-1.8-1.9-3.5-1.8c-0.8-0.1-1.5-0.1-2.1,0c-4.7,0.9-8.8,3.4-11.2,7.6C273.5,24,271.4,29.9,275.2,33.1z M281.5,26.1
		c0.6-2.4,1.8-4.6,3.5-6.4c0,0.8,0,1.5,0.1,2.4c0.1,0.8,0.2,1.5,0.4,2.3c-0.4,1.8-0.6,3.9-1.7,5.3C281,33.4,280.9,28.2,281.5,26.1z"
		/>
	<path d="M301.6,34.2c0.9,0.2,2.7,0.3,4.4,0.1c0.3,3.2,0.1,6.6-2.4,8.9c-2.1,1.9-5.1,2.2-7.9,2.3c-0.1-0.1-0.2-0.3-0.3-0.5
		c-0.4-1-1-2.2-1.1-3.3c-0.2-2-4.5-2.4-5.3-0.6c-0.7,1.7-1.6,2.9-1,4.8c0.9,2.6,4.3,3.6,6.7,3.5c0.1,0,0.2,0,0.3,0
		c6.4,0.3,15-0.3,17.9-7.1c1.5-3.5,0.7-7.1,0.1-10.7c-0.9-5.7-0.7-9.3,2.3-14.4c1-1.7-2.6-2.5-4.5-2c-2.7-1.1-6.4-1.4-8.1-1.1
		c-4.9,0.7-8.3,4.8-8.9,9.6C293.4,28.7,296.6,33,301.6,34.2z M302.3,24.6c0.1-1.4,0.6-2.8,1.3-4c0.7-1.2,2.9-3.6,4.3-2
		c-1.9,3.1-2.5,6.1-2.4,9.8c-0.5,0.3-1,0.6-1.5,0.9c-0.3,0.1-0.4,0.2-0.5,0.3c0-0.1-0.1-0.1-0.2-0.3
		C302.2,28.1,302.1,26.1,302.3,24.6z"/>
	<path d="M320,35.4c5.2,2.4,14.4,1.6,14.7-5.6c0.1-2.1-5.3-2.9-6.1-1.2c-1.2,2.6-3.7,5.8-6,2.1c-0.5-0.8-0.8-1.7-1-2.6
		c5.7-0.8,16.3-4.1,10.9-11.4c-4.3-5.8-12.6-3.4-16.2,1.7C312.3,24.2,313.3,32.3,320,35.4z M324.5,19.1c1.8-1.9,1.7-1.1,1.6,0.8
		c-0.1,2-2.1,3.1-4.3,3.9c0.2-0.6,0.4-1.2,0.7-1.8C323,20.9,323.7,19.9,324.5,19.1z"/>
	<path d="M58.9,86.9c-5.2,5.1-5.2,11.2-4.5,18.1c0.4,3.4,0.5,6.8,0,10.2c-0.5,3.7-2.1,7.1-2.2,10.9c-0.1,4.8,9.4,4.7,11.8,2.3
		c4.7-4.8,5.2-12.7,4.5-19.1c-0.4-3.5-1.4-7-1.7-10.4c1.7-1.9,3.6-3.6,4.7-4.4c0.2-0.1,1-0.5,1.7-0.9c0.4,1,0.9,2.2,0.9,2.6
		c0.1,1.6-0.2,2.9,0.1,4.5c0.8,4.1,10.3,4.7,12.9,2.5c6.7-5.5-0.2-13-6-15.6c-4.1-1.8-8.9-2.1-13.2-0.9
		C65.2,85.6,60.5,85.4,58.9,86.9z"/>
	<path d="M89.4,127.9c-3.1,4.5,10.2,7.1,13.2,3.6c4.5-5.4,4.4-11.7,3.4-18.4c-1.3-8.7-2.5-16,2.2-23.9c2.5-4.2-9.1-6.4-11.4-3.1
		c-4.4,6.3-6.1,13.2-5.3,20.9C92.1,114,93.8,121.6,89.4,127.9z"/>
	<path d="M147.1,138.1c0.2,4.4,8.9,4.7,11.2,2.2c4-4.5,4.4-13.2,4.7-18.9c0.1-1.7,0.1-3.4,0.1-5.1c0.6-0.1,1.2-0.3,1.7-0.5
		c0.8,2,1.3,4.2,1.8,5.8c1.2,3.9,1.4,8.2,2.7,12.1c2.5,7.2,11.5,9.6,18.3,9.7c2.7,0,5.8-1.9,2.9-4.2c-2.7-2.2-6.4-2.8-7.7-6.3
		c-1.4-3.7-1.9-7.7-3.4-11.4c-2-5-4.3-9.3-8.2-12.2c2.3-2.9,4.5-5.9,7.1-8.5c4.2-4.3,7.5-9.3,5-15.4c-1.5-3.5-12.5-4.8-11.8,0.2
		c0.8,5.9-5.4,10.4-9.2,14.2c-0.7-13-0.3-24.8,4.4-37.2c1.6-4.3-10.7-5.3-12.8-2.5c-8.2,11-7.7,25.4-6.2,38.4
		c0.8,6.6,1.7,13.2,1.9,19.9c0.1,3.1,0,6.2-0.4,9.3C148.7,131,147,134.7,147.1,138.1z"/>
	<path d="M134.1,113.1c-1.4,3.3-2.3,9.6-5.5,11.6c-1.6,1-0.2,0.6-1.2-0.2c-1.1-0.8-1.9-2.2-2.5-3.5c-1.2-2.4-1.6-5.1-1.6-7.8
		c0-4.9,0.8-10.6,2.9-15.1c0.8-1.7,2.3-4.6,4.3-5.3c0.9-0.3,1-0.4,1.1-0.3c1.2,0.6,1.9,3.2,2.1,4.3c0.4,3.7,10.5,5.2,10.7,1.3
		c0.5-10.5-11.2-14.5-19.9-12.3c-11,2.8-14.9,15.5-14.8,25.7c0,11.4,7.5,19.9,18.9,20.8c11.1,0.9,18.7-7.1,16.4-18
		C144.2,111.3,135.4,110.1,134.1,113.1z"/>
	<path d="M100,73.1c1.4,1.7,4,2.5,6.1,2.7c2,0.2,4.1,0.1,5.9-0.7c1-0.4,1.7-0.9,2.4-1.7c0.4-0.5,0.6-1.1,0.8-1.7
		c0.1-0.3,0.2-0.7,0.2-1c0-0.7-0.3-1.4-0.4-2.1c-0.2-1.1-2.1-2.2-3-2.6c-1.7-0.7-3.6-1-5.4-1c-3.1,0-7.5,1.4-8,5
		c-0.1,0.9,0.3,1.7,1,2.3C99.6,72.6,99.8,72.9,100,73.1z"/>
	<path d="M31.4,72.3c-1.9,6-1.4,13-0.4,19.4c1.2,7,3,14,2.6,21.1c-0.4,6.9-3.6,12.3-6.2,18.6c-1.8,4.4,7.7,5.3,10.1,3.5
		c10.6-8.1,11-22.2,8.7-34.3c-2-10.7-4.4-20.9-0.8-31.1c1.8-0.2,3.6-0.4,5.5-0.4c3.1,0,6,0.5,9,1.2c2.2,0.6,5,2.1,7.3,2.1
		c1.6,0.8,3.4-2,3.9-3c1.2-2.5,1.4-5.8,0.5-8.3c-1.7-4.7-9-5.7-13.4-6.4c-5.7-0.9-11.4-0.1-17,1.1C30.6,58,18.6,62,8.2,56.7
		C3.6,54.3,1.8,66,5,68.4C12.8,74.5,22.2,74.1,31.4,72.3z"/>
	<path d="M235.1,130.9c3.2-8.4,0.8-20.8-8.8-23.6c-6-1.7-17.3-0.2-16.8,8.2c0,0.3,0.1,0.5,0.2,0.7c-2.6,6.4-3.6,14.4,1.3,19.4
		C218.2,143.1,231.5,140.6,235.1,130.9z M218.8,132.4c-1.1-2-1.4-4.3-1.4-6.5c0-2.9,0.3-6,1-8.9c1.2-1.5,2.1-3.8,3.8-4.6
		c0.2-0.1,0.3-0.2,0.3-0.3c1.9,1.1,2.5,6.3,2.6,7.8c0.3,3.1,0,6.4-1.2,9.3C223,131.6,220.8,135.9,218.8,132.4z"/>
	<path d="M249.7,105.7c-1.5-1.6-7-2.3-8.6-0.6c-4,4.2-3.6,9-3.2,14.4c0.4,6.4-1,12.1-1.5,18.4c-0.3,4,9.8,5.4,11.3,2.2
		c2.5-5.1,2.8-10.8,2.2-16.4c-0.2-1.8-0.8-3.9-1.2-6c0.2-0.2,0.5-0.4,0.6-0.6c0.7-1.1,1.5-2.2,2.4-3.2c0.8-0.9,1.9-1.3,2.7-1.9
		c0.1,1,0.8,2,1.5,2.6c2.1,2.2,9.8,3.9,11-0.2C269,106.7,258,103.4,249.7,105.7z"/>
	<path d="M329.2,83.4c-2.7-0.7-6.3-0.5-7.5,0.9c-1.3,1.5-2.4,3.1-3.4,4.7c-0.5,0.6-1,1.3-1.4,2c-0.3,0.5-0.4,1-0.3,1.4
		c-1.9,4.3-2.7,8.9-2.5,13.9c0.2,4.2,0.7,8.4,0.4,12.6c-0.3,4-1.9,7.2-3,11c-1.2,4.3,9.9,5.1,12,3.2c6-5.4,5.2-13.9,4.5-21.3
		c-0.6-6.8-0.8-13.1,1.4-19.2c0.7-0.3,1.4-0.7,2.1-1c0.6-0.3,1.3-0.5,1.9-0.7c0.3,0.4,1.4,1.4,1.6,1.7c0.9,1.4,1.2,2.8,1,4.4
		c-0.5,4.7,11.6,6,13,1.6c2.3-7.6-4.7-13.3-11.4-14.9C334.8,83.2,332,83,329.2,83.4z"/>
	<path d="M291.8,78.5c-2.3,6.5-2.1,13.9-1.3,21.2c0.7,6.7,1.2,13.3,0.6,19.9c-0.6,6.7-3.5,13.3-3.2,19.9c0.2,4.6,9.5,5.1,11.9,2.3
		c7.8-9,7.2-25.1,5.8-36.2c-1.2-9.4-3.6-20.4,0.4-29.3c3.3-0.4,6.5-0.5,9.9-0.1c2.9,0.3,5.8,1,8.5,1.8c2.9,0.8,4.7,2,7.6,1
		c3.5-1.2,4-8.5,2.1-11.1c-3-4.2-9-5.1-13.9-6c-5.3-0.9-10.5-0.7-15.8,0.1c-10.1,1.6-22.2,6-31.6-0.2c-4-2.6-5.2,8.2-2.9,10.6
		C276,78.6,283.8,79.3,291.8,78.5z"/>
	<path d="M388.6,125.6c1.4-4.2-10.3-5.3-12.3-2.4c-3.1,4.6-7.9,7.6-12.3,3.3c-2.4-2.3-3.8-5.2-4.1-8.3c6.5,0.3,13-0.4,18.6-4
		c4.7-3.1,9.7-9.5,7.1-15.5c-2.5-5.7-10.7-7-16.1-6.6c-6.3,0.4-12.2,3.4-16.6,7.8c-9.8,9.8-9,24.5,2.8,32.4
		C365.8,139.3,384.2,139.2,388.6,125.6z M368.8,101.6c1-0.6,2.9-2,4-1.9c0.3,0,0.6-0.1,0.8-0.1c-1.3,0.6-1.8,1.6-1.6,2.9
		c-2.6,5.5-6.1,8.8-11.6,9.7c0.4-1.4,1-2.8,1.8-4C363.9,105.6,366.2,103.3,368.8,101.6z"/>
	<path d="M418.1,131.3c0.1,0.8,0.2,1.6,0.4,2.4c0.8,3.2,8.6,4.1,10.7,2.1c2.9-2.8,3.1-5.2,2.7-9.1c-0.5-4.3-1.6-8.7-2.8-12.9
		c-2-7.4-6.9-16.2-4.2-24c0.4-0.4,0.6-0.9,0.5-1.4c0.3-1.2-0.7-2-2-2.4c-2.1-1.2-5.1-1.1-7.2-0.4c-9.1,2.6-17.1,6.6-21.7,15.3
		c-3.5,6.7-6.5,17.1-3.1,24.4C395.5,134,408.8,135.1,418.1,131.3z M404.4,113.8c0.6-4.8,2.1-9.4,4.9-13.4c1.2-1.8,2.6-3.2,4.2-4.4
		c-0.2,3.7,0.6,7.6,1.5,11.5c0.4,1.5,0.7,3.1,1,4.6c-0.5,0.4-0.9,0.8-1.1,1.5c-1.3,3.9-3.8,11-8.5,11.8c-1.7,0.3-0.4,0.5-1-0.5
		c-0.7-1-1-2.2-1.2-3.4C403.8,119.1,404.1,116.3,404.4,113.8z"/>
	<path d="M68.3,154.8c-6,8.2-7.1,17.2-6.7,26.5c-5.7,2.1-10.7,1.3-16.6,1.8c-1.5,0.1-2.9,0.3-4.3,0.5c0.5-1.7,1.1-3.4,1.7-5.1
		c2.8-7.2,4.8-14.1,1.4-21.4c-1.5-3.2-12.3-4.6-11.2,0.2c1.5,6.8-1.5,13.6-4.1,19.7c-2.6,6-4.1,11.8-4.6,18.3
		c-0.6,6.8-1.4,13.2-3.7,19.7c-1.1,3-2.3,6-3.6,8.9c-0.8,1.7-1.9,5.6-3.3,7.4c-0.8,0.4-1.4,1-1.6,1.9c0,0.1-0.1,0.3-0.1,0.4
		c-1,3.1,6.2,4.2,7.7,4.2c7.5-0.1,9.6-7.6,12.2-13.5c3.2-7.2,5.5-14.7,6.2-22.6c0.3-3.1,0.6-6,1-8.8c6.3-2.6,12.6-1.5,19.3-1.3
		c1.3,0,2.9,0.1,4.5-0.1c0.2,1.9,0.3,3.8,0.5,5.7c0.5,7,0.7,14.2-1.9,20.9c-1.1,2.8-2.7,5.5-4.6,7.8c-1.6,1.9-4.2,3.4-4.7,6
		c-0.5,2.5,4.6,3.3,6,3.3c15-0.3,20.1-17.5,19.7-29.9c-0.5-15.6-8.5-33.6,0.2-48.2C79.5,153.9,70.2,152.2,68.3,154.8z"/>
	<path d="M89.9,181.1c-6,5.8-7,12.5-6.5,20.5c0.3,4.4,0.9,8.9,0.2,13.3c-0.6,3.9-3,7.4-2.2,11.3c0.7,3.3,7.1,2.9,9.2,1.8
		c7.3-3.9,6.8-14.4,5.9-21.5c-0.9-7.3-2.6-16.7,2.4-23C101.4,180.5,92.1,179.1,89.9,181.1z"/>
	<path d="M102.5,168.5c-0.2-0.3-0.3-0.6-0.4-1c-0.4-0.8-0.9-1.5-1.7-2c-0.6-0.4-1.2-0.7-1.9-1c-0.5-0.2-1.1-0.4-1.6-0.6
		c-0.6-0.1-1.2-0.2-1.9-0.4c-1.5-0.2-2.9-0.1-4.4,0.3c-0.9,0.2-1.7,0.6-2.4,1.2c-0.3,0.2-0.5,0.5-0.6,0.9c-0.3,0.5-0.3,0.9-0.1,1.5
		v0.1c-0.2,0.4-0.3,0.8-0.3,1.2c0.1,1.6,1,2.7,2.2,3.6c1.5,1.1,3.5,1.5,5.3,1.6c1.6,0.1,3.5,0,4.9-1c1-0.7,1.9-1.5,2.5-2.5
		C102.7,169.8,102.8,169.2,102.5,168.5z"/>
	<path d="M139.6,152.7c1.8-3.6-7.7-5.4-9.4-2.5c-5.7,9.8-4,19.7-2.2,30c-6.4-0.9-13.2,0.9-18,5.2c-7.5,6.7-9.1,17.3-8.6,26.8
		c0.2,3.9,0.6,7.7,3.4,10.7c3,3.2,8,4.8,12.2,5.3c2.8,0.4,5.8,0.4,8.7-0.1c3.3,1.3,8.8,0.9,10.2-0.9c3.5-4.4,4.9-11,5.9-16.4
		c1.2-5.9,1.6-12.1,1.1-18.2C141.9,179.8,133.5,165.2,139.6,152.7z M118.5,221c-4.2-0.9-3.1-10.5-3-13.6c0.3-7.8,3.9-21.1,13.6-20.9
		c0.1,0.5,0.1,1,0.2,1.4c0.8,6.3,0.3,12.6-0.8,18.8c-0.7,3.9-2,7.6-3.1,11.3C123.3,219.7,120.7,221.4,118.5,221z"/>
	<path d="M180.9,204.2c-1.2,3.5-2.4,7.3-4.6,10.3c-1.7,2.2-5.8,6.1-9.1,5.2c-3.2-1-4.6-6.8-5.1-9.6c-0.4-2.2-0.6-4.5-0.5-6.8
		c7.1,0.5,14.7,0,20.6-4.4c4.5-3.4,9-10.5,4.8-15.8c-4.5-5.8-14.5-6.5-21.1-5.1c-6.5,1.4-12.4,5.7-15.5,11.7
		c-6.5,12.8-3.3,32.4,12.1,36.6c13.9,3.8,33.1-4.8,30.3-21.4C192.2,200.9,182.1,200.5,180.9,204.2z M167.8,188.3
		c1.3-1.2,5.4-4.4,6.7-2.7c1.9,2.6-2.5,8-4.3,9.3c-2.2,1.6-4.8,2.1-7.5,2.2C163.6,193.8,165.3,190.6,167.8,188.3z"/>
	<path d="M325.3,175.8c8.1-16.3-12.4-23.3-25.1-18.8c-13.3,4.7-19.6,18.6-10.7,30.6c2.2,2.9,5.1,5.3,8.5,6.8c2.8,1.3,7.9,1,10.2,2.8
		c3,2.3,2.3,9,1.7,12.2c-0.8,3.7-2.6,7.5-5.5,10c-3,2.6-8.3,4.4-12.1,2.4c-3.2-1.7-5.5-6.1-3.6-9.5c1.3-2.5,4.7-4.3,6.9-5.9
		c4.3-3.3-5.3-5.2-7.2-4.9c-5.3,0.8-11.1,2.6-13.8,7.6c-2.7,5.1-0.1,11,3.8,14.6c8,7.5,21.4,8.4,31.5,5
		c11.1-3.7,17.8-15.3,15.3-26.7c-1.5-6.7-6.6-10.8-13.1-12.3c-2.7-0.6-5.4-0.3-7.5-2.3c-2.2-2.1-3.6-5.2-4-8.2
		c-0.9-6,2.4-11.1,7.7-13.9c0.6-0.3,1.7-0.5,2.5-0.9c0.6,1,1.7,2.5,1.9,3.2c0.6,2,0.7,3.8,0.1,5.8
		C311.2,177.5,323.5,179.3,325.3,175.8z"/>
	<path d="M357.6,210.5c-2.3,2.8-3.7,6.2-5.9,9.2c-0.9,1.3-2.1,2.6-3.5,3.3c-0.6-0.6-1.2-1.3-1.6-2.1c-2.8-4.5-4.6-10.4-4.8-16
		c5.2,1.1,10.6,0.7,15.4-2.1c5.5-3.2,9.4-9.1,7.4-15.5s-8.7-9.5-15-9.4c-7,0.1-12.5,4.5-16.4,9.9c-4.1,5.7-5.5,12.3-4.6,19.2
		c0.9,6.7,3.3,15.1,8.8,19.6c5.6,4.7,14.3,5.6,20.9,2.6c5.8-2.7,11.4-9.7,11-16.3C368.8,208.4,359.9,207.7,357.6,210.5z M350.2,185
		C350.2,185.1,350.2,185.1,350.2,185C350.1,185,350.2,185,350.2,185z M349.7,186.9c0.3-0.3,0.7-0.5,1-0.8c0.5,1.1,1.1,2.6,1.1,2.7
		c0.3,1.7,0,3.4-0.8,4.9c-1.4,2.8-5.1,6.1-8.4,5.2c-0.1,0-0.3-0.1-0.4-0.1c0.7-3,2.1-5.7,4-8.2C347.4,189.3,348.5,188,349.7,186.9z"
		/>
	<path d="M404.1,207.7c-1.4,4-3.3,8.1-5.7,11.6c-1.4,2.1-4.6,6.9-7.7,6.6c0.7,0.1-1.5-1.9-1.8-2.2c-1.4-1.7-2.2-3.8-2.8-5.8
		c-0.8-2.6-1.1-5.2-1.1-7.9c5.3,0.6,10.7-0.5,15.1-3.8c5.1-3.9,9.6-11.5,7.1-18.1c-2.6-7-11.9-9.4-18.5-8.1
		c-6.9,1.3-11.8,6.8-14.5,13c-5.9,13.4-4.8,34.3,11.7,39.3c16.4,5,28.5-7.6,29.6-23.3C415.8,204.8,405.4,204,404.1,207.7z
		 M389.5,193.2c1-1.7,2.3-3.5,3.9-4.7c0,0,0,0,0.1,0c0.2,0.5,0.4,1,0.5,1.5c0.2,1.2,0.1,2.3-0.1,3.5c-0.3,1.6-1,3.1-1.8,4.5
		c-0.9,1.6-3.9,5.7-6.3,5.9C386.3,200.1,387.5,196.5,389.5,193.2z"/>
	<path d="M252.9,200.3c-2.1-1.6-9.7-0.8-6.1,2.3c2.7,2.3,1.3,5.4-1.3,8.3c-1.4-2.1-2.8-4.3-4.1-6.5c-1-1.7-1.9-3.4-2.8-5.1
		c5-6,9-12.5,2.1-19.1c-4.4-4.2-22.9-7.8-19.6,2.7c1.7,5.6,4.2,11,6.8,16.3c-3.5,3.5-7.3,6.8-8.8,11.7c-4,12.9,11.9,17.1,21.2,13.3
		c0.7-0.3,1.6-0.7,2.4-1.2c0,0,0.1,0,0.1,0.1c1.7,0.8,9.9,1.6,8.5-2.2c0,0,0,0,0-0.1s0-0.1,0-0.2c0.1-0.9-0.3-2-1-2.9
		C256.1,212.4,259.9,205.6,252.9,200.3z M234.4,185.5c0.4,1.6,0.2,3.3-0.3,4.8c-0.9-1.9-1.8-3.9-2.6-5.9
		C229.2,178.9,233.7,182.6,234.4,185.5z M229.8,217.4c-0.7-2.7-0.1-5.8,1.1-8.2c0.3-0.6,0.7-1.2,1.2-1.9c0.8,1.4,1.5,2.8,2.3,4.2
		c0.4,0.8,2.5,3.6,3.7,5.6c-0.4,0.3-0.8,0.5-1.1,0.7C234.1,219.4,230.9,221.6,229.8,217.4z"/>
	<path d="M472,235.2c-1.9-1.7-5-2.6-7.7-2.6c-0.4-0.3-0.8-0.5-1.2-0.7c-1.4-0.6-2.8-0.9-4.1-1.6c-0.7-0.8-1.4-1.7-2.1-2.6
		c-0.4-0.5-0.7-0.9-1-1.4c-0.3-0.8-0.6-1.5-0.8-2.3c-1.7-4.9-2.4-10.1-4.7-14.7c-2.1-4.2-5.1-7.3-8.8-9.2c2.7-1.7,5.8-3,8.5-5
		c5.6-3.9,11.8-9.6,11.9-16.9c0.1-4.3-11.2-5.7-11.8-1.4c-0.8,6.5-7.8,11-13.7,14.2c0.4-5.3,1-10.5,1.9-15.8
		c1.2-7.3,0.8-13.2-3.4-19.4c-2-3-14.6-3.2-12.4,1.1c3.3,6.5,1.8,12.9,0.4,19.7c-1.2,6.3-1.4,12.6-1.3,18.9
		c0.1,7.2,0.1,14.1-0.9,20.7c-0.5,1.2-1,2.3-1.6,3.4c-1.9,3.6-4.1,7.2-6.6,10.5c-1.3,0.3-2.3,0.9-2.8,1.7c-0.5,0.8-0.8,1.6-1.1,2.5
		c0,0.9,0.2,1.6,0.8,2.3c0.2,0.2,0.4,0.3,0.6,0.5c3.3,2.9,12.4,5.3,15.2,0.5c0.2-0.2,0.4-0.3,0.6-0.5c6.6-8.6,8.6-19.3,9.5-30
		c0.1-0.1,0.1-0.1,0.2-0.2c3.2,5.6,4.3,18.5,5.8,21.6c1.4,2.9,3.8,5.3,6.6,7c5.2,5.9,15.3,8.1,22.5,5.2
		C473.3,239.5,474.3,237.2,472,235.2z"/>
	<path d="M479.1,81.6c-0.4-1.5-1.4-3.5-3.1-2.1c-4.2,3.4-9.9,3.5-15.4,3.5c0-1.8,0-3.6,0.2-5.5c0.5-2,1.2-3.9,2.1-5.8
		c1.6-3.6,4.9-6.4,5.9-10.1c1.5-5.2-11.6-5.9-14.1-3.8c-3.2,2.7-4.3,7.2-5.5,11.2c-1.3,4.3-1.6,8.8-1.4,13.3c0,0.7,0.4,1.4,0.9,1.9
		c-5.8,1.6-10.7,4.6-15.7,8.2c-2,0-3.2,3-3.7,4.6c0,0.1,0,0.2-0.1,0.2c-0.7,2.3-1.2,9,2.5,9.6c3.2,0.5,7-4.1,9.6-5.6
		c2.5-1.4,5.2-2.5,7.9-3.4c0.1,1.6,0.1,3.3,0.2,5c0.5,14.6-2.9,29.4-1.2,43.9c0.5,4.4,11.5,6.2,12.5,1.5c2.9-13.7,2.7-29,1.8-42.9
		c-0.2-3.4-0.6-6.7-0.9-10.1c6-1,11.7-2.4,16.1-7.4C478.9,86.3,479.6,83.8,479.1,81.6z"/>
</g>
</svg>
