<?xml version="1.0" encoding="utf-8"?>
<!-- Generator: Adobe Illustrator 26.2.1, SVG Export Plug-In . SVG Version: 6.00 Build 0)  -->
<svg version="1.1" id="Layer_1" xmlns="http://www.w3.org/2000/svg" xmlns:xlink="http://www.w3.org/1999/xlink" x="0px" y="0px"
	 viewBox="0 0 792 612" style="enable-background:new 0 0 792 612;" xml:space="preserve">
<g>
	<path d="M364.3,218c0,2.3,5.2,2.9,6.4,1.2c1.6-2.3,2.6-5,3.3-7.9c0.7,1.2,1.4,2.4,1.7,3.7c0.9,3.3,1,5.7,4.4,7.3
		c1.3,0.6,7,0.9,5.2-1.9c-1.6-2.4-1.5-5.5-3-8c-1.4-2.3-3.3-4.5-5.4-6.4c1.7-1.8,3.5-3.4,5.2-5.1c2-2,3.3-4.6,2.4-7.4
		c-0.7-2.1-7.6-2.9-7.4-0.4c0.2,2.4-1.1,4.1-2.7,5.8c-0.4-3.6-0.7-7.2,1.5-10.4c1.4-2.1-4.6-3.1-5.9-1.6c-3.7,4.1-3.2,8.7-3.1,13.9
		C367,206.7,364.3,212.2,364.3,218z"/>
	<path d="M319.5,201.6c0.2,2.3,0.5,4.6,0.3,6.9c-0.3,2.7-1.2,5.2-1.2,7.9c0,2.5,5.8,3.3,6.9,1.3c5.1-8.8-0.3-18.8,3-28.1
		c0.7-2-5.1-2.7-6-1.2C319.9,192.7,319,196.7,319.5,201.6z"/>
	<path d="M299.5,222.9c3.9,0.1,8.3-1.6,11.6-3.1c3.8-1.8,7-5,7.5-9.4c0.5-3.9-1.3-6.4-4-7.6c1.4-1,2.6-2.4,3.4-3.9
		c1.8-3.4,2.3-7.8-0.8-10.6c-3-2.6-7.7-3-11.3-1.8c-1.4,0.5-3,1.4-4.2,2.7c-0.6,0.1-1,0.4-1.2,0.8c-2.2,4.6-1.8,9.1-2,14.1
		c-0.2,5.7-1.4,10.8-3.8,15.9C293.6,222.1,296.9,223.1,299.5,222.9z M310,191.2c0.4,1.8,0.2,3.7-0.6,5.4c-0.5,1.2-1.3,2.5-2.4,3.3
		c-0.3,0.2-0.5,0.3-0.8,0.4c-0.1-2.1-0.2-4.1-0.3-6.1C307.3,193.2,308.5,192,310,191.2z M307.5,215c-0.7,0.6-1.6,1.1-2.4,1.5
		c1.1-3.1,1.4-6.6,1.4-10c0.8-0.3,1.7-0.5,2.5-0.6c1.5-0.3,1.4-0.4,1.8,1C311.5,209.7,309.5,213.2,307.5,215z"/>
	<path d="M364.2,210.8c-0.1-2-4.3-2.4-5.3-1c-1,1.3-2.2,3-2.7,4.6c-0.1-1-0.5-2.2-0.5-3.2c0.1-2.2,0.7-4.3,1.5-6.3
		c0.5-1.1,1-2.2,1.7-3.2c0.2-0.2,0.4-0.3,0.7-0.5c0,0.2,0,0.4,0.2,0.6c0.3,1.6,4.6,2,5.4,0.7c2.4-4.4-4.7-5.7-7.7-5.5
		c-6.2,0.6-8.5,7.1-9.1,12.6c-0.5,5.3,2,9.5,7.5,10C361.5,220.2,364.5,216,364.2,210.8z"/>
	<path d="M328.5,214.5c1.8,4,7.8,4,11.6,3.3c0.2,2.5,7,3.3,7.6,0.6c1.4-5.9-2-13.2,2.2-18.4c1-1.2-1.1-2.2-3.1-2.5
		c-3.6-1.8-8.3-1-11.2,1.8c-2.2,2.1-4.1,5-5.8,7.6C328.4,209.2,327.3,211.9,328.5,214.5z M336.2,213.5c-0.1-0.7-0.1-1.4,0.1-2
		c0.3-0.8,0.7-1.6,1.2-2.4c0.6-1,1.3-1.9,1.9-2.8c0.3-0.5,0.6-0.9,0.9-1.4c-0.2,1.3-0.3,2.7-0.3,4.1c-0.6,1.5-0.9,3.1-2.2,4.1
		c-0.4,0.3-0.8,0.4-1.3,0.5c-0.4,0.1-0.8,0.1-1.2,0.2C334.9,213.8,335.1,213.7,336.2,213.5z"/>
	<path d="M396.2,219.6c0.4,1.8,4.3,1.9,5.5,1.1c3.4-2.2,5-7.8,5.3-11.8c0,0.1,0.1,0.2,0.1,0.3c1,3,0.9,6.1,1.8,9.1
		c0.6,2,5.2,2.3,6.3,0.8c0.9-1.2,1.4-2.6,1.5-4c0.8-2,1.9-3.8,3-5.6c0,0.1,0,0.3,0,0.4c0,3-1.1,5.5-1.6,8.4
		c-0.4,2.4,5.2,2.8,6.4,1.7c4.3-3.6,3.8-9.1,2.9-14.2c-0.6-3.5-1.1-6.7-1.2-10.3c0-1.4,0-2.7-0.2-3.8c0.1-0.6,0.2-1.3,0.3-1.9
		c0.5-2.6-6.6-3.5-7.4-0.9c-1.6,5.2-2.9,10.2-5.5,15c0-0.1-0.1-0.1-0.1-0.2c-1.3-2.5-3-4.8-4.2-7.3c-1.3-2.6-0.7-5.1-1.7-7.6
		c-1.2-2.9-10.1-3-8.9,0.2c0.1,0.2,0.1,0.3,0.2,0.5c-1.3,6.1,0,11.6-0.2,17.9C398.5,211.2,395.3,215.6,396.2,219.6z"/>
	<path d="M430.5,215.3c3.2,2.7,8.3,3.1,12.1,1.5c1.4,1.2,5.2,1.1,6.1,0c1.9-2.4,0.5-5.5-0.1-8.3c-0.9-3.9-1.8-7.6-0.8-11.7
		c0.3-1.3-1.8-1.9-3.5-1.8c-0.8-0.1-1.5-0.1-2.1,0c-4.7,0.9-8.8,3.4-11.2,7.6C428.8,206.2,426.8,212.1,430.5,215.3z M436.8,208.4
		c0.6-2.4,1.8-4.6,3.5-6.4c0,0.8,0,1.5,0.1,2.4c0.1,0.8,0.2,1.5,0.4,2.3c-0.4,1.8-0.6,3.9-1.7,5.3
		C436.3,215.6,436.2,210.5,436.8,208.4z"/>
	<path d="M457,216.4c0.9,0.2,2.7,0.3,4.4,0.1c0.3,3.2,0.1,6.6-2.4,8.9c-2.1,1.9-5.1,2.2-7.9,2.3c-0.1-0.1-0.2-0.3-0.3-0.5
		c-0.4-1-1-2.2-1.1-3.3c-0.2-2-4.5-2.4-5.3-0.6c-0.7,1.7-1.6,2.9-1,4.8c0.9,2.6,4.3,3.6,6.7,3.5c0.1,0,0.2,0,0.3,0
		c6.4,0.3,15-0.3,17.9-7.1c1.5-3.5,0.7-7.1,0.1-10.7c-0.9-5.7-0.7-9.3,2.3-14.4c1-1.7-2.6-2.5-4.5-2c-2.7-1.1-6.4-1.4-8.1-1.1
		c-4.9,0.7-8.3,4.8-8.9,9.6C448.7,211,452,215.3,457,216.4z M457.6,206.8c0.1-1.4,0.6-2.8,1.3-4c0.7-1.2,2.9-3.6,4.3-2
		c-1.9,3.1-2.5,6.1-2.4,9.8c-0.5,0.3-1,0.6-1.5,0.9c-0.3,0.1-0.4,0.2-0.5,0.3c0-0.1-0.1-0.1-0.2-0.3
		C457.5,210.4,457.4,208.4,457.6,206.8z"/>
	<path d="M475.4,217.7c5.2,2.4,14.4,1.6,14.7-5.6c0.1-2.1-5.3-2.9-6.1-1.2c-1.2,2.6-3.7,5.8-6,2.1c-0.5-0.8-0.8-1.7-1-2.6
		c5.7-0.8,16.3-4.1,10.9-11.4c-4.3-5.8-12.6-3.4-16.2,1.7C467.6,206.5,468.7,214.6,475.4,217.7z M479.8,201.3
		c1.8-1.9,1.7-1.1,1.6,0.8c-0.1,2-2.1,3.1-4.3,3.9c0.2-0.6,0.4-1.2,0.7-1.8C478.4,203.2,479,202.2,479.8,201.3z"/>
	<path d="M214.2,269.2c-5.2,5.1-5.2,11.2-4.5,18.1c0.4,3.4,0.5,6.8,0,10.2c-0.5,3.7-2.1,7.1-2.2,10.9c-0.1,4.8,9.4,4.7,11.8,2.3
		c4.7-4.8,5.2-12.7,4.5-19.1c-0.4-3.5-1.4-7-1.7-10.4c1.7-1.9,3.6-3.6,4.7-4.4c0.2-0.1,1-0.5,1.7-0.9c0.4,1,0.9,2.2,0.9,2.6
		c0.1,1.6-0.2,2.9,0.1,4.5c0.8,4.1,10.3,4.7,12.9,2.5c6.7-5.5-0.2-13-6-15.6c-4.1-1.8-8.9-2.1-13.2-0.9
		C220.5,267.9,215.8,267.6,214.2,269.2z"/>
	<path d="M244.7,310.1c-3.1,4.5,10.2,7.1,13.2,3.6c4.5-5.4,4.4-11.7,3.4-18.4c-1.3-8.7-2.5-16,2.2-23.9c2.5-4.2-9.1-6.4-11.4-3.1
		c-4.4,6.3-6.1,13.2-5.3,20.9C247.4,296.3,249.1,303.8,244.7,310.1z"/>
	<path d="M302.4,320.4c0.2,4.4,8.9,4.7,11.2,2.2c4-4.5,4.4-13.2,4.7-18.9c0.1-1.7,0.1-3.4,0.1-5.1c0.6-0.1,1.2-0.3,1.7-0.5
		c0.8,2,1.3,4.2,1.8,5.8c1.2,3.9,1.4,8.2,2.7,12.1c2.5,7.2,11.5,9.6,18.3,9.7c2.7,0,5.8-1.9,2.9-4.2c-2.7-2.2-6.4-2.8-7.7-6.3
		c-1.4-3.7-1.9-7.7-3.4-11.4c-2-5-4.3-9.3-8.2-12.2c2.3-2.9,4.5-5.9,7.1-8.5c4.2-4.3,7.5-9.3,5-15.4c-1.5-3.5-12.5-4.8-11.8,0.2
		c0.8,5.9-5.4,10.4-9.2,14.2c-0.7-13-0.3-24.8,4.4-37.2c1.6-4.3-10.7-5.3-12.8-2.5c-8.2,11-7.7,25.4-6.2,38.4
		c0.8,6.6,1.7,13.2,1.9,19.9c0.1,3.1,0,6.2-0.4,9.3C304,313.2,302.3,316.9,302.4,320.4z"/>
	<path d="M289.4,295.3c-1.4,3.3-2.3,9.6-5.5,11.6c-1.6,1-0.2,0.6-1.2-0.2c-1.1-0.8-1.9-2.2-2.5-3.5c-1.2-2.4-1.6-5.1-1.6-7.8
		c0-4.9,0.8-10.6,2.9-15.1c0.8-1.7,2.3-4.6,4.3-5.3c0.9-0.3,1-0.4,1.1-0.3c1.2,0.6,1.9,3.2,2.1,4.3c0.4,3.7,10.5,5.2,10.7,1.3
		c0.5-10.5-11.2-14.5-19.9-12.3c-11,2.8-14.9,15.5-14.8,25.7c0,11.4,7.5,19.9,18.9,20.8c11.1,0.9,18.7-7.1,16.4-18
		C299.5,293.6,290.7,292.4,289.4,295.3z"/>
	<path d="M255.3,255.4c1.4,1.7,4,2.5,6.1,2.7c2,0.2,4.1,0.1,5.9-0.7c1-0.4,1.7-0.9,2.4-1.7c0.4-0.5,0.6-1.1,0.8-1.7
		c0.1-0.3,0.2-0.7,0.2-1c0-0.7-0.3-1.4-0.4-2.1c-0.2-1.1-2.1-2.2-3-2.6c-1.7-0.7-3.6-1-5.4-1c-3.1,0-7.5,1.4-8,5
		c-0.1,0.9,0.3,1.7,1,2.3C255,254.9,255.1,255.1,255.3,255.4z"/>
	<path d="M186.7,254.6c-1.9,6-1.4,13-0.4,19.4c1.2,7,3,14,2.6,21.1c-0.4,6.9-3.6,12.3-6.2,18.6c-1.8,4.4,7.7,5.3,10.1,3.5
		c10.6-8.1,11-22.2,8.7-34.3c-2-10.7-4.4-20.9-0.8-31.1c1.8-0.2,3.6-0.4,5.5-0.4c3.1,0,6,0.5,9,1.2c2.2,0.6,5,2.1,7.3,2.1
		c1.6,0.8,3.4-2,3.9-3c1.2-2.5,1.4-5.8,0.5-8.3c-1.7-4.7-9-5.7-13.4-6.4c-5.7-0.9-11.4-0.1-17,1.1c-10.6,2.2-22.6,6.2-33,0.9
		c-4.6-2.4-6.4,9.3-3.2,11.7C168.1,256.7,177.5,256.3,186.7,254.6z"/>
	<path d="M390.5,313.2c3.2-8.4,0.8-20.8-8.8-23.6c-6-1.7-17.3-0.2-16.8,8.2c0,0.3,0.1,0.5,0.2,0.7c-2.6,6.4-3.6,14.4,1.3,19.4
		C373.5,325.3,386.9,322.8,390.5,313.2z M374.1,314.6c-1.1-2-1.4-4.3-1.4-6.5c0-2.9,0.3-6,1-8.9c1.2-1.5,2.1-3.8,3.8-4.6
		c0.2-0.1,0.3-0.2,0.3-0.3c1.9,1.1,2.5,6.3,2.6,7.8c0.3,3.1,0,6.4-1.2,9.3C378.3,313.8,376.2,318.2,374.1,314.6z"/>
	<path d="M405,288c-1.5-1.6-7-2.3-8.6-0.6c-4,4.2-3.6,9-3.2,14.4c0.4,6.4-1,12.1-1.5,18.4c-0.3,4,9.8,5.4,11.3,2.2
		c2.5-5.1,2.8-10.8,2.2-16.4c-0.2-1.8-0.8-3.9-1.2-6c0.2-0.2,0.5-0.4,0.6-0.6c0.7-1.1,1.5-2.2,2.4-3.2c0.8-0.9,1.9-1.3,2.7-1.9
		c0.1,1,0.8,2,1.5,2.6c2.1,2.2,9.8,3.9,11-0.2C424.3,288.9,413.3,285.7,405,288z"/>
	<path d="M484.6,265.6c-2.7-0.7-6.3-0.5-7.5,0.9c-1.3,1.5-2.4,3.1-3.4,4.7c-0.5,0.6-1,1.3-1.4,2c-0.3,0.5-0.4,1-0.3,1.4
		c-1.9,4.3-2.7,8.9-2.5,13.9c0.2,4.2,0.7,8.4,0.4,12.6c-0.3,4-1.9,7.2-3,11c-1.2,4.3,9.9,5.1,12,3.2c6-5.4,5.2-13.9,4.5-21.3
		c-0.6-6.8-0.8-13.1,1.4-19.2c0.7-0.3,1.4-0.7,2.1-1c0.6-0.3,1.3-0.5,1.9-0.7c0.3,0.4,1.4,1.4,1.6,1.7c0.9,1.4,1.2,2.8,1,4.4
		c-0.5,4.7,11.6,6,13,1.6c2.3-7.6-4.7-13.3-11.4-14.9C490.1,265.5,487.3,265.3,484.6,265.6z"/>
	<path d="M447.1,260.8c-2.3,6.5-2.1,13.9-1.3,21.2c0.7,6.7,1.2,13.3,0.6,19.9c-0.6,6.7-3.5,13.3-3.2,19.9c0.2,4.6,9.5,5.1,11.9,2.3
		c7.8-9,7.2-25.1,5.8-36.2c-1.2-9.4-3.6-20.4,0.4-29.3c3.3-0.4,6.5-0.5,9.9-0.1c2.9,0.3,5.8,1,8.5,1.8c2.9,0.8,4.7,2,7.6,1
		c3.5-1.2,4-8.5,2.1-11.1c-3-4.2-9-5.1-13.9-6c-5.3-0.9-10.5-0.7-15.8,0.1c-10.1,1.6-22.2,6-31.6-0.2c-4-2.6-5.2,8.2-2.9,10.6
		C431.3,260.9,439.1,261.6,447.1,260.8z"/>
	<path d="M543.9,307.9c1.4-4.2-10.3-5.3-12.3-2.4c-3.1,4.6-7.9,7.6-12.3,3.3c-2.4-2.3-3.8-5.2-4.1-8.3c6.5,0.3,13-0.4,18.6-4
		c4.7-3.1,9.7-9.5,7.1-15.5c-2.5-5.7-10.7-7-16.1-6.6c-6.3,0.4-12.2,3.4-16.6,7.8c-9.8,9.8-9,24.5,2.8,32.4
		C521.1,321.6,539.5,321.5,543.9,307.9z M524.1,283.9c1-0.6,2.9-2,4-1.9c0.3,0,0.6-0.1,0.8-0.1c-1.3,0.6-1.8,1.6-1.6,2.9
		c-2.6,5.5-6.1,8.8-11.6,9.7c0.4-1.4,1-2.8,1.8-4C519.2,287.9,521.5,285.5,524.1,283.9z"/>
	<path d="M573.4,313.5c0.1,0.8,0.2,1.6,0.4,2.4c0.8,3.2,8.6,4.1,10.7,2.1c2.9-2.8,3.1-5.2,2.7-9.1c-0.5-4.3-1.6-8.7-2.8-12.9
		c-2-7.4-6.9-16.2-4.2-24c0.4-0.4,0.6-0.9,0.5-1.4c0.3-1.2-0.7-2-2-2.4c-2.1-1.2-5.1-1.1-7.2-0.4c-9.1,2.6-17.1,6.6-21.7,15.3
		c-3.5,6.7-6.5,17.1-3.1,24.4C550.8,316.3,564.1,317.3,573.4,313.5z M559.7,296.1c0.6-4.8,2.1-9.4,4.9-13.4c1.2-1.8,2.6-3.2,4.2-4.4
		c-0.2,3.7,0.6,7.6,1.5,11.5c0.4,1.5,0.7,3.1,1,4.6c-0.5,0.4-0.9,0.8-1.1,1.5c-1.3,3.9-3.8,11-8.5,11.8c-1.7,0.3-0.4,0.5-1-0.5
		c-0.7-1-1-2.2-1.2-3.4C559.1,301.3,559.4,298.6,559.7,296.1z"/>
	<path d="M223.7,337.1c-6,8.2-7.1,17.2-6.7,26.5c-5.7,2.1-10.7,1.3-16.6,1.8c-1.5,0.1-2.9,0.3-4.3,0.5c0.5-1.7,1.1-3.4,1.7-5.1
		c2.8-7.2,4.8-14.1,1.4-21.4c-1.5-3.2-12.3-4.6-11.2,0.2c1.5,6.8-1.5,13.6-4.1,19.7c-2.6,6-4.1,11.8-4.6,18.3
		c-0.6,6.8-1.4,13.2-3.7,19.7c-1.1,3-2.3,6-3.6,8.9c-0.8,1.7-1.9,5.6-3.3,7.4c-0.8,0.4-1.4,1-1.6,1.9c0,0.1-0.1,0.3-0.1,0.4
		c-1,3.1,6.2,4.2,7.7,4.2c7.5-0.1,9.6-7.6,12.2-13.5c3.2-7.2,5.5-14.7,6.2-22.6c0.3-3.1,0.6-6,1-8.8c6.3-2.6,12.6-1.5,19.3-1.3
		c1.3,0,2.9,0.1,4.5-0.1c0.2,1.9,0.3,3.8,0.5,5.7c0.5,7,0.7,14.2-1.9,20.9c-1.1,2.8-2.7,5.5-4.6,7.8c-1.6,1.9-4.2,3.4-4.7,6
		c-0.5,2.5,4.6,3.3,6,3.3c15-0.3,20.1-17.5,19.7-29.9c-0.5-15.6-8.5-33.6,0.2-48.2C234.8,336.2,225.5,334.5,223.7,337.1z"/>
	<path d="M245.2,363.4c-6,5.8-7,12.5-6.5,20.5c0.3,4.4,0.9,8.9,0.2,13.3c-0.6,3.9-3,7.4-2.2,11.3c0.7,3.3,7.1,2.9,9.2,1.8
		c7.3-3.9,6.8-14.4,5.9-21.5c-0.9-7.3-2.6-16.7,2.4-23C256.7,362.8,247.4,361.3,245.2,363.4z"/>
	<path d="M257.8,350.8c-0.2-0.3-0.3-0.6-0.4-1c-0.4-0.8-0.9-1.5-1.7-2c-0.6-0.4-1.2-0.7-1.9-1c-0.5-0.2-1.1-0.4-1.6-0.6
		c-0.6-0.1-1.2-0.2-1.9-0.4c-1.5-0.2-2.9-0.1-4.4,0.3c-0.9,0.2-1.7,0.6-2.4,1.2c-0.3,0.2-0.5,0.5-0.6,0.9c-0.3,0.5-0.3,0.9-0.1,1.5
		c0,0,0,0.1,0,0.1c-0.2,0.4-0.3,0.8-0.3,1.2c0.1,1.6,1,2.7,2.2,3.6c1.5,1.1,3.5,1.5,5.3,1.6c1.6,0.1,3.5,0,4.9-1
		c1-0.7,1.9-1.5,2.5-2.5C258,352.1,258.1,351.5,257.8,350.8z"/>
	<path d="M295,335c1.8-3.6-7.7-5.4-9.4-2.5c-5.7,9.8-4,19.7-2.2,30c-6.4-0.9-13.2,0.9-18,5.2c-7.5,6.7-9.1,17.3-8.6,26.8
		c0.2,3.9,0.6,7.7,3.4,10.7c3,3.2,8,4.8,12.2,5.3c2.8,0.4,5.8,0.4,8.7-0.1c3.3,1.3,8.8,0.9,10.2-0.9c3.5-4.4,4.9-11,5.9-16.4
		c1.2-5.9,1.6-12.1,1.1-18.2C297.2,362.1,288.8,347.5,295,335z M273.8,403.2c-4.2-0.9-3.1-10.5-3-13.6c0.3-7.8,3.9-21.1,13.6-20.9
		c0.1,0.5,0.1,1,0.2,1.4c0.8,6.3,0.3,12.6-0.8,18.8c-0.7,3.9-2,7.6-3.1,11.3C278.6,402,276,403.7,273.8,403.2z"/>
	<path d="M336.2,386.5c-1.2,3.5-2.4,7.3-4.6,10.3c-1.7,2.2-5.8,6.1-9.1,5.2c-3.2-1-4.6-6.8-5.1-9.6c-0.4-2.2-0.6-4.5-0.5-6.8
		c7.1,0.5,14.7,0,20.6-4.4c4.5-3.4,9-10.5,4.8-15.8c-4.5-5.8-14.5-6.5-21.1-5.1c-6.5,1.4-12.4,5.7-15.5,11.7
		c-6.5,12.8-3.3,32.4,12.1,36.6c13.9,3.8,33.1-4.8,30.3-21.4C347.5,383.2,337.4,382.8,336.2,386.5z M323.1,370.6
		c1.3-1.2,5.4-4.4,6.7-2.7c1.9,2.6-2.5,8-4.3,9.3c-2.2,1.6-4.8,2.1-7.5,2.2C318.9,376,320.6,372.8,323.1,370.6z"/>
	<path d="M480.6,358.1c8.1-16.3-12.4-23.3-25.1-18.8c-13.3,4.7-19.6,18.6-10.7,30.6c2.2,2.9,5.1,5.3,8.5,6.8c2.8,1.3,7.9,1,10.2,2.8
		c3,2.3,2.3,9,1.7,12.2c-0.8,3.7-2.6,7.5-5.5,10c-3,2.6-8.3,4.4-12.1,2.4c-3.2-1.7-5.5-6.1-3.6-9.5c1.3-2.5,4.7-4.3,6.9-5.9
		c4.3-3.3-5.3-5.2-7.2-4.9c-5.3,0.8-11.1,2.6-13.8,7.6c-2.7,5.1-0.1,11,3.8,14.6c8,7.5,21.4,8.4,31.5,5
		c11.1-3.7,17.8-15.3,15.3-26.7c-1.5-6.7-6.6-10.8-13.1-12.3c-2.7-0.6-5.4-0.3-7.5-2.3c-2.2-2.1-3.6-5.2-4-8.2
		c-0.9-6,2.4-11.1,7.7-13.9c0.6-0.3,1.7-0.5,2.5-0.9c0.6,1,1.7,2.5,1.9,3.2c0.6,2,0.7,3.8,0.1,5.8
		C466.5,359.7,478.8,361.6,480.6,358.1z"/>
	<path d="M512.9,392.8c-2.3,2.8-3.7,6.2-5.9,9.2c-0.9,1.3-2.1,2.6-3.5,3.3c-0.6-0.6-1.2-1.3-1.6-2.1c-2.8-4.5-4.6-10.4-4.8-16
		c5.2,1.1,10.6,0.7,15.4-2.1c5.5-3.2,9.4-9.1,7.4-15.5c-2-6.4-8.7-9.5-15-9.4c-7,0.1-12.5,4.5-16.4,9.9c-4.1,5.7-5.5,12.3-4.6,19.2
		c0.9,6.7,3.3,15.1,8.8,19.6c5.6,4.7,14.3,5.6,20.9,2.6c5.8-2.7,11.4-9.7,11-16.3C524.1,390.6,515.3,390,512.9,392.8z M505.5,367.3
		C505.5,367.3,505.5,367.3,505.5,367.3C505.5,367.3,505.5,367.3,505.5,367.3z M505.1,369.2c0.3-0.3,0.7-0.5,1-0.8
		c0.5,1.1,1.1,2.6,1.1,2.7c0.3,1.7,0,3.4-0.8,4.9c-1.4,2.8-5.1,6.1-8.4,5.2c-0.1,0-0.3-0.1-0.4-0.1c0.7-3,2.1-5.7,4-8.2
		C502.7,371.6,503.8,370.3,505.1,369.2z"/>
	<path d="M559.4,390c-1.4,4-3.3,8.1-5.7,11.6c-1.4,2.1-4.6,6.9-7.7,6.6c0.7,0.1-1.5-1.9-1.8-2.2c-1.4-1.7-2.2-3.8-2.8-5.8
		c-0.8-2.6-1.1-5.2-1.1-7.9c5.3,0.6,10.7-0.5,15.1-3.8c5.1-3.9,9.6-11.5,7.1-18.1c-2.6-7-11.9-9.4-18.5-8.1
		c-6.9,1.3-11.8,6.8-14.5,13c-5.9,13.4-4.8,34.3,11.7,39.3c16.4,5,28.5-7.6,29.6-23.3C571.1,387.1,560.8,386.2,559.4,390z
		 M544.8,375.5c1-1.7,2.3-3.5,3.9-4.7c0,0,0,0,0.1,0c0.2,0.5,0.4,1,0.5,1.5c0.2,1.2,0.1,2.3-0.1,3.5c-0.3,1.6-1,3.1-1.8,4.5
		c-0.9,1.6-3.9,5.7-6.3,5.9C541.6,382.4,542.8,378.7,544.8,375.5z"/>
	<path d="M408.2,382.6c-2.1-1.6-9.7-0.8-6.1,2.3c2.7,2.3,1.3,5.4-1.3,8.3c-1.4-2.1-2.8-4.3-4.1-6.5c-1-1.7-1.9-3.4-2.8-5.1
		c5-6,9-12.5,2.1-19.1c-4.4-4.2-22.9-7.8-19.6,2.7c1.7,5.6,4.2,11,6.8,16.3c-3.5,3.5-7.3,6.8-8.8,11.7c-4,12.9,11.9,17.1,21.2,13.3
		c0.7-0.3,1.6-0.7,2.4-1.2c0,0,0.1,0,0.1,0.1c1.7,0.8,9.9,1.6,8.5-2.2c0,0,0,0,0-0.1c0-0.1,0-0.1,0-0.2c0.1-0.9-0.3-2-1-2.9
		C411.4,394.7,415.2,387.8,408.2,382.6z M389.7,367.7c0.4,1.6,0.2,3.3-0.3,4.8c-0.9-1.9-1.8-3.9-2.6-5.9
		C384.6,361.1,389,364.9,389.7,367.7z M385.1,399.6c-0.7-2.7-0.1-5.8,1.1-8.2c0.3-0.6,0.7-1.2,1.2-1.9c0.8,1.4,1.5,2.8,2.3,4.2
		c0.4,0.8,2.5,3.6,3.7,5.6c-0.4,0.3-0.8,0.5-1.1,0.7C389.4,401.7,386.2,403.9,385.1,399.6z"/>
	<path d="M627.3,417.4c-1.9-1.7-5-2.6-7.7-2.6c-0.4-0.3-0.8-0.5-1.2-0.7c-1.4-0.6-2.8-0.9-4.1-1.6c-0.7-0.8-1.4-1.7-2.1-2.6
		c-0.4-0.5-0.7-0.9-1-1.4c-0.3-0.8-0.6-1.5-0.8-2.3c-1.7-4.9-2.4-10.1-4.7-14.7c-2.1-4.2-5.1-7.3-8.8-9.2c2.7-1.7,5.8-3,8.5-5
		c5.6-3.9,11.8-9.6,11.9-16.9c0.1-4.3-11.2-5.7-11.8-1.4c-0.8,6.5-7.8,11-13.7,14.2c0.4-5.3,1-10.5,1.9-15.8
		c1.2-7.3,0.8-13.2-3.4-19.4c-2-3-14.6-3.2-12.4,1.1c3.3,6.5,1.8,12.9,0.4,19.7c-1.2,6.3-1.4,12.6-1.3,18.9
		c0.1,7.2,0.1,14.1-0.9,20.7c-0.5,1.2-1,2.3-1.6,3.4c-1.9,3.6-4.1,7.2-6.6,10.5c-1.3,0.3-2.3,0.9-2.8,1.7c-0.5,0.8-0.8,1.6-1.1,2.5
		c0,0.9,0.2,1.6,0.8,2.3c0.2,0.2,0.4,0.3,0.6,0.5c3.3,2.9,12.4,5.3,15.2,0.5c0.2-0.2,0.4-0.3,0.6-0.5c6.6-8.6,8.6-19.3,9.5-30
		c0.1-0.1,0.1-0.1,0.2-0.2c3.2,5.6,4.3,18.5,5.8,21.6c1.4,2.9,3.8,5.3,6.6,7c5.2,5.9,15.3,8.1,22.5,5.2
		C628.7,421.8,629.6,419.5,627.3,417.4z"/>
	<path d="M634.4,263.9c-0.4-1.5-1.4-3.5-3.1-2.1c-4.2,3.4-9.9,3.5-15.4,3.5c0-1.8,0-3.6,0.2-5.5c0.5-2,1.2-3.9,2.1-5.8
		c1.6-3.6,4.9-6.4,5.9-10.1c1.5-5.2-11.6-5.9-14.1-3.8c-3.2,2.7-4.3,7.2-5.5,11.2c-1.3,4.3-1.6,8.8-1.4,13.3c0,0.7,0.4,1.4,0.9,1.9
		c-5.8,1.6-10.7,4.6-15.7,8.2c-2,0-3.2,3-3.7,4.6c0,0.1,0,0.2-0.1,0.2c-0.7,2.3-1.2,9,2.5,9.6c3.2,0.5,7-4.1,9.6-5.6
		c2.5-1.4,5.2-2.5,7.9-3.4c0.1,1.6,0.1,3.3,0.2,5c0.5,14.6-2.9,29.4-1.2,43.9c0.5,4.4,11.5,6.2,12.5,1.5c2.9-13.7,2.7-29,1.8-42.9
		c-0.2-3.4-0.6-6.7-0.9-10.1c6-1,11.7-2.4,16.1-7.4C634.2,268.6,634.9,266,634.4,263.9z"/>
</g>
</svg>
