<?xml version="1.0" encoding="utf-8"?>
<!-- Generator: Adobe Illustrator 26.2.1, SVG Export Plug-In . SVG Version: 6.00 Build 0)  -->
<svg version="1.1" id="Layer_1" xmlns="http://www.w3.org/2000/svg" xmlns:xlink="http://www.w3.org/1999/xlink" x="0px" y="0px"
	 viewBox="0 0 792 612" style="enable-background:new 0 0 792 612;" xml:space="preserve">
<style type="text/css">
	.st0{fill:#FFFFFF;}
</style>
<g>
	<path class="st0" d="M364.6,223.8c2.8,0.9,6.6,0.5,8.4-2c0.1-0.1,0.2-0.3,0.3-0.4c0.8,1.8,2.2,3.5,4.8,4.7c0.8,0.4,2.4,0.7,4.1,0.7
		c1.9,0,4.1-0.5,5.3-1.9c1.1-1.3,1.7-3.4,0.2-5.8c-0.5-0.8-0.8-1.9-1.1-3.1c-0.4-1.5-0.9-3.2-1.9-4.8c-1-1.6-2.1-3.1-3.4-4.6
		c0.1-0.1,0.2-0.2,0.4-0.3c0.8-0.8,1.6-1.5,2.4-2.3c3.3-3.3,4.4-7.2,3.2-10.9c-1-3.2-5.3-4.4-8.3-4.4c0.1-1.4-0.6-2.8-1.8-3.8
		c-2.3-1.9-8-2.5-10.4,0.2c-2.8,3.1-3.7,6.4-4,9.7c-2.5-0.8-5-0.8-6.1-0.7c-2.1,0.2-4,0.9-5.7,2.1c-1.2-0.8-2.6-1.2-3.6-1.4
		c-4.7-2.1-10.8-1-14.6,2.6c-0.8,0.8-1.6,1.7-2.3,2.6c-0.1-3-0.1-5.9,0.9-8.6c0.7-1.9,0.1-4.4-2.7-5.8c-2.5-1.2-7-1.4-9.1,1
		c-0.1-0.1-0.3-0.3-0.4-0.4c-4.2-3.8-10.5-4-14.8-2.5c-1.8,0.6-3.6,1.7-5,2.9c-1.1,0.5-2,1.3-2.5,2.3c-2.1,4.4-2.2,8.6-2.2,12.7
		c0,0.9,0,1.8-0.1,2.7c-0.2,5.4-1.3,10-3.5,14.6c-0.8,1.7-0.7,3.5,0.3,5c1.5,2.2,4.5,2.9,7,2.9c0.3,0,0.5,0,0.8,0
		c3.7,0,8-1.1,13-3.4c1.6-0.7,3-1.7,4.3-2.7c0.8,0.7,1.9,1.3,3.2,1.7c0.8,0.2,1.8,0.4,2.7,0.4c2.3,0,4.6-0.8,5.8-2.8
		c2.7,1.8,6.5,2.3,10,2c1.3,1.1,3.1,1.8,5.3,2c0.3,0,0.5,0,0.8,0c2.4,0,4.4-0.8,5.6-2.3c1.5,1,3.4,1.6,5.4,1.8
		c0.5,0,0.9,0.1,1.4,0.1c2.1,0,3.9-0.5,5.6-1.5C362.6,222.9,363.5,223.4,364.6,223.8z M378.9,216.1c-0.1-0.5-0.2-1-0.4-1.5
		c0-0.2-0.1-0.3-0.1-0.5c0.1,0.2,0.2,0.4,0.3,0.5c0.5,0.8,0.8,1.9,1.1,3.1c0.1,0.5,0.3,1,0.4,1.4C379.6,218.7,379.3,218,378.9,216.1
		z M379.8,195.6c0.3,0,0.6,0.1,0.9,0.2c0,0.7-0.3,1.7-1.7,3.1c-0.5,0.5-1,1-1.5,1.4C378.6,199,379.5,197.5,379.8,195.6z
		 M368.4,211.1c0.7-3.1,1.5-6.4,1.3-9.9l0-1.1c-0.1-3.2-0.2-5.5,0.5-7.4c-0.4,2.7-0.1,5.2,0.1,7.2l5.8,2c-0.8,0.8-1.6,1.5-2.4,2.4
		l0.2,5c0.4,0.3,0.8,0.7,1.1,1.1l-5.2,0.9c-0.5,2.4-1.4,4.5-2.4,6.1c-0.1,0-0.2,0-0.3,0C367.4,215.2,367.9,213.2,368.4,211.1z
		 M303,192.5l-0.6,1.2c0.1-0.3,0.2-0.7,0.4-1L303,192.5z M302.4,192.8c-0.3,0.2-0.5,0.3-0.6,0.4L302.4,192.8z M304.6,203.6l-2.3,3.3
		c0,3.7-0.4,6.5-1.2,8.9l3.4,3.1c-2.1,0.7-4,1.1-5.6,1l-0.4,0c-0.1,0-0.3,0-0.4,0c2-4.8,3-9.7,3.3-15.2c0-1,0.1-2,0.1-2.9
		c0-2.1,0.1-4,0.4-5.8c0,1.5,0.1,3,0.2,4.5l0,0.4l3.5,2.4C305.3,203.4,304.9,203.5,304.6,203.6z M314.5,210.5
		c-0.3,2.4-1.8,4.1-3.2,5.3c1.7-2.4,2.8-5.5,2.4-8.5C314.5,208,314.7,209,314.5,210.5z M314.3,197.8c-0.5,1-1.3,1.9-2.4,2.7l0.3,3.3
		c-0.6-0.7-1.5-1.2-2.9-1.2c-0.1,0-0.2,0-0.3,0c1.4-1.2,2.2-2.8,2.8-4.1c1.2-2.5,1.4-5.2,0.8-7.7l-2-0.9c1.3,0.2,2.5,0.6,3.4,1.5
		C316.5,193.5,314.5,197.4,314.3,197.8z M322.2,215.9c-0.2,0-0.5,0-0.7-0.1c0.1-0.9,0.3-1.8,0.5-2.7c0.2-1.2,0.5-2.4,0.6-3.7
		c0.2-2.3,0-4.5-0.2-6.6l-0.1-1c-0.3-3.2,0.1-5.8,1.1-8.3c-0.5,3.3-0.2,6.6,0,9.8C323.8,208,324,212.1,322.2,215.9z M343.8,211.9
		c0.1,1.9,0.3,3.6,0.1,5.2c-0.5,0-1.2-0.1-1.5-0.3c0.2,0.1,0.5,0.5,0.6,1.2l-2.9-2.2c1.3-1.3,1.9-2.8,2.3-4c0.1-0.3,0.2-0.6,0.3-0.9
		l0.3-1.4c0-1.4,0.1-2.6,0.2-3.5l-6.4-2.5l-0.3,0.4c-0.2,0.3-0.4,0.6-0.6,0.9c-0.2,0.3-0.4,0.6-0.6,0.8c-0.5,0.7-0.9,1.3-1.4,2.1
		c-0.6,0.9-1.2,2-1.6,3.1l-0.1,0.2c-0.1,0.2-0.1,0.4-0.2,0.7c-0.7,0.6-1,1.3-1.1,2c0,0-0.1-0.1-0.1-0.1v0c-0.3-0.6-0.5-1.7,1.2-4.2
		c1.5-2.4,3.3-5.1,5.2-6.9c1.9-1.8,5-2.3,7.2-1.2l0.2,0.1C343.3,204.8,343.6,208.5,343.8,211.9z M351.3,210.4
		c0.1-1.5,0.7-5.5,2.7-7.8c-0.2,0.4-0.4,0.9-0.6,1.4c-1.1,2.5-1.7,5-1.8,7.5c-0.1,1.1,0.2,2.1,0.3,2.9c0,0.1,0,0.2,0.1,0.3
		C351.2,213.5,351.1,211.9,351.3,210.4z M355.6,216.6c-1.5-0.1-2.5-0.7-3.2-1.4l6.1,0.7C357.9,216.5,356.9,216.8,355.6,216.6z
		 M359.2,215.3c0.1-0.3,0.3-0.6,0.5-1C359.6,214.7,359.4,215.1,359.2,215.3z M361.5,201.2c0.2-0.3,0.4-0.5,0.5-0.6
		c0.1,0.1,0.1,0.2,0.2,0.3l-0.1-0.3c0,0,0,0,0,0c0.1,0.1,0.1,0.3,0.2,0.5c0.1,0.2,0.2,0.5,0.3,0.8l-0.2-0.5c0.1,0.3,0.1,0.6,0,0.9
		l-0.9-0.5C361.5,201.4,361.5,201.3,361.5,201.2z"/>
	<path class="st0" d="M395.5,224.6c1,0.4,2.1,0.6,3.3,0.6c1.6,0,3.2-0.4,4.2-1.1c1.1-0.7,2-1.6,2.8-2.6c0.9,1.2,2.4,2,4.3,2.4
		c1.8,0.3,4.2,0.2,5.9-1c0.2,0.1,0.4,0.3,0.6,0.4c2.5,1.5,7.3,1.7,9.6-0.2c1.2-1,2.2-2.2,2.9-3.4c2.3,1.5,5.2,2.3,8.1,2.3
		c1.3,0,2.7-0.2,4-0.5c-0.3,0.4-0.5,0.7-0.7,1.1c-0.1,0.3-0.2,0.6-0.4,0.8c-0.7,1.4-1.7,3.6-0.7,6.4c1.4,4.2,6,5.9,9.9,5.9
		c0.1,0,0.2,0,0.3,0c0.8,0,1.8,0.1,3,0.1c5.5,0,14.8-1.1,18.3-9.3c0.8-1.9,1.1-3.8,1.1-5.6c0.4,0.2,0.7,0.4,1.1,0.6v0
		c2,0.9,4.6,1.5,7.4,1.5c2.6,0,5.2-0.6,7.5-1.9c2.9-1.8,4.6-4.7,4.8-8.2c0.1-1.8-0.9-3.4-2.6-4.5c0.5-0.6,0.9-1.3,1.2-2
		c0.8-1.9,1.2-5-1.5-8.8c-2.3-3.1-5.7-4.8-9.5-4.8c-0.1,0-0.1,0-0.2,0c-3,0-6,1.1-8.6,2.9c-1.7-1.2-4-1.5-5.8-1.3
		c-3.2-1.1-7-1.2-8.8-1c-2.4,0.3-4.6,1.3-6.5,2.8c-0.2-0.7-0.5-1.3-0.9-1.8c-1.6-2-4.5-2.3-5.8-2.3c0,0,0,0,0,0
		c-1-0.1-2.1-0.1-3,0.1c-4.8,1-8.7,3.2-11.5,6.5c-0.1-0.9-0.2-1.9-0.2-2.8l0-0.8c0-1,0-1.9-0.1-2.8c0.1-0.5,0.2-0.9,0.2-1.4
		c0.4-2.4-0.9-5.3-5-6.3c-3.7-0.9-8.1,0.1-9.2,3.7c-0.2,0.7-0.4,1.4-0.6,2.1c-0.6,2.1-1.2,4.2-1.9,6.2c-0.2-0.4-0.5-0.9-0.7-1.3
		c-0.4-0.9-0.5-1.8-0.6-2.9c-0.1-1.3-0.3-2.8-1-4.4c-1.7-4.3-8.7-5.2-12.3-3.8c-2.7,1.1-3.9,3.5-3.2,6c-0.7,4-0.5,7.6-0.3,11.1
		c0.1,2.2,0.2,4.2,0.2,6.4c0,1.2-0.6,2.7-1.1,4.3c-0.9,2.7-2,5.8-1.2,9C392.6,222.6,393.8,223.9,395.5,224.6z M484.3,202.7l0-0.2
		c0-0.3,0-0.6,0-1c0,0,0,0.1,0.1,0.1c0.3,0.4,0.9,1.4,0.7,1.9c-0.2,0.4-0.6,0.8-1.2,1.2C484.2,204.1,484.3,203.4,484.3,202.7z
		 M473.9,203.3c0.2-0.2,0.3-0.5,0.5-0.7c-0.1,0.2-0.2,0.3-0.3,0.5c-0.4,0.7-0.7,1.5-1,2.4l2.4,2.3l-2.7,3.8c0,0.1,0,0.2,0.1,0.3
		c-0.2-0.4-0.4-0.9-0.5-1.3C471.8,208.2,472.3,205.5,473.9,203.3z M465.6,201.2c-0.1,0.1-0.1,0.2-0.2,0.4l0-0.4L465.6,201.2z
		 M461.8,214.3l1.8-3.2c-0.1-1.5,0-2.8,0.3-4.1c-0.3,2.5-0.1,5,0.4,7.8l0.2,1c0.5,3,0.9,5.5,0,7.8c-0.4,1-1.1,1.9-2,2.6
		c1.9-3.1,1.9-6.8,1.6-9.5l-2.7-2.2C461.6,214.5,461.7,214.4,461.8,214.3z M452.2,206.8c0.3-2.4,1.5-4.4,3.3-5.6
		c-0.2,0.2-0.3,0.4-0.3,0.5c-0.9,1.6-1.5,3.4-1.7,5.3v0c-0.2,1.4-0.2,3.2,0.4,4.9C452.6,210.6,451.9,208.8,452.2,206.8z
		 M450.9,219.5c0.2-0.3,0.4-0.6,0.6-0.8c1.2,0.7,2.6,1.3,4.1,1.7c0.5,0.1,1.1,0.2,1.7,0.2c-0.2,1.2-0.6,2.1-1.3,2.7
		c-0.8,0.7-2,1.1-3.4,1.2c-0.1-0.2-0.1-0.4-0.1-0.5c-0.2-1.6-1-2.9-2.4-3.8C450.4,220,450.6,219.8,450.9,219.5z M446.1,227.2
		c0.1,0.2,0.1,0.4,0.2,0.6c-0.1-0.1-0.2-0.2-0.3-0.4C446.1,227.3,446.1,227.2,446.1,227.2z M442.3,199c0.1,0,0.5,0,0.9,0l0.2,0
		c-0.4,3.9,0.4,7.4,1.2,10.8c0.1,0.5,0.3,1.1,0.4,1.6c0.4,1.5,0.7,2.6,0.6,3.3c-0.5,0-1.2,0-1.4-0.1c0,0,0.1,0,0.2,0.1l-2.8-0.4
		c1.3-1.9,1.7-4,2-5.8l0.1-0.6l0-1.4c-0.1-0.6-0.3-1.3-0.3-2c-0.1-0.7-0.1-1.3-0.1-1.8l-5.2-2.1C439.5,199.7,441,199.2,442.3,199z
		 M433.4,204.9c0.5-0.9,1.1-1.7,1.8-2.3c-1.1,1.7-1.9,3.5-2.4,5.5v0c0,0-0.7,3-0.1,5.5c-0.2-0.1-0.3-0.2-0.5-0.4
		C430.2,211.6,432,207.2,433.4,204.9z M400.1,214.1c0.7-1.9,1.4-4.1,1.5-6.4c0.1-2.5,0-4.8-0.2-7.1c-0.2-3.5-0.4-6.8,0.3-10.2l0-0.2
		c0.8,0,1.7,0.2,2.2,0.4c0.2,0.6,0.3,1.4,0.4,2.2c0.2,1.5,0.4,3.3,1.3,5.2c0.8,1.6,1.6,3,2.5,4.4c0.6,1,1.3,2,1.8,3.1l0.1,0.1l6.1,0
		c2.4-4.4,3.8-9,5.1-13.5c0.1-0.4,0.2-0.8,0.3-1.2c0.2,0,0.4,0,0.6,0c0,0.1,0,0.2,0,0.3l0,1.1c0.1,0.7,0.1,1.5,0.1,2.5l0,0.9
		c0.1,3.7,0.6,7.1,1.2,10.6l0,0.1c0.8,5.1,0.9,8.5-1.4,10.7c-0.2,0-0.4,0-0.7,0c0.1-0.3,0.1-0.5,0.2-0.8c0.5-1.9,1-3.9,1-6.3
		c0-0.1,0-0.3,0-0.5l-6.5-1.8c-1.1,1.9-2.3,3.9-3.2,6.1l-0.2,0.9c-0.1,0.7-0.3,1.3-0.6,1.9c-0.2,0-0.4,0-0.6,0
		c-0.2-0.9-0.3-1.9-0.5-2.9c-0.2-1.7-0.5-3.6-1.1-5.5c0-0.1-0.1-0.2-0.1-0.3l-6.8,0.9c-0.2,3.3-1.6,7.5-3.6,9c-0.1,0-0.2,0-0.4,0
		C399.1,217,399.6,215.6,400.1,214.1z"/>
	<path class="st0" d="M252,258.1c2.5,3.1,6.7,3.9,8.4,4.1c0.8,0.1,1.5,0.1,2.2,0.1c2.1,0,3.9-0.4,5.5-1.1c1.2-0.5,2.4-1.2,3.6-2.6
		c0.8-0.9,1.2-2,1.4-2.7l0-0.1c0.2-0.5,0.4-1.2,0.4-2c0.1-1.1-0.2-2-0.4-2.6c0-0.1-0.1-0.3-0.1-0.4c-0.6-3-4-4.7-5.1-5.1
		c-2-0.9-4.2-1.3-6.7-1.3c-5.2,0-10.8,2.7-11.5,8c-0.2,1.7,0.3,3.4,1.5,4.8C251.5,257.5,251.7,257.8,252,258.1z M261.2,251.4
		c1.6,0,2.9,0.3,4.1,0.8c0.4,0.1,0.8,0.4,1.1,0.6c0,0.1,0.1,0.2,0.1,0.4c0,0.1,0.1,0.2,0.1,0.3c0,0,0,0,0,0.1l0,0.1
		c-0.1,0.2-0.1,0.4-0.2,0.6c-0.2,0.2-0.4,0.4-1.1,0.7c-1,0.4-2.4,0.6-4.1,0.4c-1.6-0.2-3.1-0.8-3.7-1.4l-0.6-0.8
		C257.4,252,259.5,251.3,261.2,251.4z"/>
	<path class="st0" d="M181.6,259.4c-0.6,4.5-0.4,9.6,0.7,15.7c0.3,1.6,0.6,3.3,0.9,4.9c1,5.3,1.9,10.3,1.6,15.4
		c-0.3,4.7-2.2,8.9-4.1,13.3c-0.6,1.3-1.2,2.7-1.8,4.2c-1.1,2.6-0.4,5.3,1.9,7.1c1.8,1.4,4.8,2.2,7.6,2.2c2.3,0,4.6-0.5,6-1.6
		c4.2-3.2,7.2-7.5,9.1-12.6c0,0.3,0,0.6,0,1c0,2.9,1.7,5.3,4.7,6.5c1.5,0.6,3.3,0.9,5.1,0.9c3.1,0,6.2-0.9,8-2.7
		c5.8-6,6.2-15.2,5.5-21.9c-0.2-1.8-0.5-3.5-0.9-5.1c-0.2-1.3-0.5-2.5-0.6-3.6c0.1-0.1,0.1-0.1,0.2-0.2c0,0.5,0.1,1,0.2,1.5
		c0.5,2.5,2.5,4.5,5.6,5.6c3.3,1.2,8.3,1.3,11.5-0.2c0,0.2,0,0.3,0,0.5c0.1,1,0.2,2,0.3,3c0.7,5.8,1.3,11.2-1.7,15.6
		c-1.9,2.7-1.3,5.9,1.4,8c2.1,1.6,5.8,2.7,9.4,2.7c3.2,0,6.2-0.8,7.9-2.9c2.4-2.8,3.6-5.8,4.3-8.9c3.8,6.3,10.4,10.5,18.7,11.1
		c0.6,0,1.3,0.1,1.9,0.1c5.8,0,11-2.2,14.5-6.1c0.3-0.3,0.5-0.6,0.8-0.9c-0.2,0.6-0.3,1.3-0.5,2c-0.6,2.3-1.3,4.8-1.2,7.3
		c0.1,2.9,2,5.3,5.2,6.4c3.7,1.3,9.4,0.9,12.1-2c2.4-2.7,3.7-6.3,4.4-10c0.2,0.7,0.4,1.4,0.6,2.1c3,8.8,13.1,12,21.6,12
		c0,0,0,0,0.1,0c2.8,0,6.2-1.3,7.2-4.2c0.3-0.8,1-3.7-2.2-6.2c-1.2-0.9-2.4-1.6-3.4-2.2c-1.8-1-2.8-1.6-3.2-2.7
		c-0.6-1.6-1-3.3-1.5-5.1c-0.5-2.1-1.1-4.2-1.9-6.4c-1.5-3.8-3.5-7.9-6.7-11.3c1.6-2,3.1-3.9,4.8-5.7c2.6-2.7,9.6-9.9,5.7-19.2
		c-1.9-4.6-9.4-6-13.5-4.9c-3.4,1-5.4,3.7-4.9,7c0.3,1.9-0.8,3.8-2.4,5.6c-0.1-8.9,0.8-18.3,4.4-27.9c1-2.8-0.2-5.6-3.1-7.2
		c-4.2-2.3-12.9-2.6-15.8,1.4c-6.4,8.6-7.9,19-7.7,29.2c-0.3-0.3-0.6-0.6-1-0.9c-4.8-3.9-12.2-5.3-18.8-3.6
		c-7.3,1.9-11.9,7.2-14.6,13.6c0.5-1.7,1.2-3.5,2.2-5.2c1.7-2.8,0.8-6-2.2-7.9c-3.9-2.5-12.1-3.2-15.1,1.1c-1.4,2-2.6,4.1-3.5,6.3
		c-2.1-2.6-5.1-4.8-7.8-6c-4.5-2-9.7-2.5-14.5-1.4c-3.5-1.1-8.9-1.4-11.6,1.3h0c-6.5,6.3-6.3,14.1-5.6,20.9c0.3,2.7,0.5,6,0,9.3
		c-0.1,0.5-0.2,1-0.3,1.5c0.5-4.9,0.1-10.3-1-16.2l-0.4-2.3c-1.7-8.7-3.3-17-1.2-24.9c1-0.1,1.9-0.1,2.8-0.1c2.5,0,5.2,0.4,8.1,1.1
		c0.6,0.2,1.4,0.4,2.2,0.8c1.6,0.6,3.5,1.3,5.4,1.4c0.9,0.2,1.9,0.2,2.9-0.2c2.9-1,4.6-4.5,4.8-4.8c1.6-3.4,1.8-7.6,0.6-11
		c-2.3-6.5-10.7-7.8-15.7-8.6l-0.5-0.1c-6.5-1-12.9,0-18.3,1.1c-1.6,0.3-3.2,0.7-4.8,1c-8.9,2-18.2,4.1-25.9,0.1
		c-3-1.5-6.1-0.6-8,2.5c-2.4,3.8-3,12.1,1.1,15.2C165.1,259.9,173.9,260.3,181.6,259.4z M311.1,245c1.2-0.6,4.8-0.5,6.5,0.1
		c-4.7,13.3-4.8,25.8-4.2,37.4l6,2.3c0.6-0.6,1.2-1.2,1.9-1.8c3.8-3.5,8.9-8.2,8.4-14.7c1.4-0.3,4.3,0.3,5,1.1
		c1.4,3.6,0.2,6.8-4.3,11.5c-2.2,2.3-4.1,4.7-6,7.1c-0.5,0.6-0.9,1.2-1.4,1.7l0.7,5c2.8,2.1,4.9,5.3,7.1,10.7
		c0.7,1.7,1.2,3.6,1.6,5.5c0.5,1.9,1,3.9,1.7,5.8c1.1,2.9,3.2,4.5,5.1,5.6c-5.1-0.6-10.4-2.7-11.9-7.1c-0.6-1.8-1-3.8-1.4-6
		c-0.4-1.9-0.7-3.9-1.3-5.9c-0.1-0.4-0.2-0.8-0.4-1.3c-0.4-1.5-0.9-3.2-1.6-4.9l-4.7-1.9c-0.1,0.1-0.4,0.2-1,0.3l-2.8,3.5
		c0,1.8,0,3.4-0.1,4.9c-0.2,4.9-0.6,13.2-3.7,16.7c-0.9,0.7-4.3,0.6-5.2-0.1c0-1.5,0.5-3.2,1-5c0.4-1.6,0.9-3.2,1.1-4.9
		c0.4-2.9,0.5-6.1,0.4-9.8c-0.1-5.6-0.8-11.1-1.5-16.4c-0.2-1.3-0.3-2.5-0.5-3.8C304.3,267.9,304,254.8,311.1,245z M299.4,285.9
		c0.3,2.2,0.5,4.5,0.8,6.7c-1.7-1.1-3.8-1.7-5.7-1.9c-4.3-0.4-7.7,1-8.8,3.7c-0.5,1.1-0.9,2.4-1.3,3.8c-0.4,1.3-0.9,2.9-1.5,4.2
		c0,0,0-0.1-0.1-0.1c-0.8-1.7-1.2-3.8-1.3-6.3c0-5.1,0.9-10,2.6-13.5c0.3-0.7,0.6-1.2,0.9-1.7c1,4.3,6.7,6.1,10.6,6
		C297.1,286.8,298.4,286.4,299.4,285.9z M279.9,272.1c1.3-0.3,2.6-0.5,3.9-0.5c3.3,0,6.6,1,8.8,2.7c1.7,1.4,2.7,3.3,2.8,5.5
		c-1.2,0.1-3.1-0.4-3.8-0.9c-0.2-1.3-1.1-5.2-3.9-6.7c-1.4-0.7-2.4-0.3-3.7,0.1l-0.1,0c-3.1,1.1-5,4.4-6.3,7.1
		c-2.9,6.1-3.2,13-3.2,16.6c0,3.6,0.7,6.6,1.9,9.3c0.7,1.4,1.8,3.4,3.6,4.8c-0.7-0.5-1.3-1.8-0.9-3l1.4,3.9l4.2-0.3
		c0.1,0,0.2-0.1,0.5-0.3c3.3-2.1,4.6-6.4,5.7-10.1c0.3-0.9,0.6-1.8,0.8-2.5c1.1-0.3,3.5,0,4.4,0.6c0.7,3.8-0.1,7.2-2.3,9.7
		c-2.4,2.7-6.1,4-10.6,3.7c-9.5-0.7-15.7-7.6-15.7-17.3C267.7,285.6,270.9,274.4,279.9,272.1z M249.9,292.3c-0.1-1-0.2-1.9-0.3-2.9
		c-0.7-6.9,0.8-12.9,4.6-18.4c0.9-0.5,3.5-0.3,5,0.3c-4.5,8.5-3.3,16.5-2.1,24.9l0,0.2c1,6.5,0.9,11.4-2.5,15.5
		c-1.1,0.8-5,0.5-7-0.3C251.4,305.3,250.6,298.4,249.9,292.3z M246.9,312.7L246.9,312.7l-2.9-2L246.9,312.7z M211.4,303.3
		c0.4-1.5,0.8-3.1,1.1-4.8c0.6-4.1,0.4-7.9,0-11.1c-0.7-6.9-0.4-11.3,3.4-15.1c0.8-0.4,3.5-0.3,5.3,0.4l2.3,0.1
		c3.5-1,7.5-0.8,10.9,0.7c3.3,1.5,6.3,4.5,6.6,6.8c0.1,0.7,0,1.6-1.4,2.8c-1.4,0.9-6.3,0.5-7.3-0.6c-0.1-0.5-0.1-1.1,0-1.8
		c0-0.6,0.1-1.3,0-2.1c0-0.8-0.3-1.5-1.1-3.6l-4.8-1.9l-0.5,0.2c-1,0.4-1.4,0.7-1.8,0.9c-1.2,0.9-3.3,2.7-5.3,4.9l-0.9,2.6
		c0.2,2,0.5,4,0.9,5.9c0.3,1.6,0.6,3.1,0.8,4.5c0.5,4.2,0.6,12-3.5,16.2c-1.1,0.8-4.8,0.8-5.8,0.1
		C210.4,307,210.9,305.2,211.4,303.3z M222.3,251.9c0.3,0,0.6,0.1,0.9,0.2L222.3,251.9z M161.7,248.6c-0.6-1-0.4-4,0.2-5.5
		c9.7,4.5,20.4,2.1,29.8,0c1.6-0.4,3.1-0.7,4.7-1c4.8-1,10.4-1.9,15.8-1l0.5,0.1c3.2,0.5,9.3,1.4,10.2,4c0.6,1.7,0.5,4-0.3,5.7
		c-0.1,0.3-0.4,0.7-0.7,1l0,0c0,0,0,0,0,0c-0.8,0-2.2-0.5-3.5-1c-1-0.4-1.9-0.7-2.9-1c-3.5-0.9-6.8-1.3-9.8-1.4
		c-1.8,0-3.8,0.1-5.9,0.4l-2.8,2.3c-3.6,10.4-1.6,20.7,0.3,30.6l0.4,2.3c1.9,10,2.2,23.4-7.3,30.8c-0.9,0.4-3.2,0.2-4.5-0.2
		c0.5-1.1,0.9-2.1,1.4-3.1c2.2-4.8,4.4-9.7,4.8-15.7c0.3-5.9-0.7-11.6-1.8-17.1c-0.3-1.6-0.6-3.2-0.9-4.8
		c-1.2-7.6-1.2-13.2,0.3-17.7l-4-4.5C177.8,253.1,168.9,253.9,161.7,248.6z"/>
	<path class="st0" d="M422.4,288.6c-4.1-4.1-11.5-5-17.4-3.9c-1.9-1-4.3-1.3-6-1.3c-2.6,0-4.6,0.7-5.9,2.1c-1.8,2-3,4-3.6,6.1
		c-2-2.3-4.6-4-7.6-4.8c-5.1-1.5-12.6-1-17.3,2.7c-2.8,2.3-4.2,5.4-4,9.1c0,0.1,0,0.1,0,0.2c-3.3,9.1-2.5,17.1,2.4,22.2
		c3.4,3.5,8,5.4,12.9,5.4c1.3,0,2.6-0.1,4-0.4c2.9-0.6,5.5-1.8,7.6-3.5c0.6,2.1,2.4,4.2,6.1,5.3c1.3,0.4,2.7,0.6,4.1,0.6
		c3.2,0,6.3-1.1,7.6-3.7c2.5-5.1,3.4-11,2.5-18.3c-0.2-1.5-0.5-3.1-0.9-4.6c0,0,0,0,0-0.1c0.3-0.5,0.7-1,1-1.4
		c2.6,2.5,8,3.9,11.7,2.9c2.6-0.7,4.4-2.4,5.1-4.7C425.9,294.6,425,291.2,422.4,288.6z M370.5,316.9c0.3,0.6,0.7,1,1,1.4
		c-1.2-0.5-2.3-1.3-3.3-2.3c-4.4-4.5-1.8-12.5-0.6-15.7l0-2.5c0,0,0.1,0.1,0.1,0.3c-0.1-1.4,0.3-2.4,1.4-3.2
		c1.1-0.9,2.7-1.4,4.4-1.7c-1,0.9-1.7,2.1-2.3,3c-0.3,0.5-0.6,0.9-0.9,1.3l-0.7,1.4c-0.7,3.3-1.1,6.7-1.1,9.7
		C368.6,311,368.8,314.1,370.5,316.9z M375.6,310c0-0.4,0-0.9-0.1-1.4c0-2.1,0.2-4.4,0.6-6.8c0,0.3,0.1,0.7,0.1,1.1
		C376.6,305.5,376.3,307.9,375.6,310z M373.9,296.1c-0.4-1.1-0.2-2.2,0.2-3c1.1-0.1,2.3-0.2,3.4-0.1L373.9,296.1z M386.6,312.5
		c-1.2,3.3-4.2,5.7-7.9,6.5c-0.2,0-0.5,0.1-0.7,0.1c1.5-1,2.8-3,4-5.9c1.3-3.2,1.7-7,1.4-10.9c-0.3-3.8-1.1-6.6-2.3-8.5
		c2.2,0.9,3.8,2.5,5,4.9C388,302.6,388.2,308.2,386.6,312.5z M418.2,296.2c-1.1,0.4-4.3-0.3-5.2-1.1c-0.4-0.5-0.5-0.7-0.5-0.7
		c0,0,0,0.1,0.1,0.3L407,292c-0.2,0.2-0.5,0.3-0.7,0.4c-0.7,0.4-1.7,1-2.6,2c-1,1.1-1.9,2.4-2.7,3.6c0.2-0.3,0.4-0.5,0.4-0.5
		l-1.5,3.6c0.1,0.6,0.3,1.2,0.4,1.8c0.3,1.4,0.6,2.7,0.7,3.9c0.6,5.7,0.1,10.3-1.7,14.1c-1.1,0.4-3.8,0.1-4.8-0.6
		c0.2-1.8,0.4-3.7,0.7-5.5c0.6-4.1,1.1-8.3,0.8-12.8l0-0.1c-0.4-5.5-0.5-8.6,2.1-11.5c0.9-0.3,3.2,0,3.8,0.5c0,0,0,0-0.1-0.1l3.5,1
		c4.5-1.3,9.9-0.5,12.2,1.7C418.2,294.3,418.4,295.1,418.2,296.2z"/>
	<path class="st0" d="M573.1,289.5c-0.9-3.7-1.6-7.3-1.4-10.5l-5.7-3c-1.9,1.5-3.5,3.2-4.9,5.2c-2.9,4.1-4.7,9.2-5.5,14.9
		c-0.4,2.9-0.7,5.9-0.2,8.8c0.3,1.9,0.9,3.4,1.7,4.7c-0.5-0.8-0.7-2.4,0.5-3.6l-0.3,4.5l4.4,1c-0.2,0.1-0.4,0.2-0.4,0.2
		c0.1,0,0.1,0,0.3-0.1c7-1.1,10-10.3,11.3-14.2c0,0.1-0.1,0.2-0.1,0.2l1.3-3.5C573.8,292.6,573.5,291.1,573.1,289.5z M566.3,295.3
		c-1.5,4.7-2.9,7.1-4,8.3c-0.3-1.9-0.1-4.3,0.2-6.5v0c0.5-3.6,1.5-6.8,2.9-9.6c0.2,1.2,0.5,2.4,0.8,3.6c0.2,1,0.4,1.9,0.7,2.9
		C566.7,294.4,566.5,294.8,566.3,295.3z"/>
	<path class="st0" d="M342.6,381c2-2.4,3.7-5.5,4.2-8.8c0.4-3.1-0.4-6-2.3-8.5c-5.3-6.9-16.5-8.1-24.6-6.3
		c-7.7,1.7-14.4,6.7-17.8,13.5c-0.4,0.8-0.7,1.6-1.1,2.4c-0.5-3.9-1.6-7.9-2.6-11.8c-2.3-8.9-4.5-17.3-1-24.6
		c1.2-2.4,0.7-5.7-2.9-7.6c-3.7-2-10.3-2.2-12.6,1.8c-5.5,9.5-4.8,18.8-3.4,28c-6,0.2-11.9,2.4-16.2,6.3c-4.2,3.7-7,8.7-8.5,14.7
		c-0.3-4.4,0.2-8.7,2.6-11.7c1.7-2.1,1.5-4.9-0.5-6.7c-0.8-0.7-2-1.3-3.4-1.7c1.5-0.2,2.8-0.7,3.9-1.5c1-0.7,2.4-1.9,3.4-3.5
		c1-1.5,1.2-3.3,0.6-5l-0.3-0.6c-0.1-0.2-0.2-0.5-0.3-0.7c-0.7-1.4-1.7-2.5-2.9-3.3c-0.6-0.4-1.1-0.6-1.6-0.9
		c-0.2-0.1-0.3-0.2-0.5-0.3l-2.1-0.8l-2.3-0.5l-0.2,0c-2-0.2-3.9-0.1-5.7,0.3c-1,0.3-2.4,0.7-3.7,1.8c-0.8,0.6-1.4,1.4-1.7,2.3
		c-0.4,0.9-0.5,1.8-0.4,2.7c-0.1,0.5-0.1,1-0.1,1.5c0.1,2.5,1.4,4.6,3.7,6.3c1,0.7,2.3,1.3,3.7,1.7c-1.5,0.3-2.8,0.8-3.8,1.7
		c-5.7,5.5-7.4,11.5-7.6,17.5c-0.3-2-0.6-4-1-6c-1.9-11.3-3.8-22,1.6-31c1.5-2.5,0.7-5.5-1.9-7.3c-3.4-2.2-10.4-2.8-13.1,0.9
		c-6.3,8.7-7.5,18.2-7.5,26c-2.5,0.6-5,0.6-7.8,0.7c-1.4,0-2.9,0.1-4.5,0.2c2.7-7,5.2-15.2,1.2-23.9c-2.1-4.5-9.8-5.8-13.7-4.4
		c-3.2,1.1-4.8,3.8-4.1,6.9c1.2,5.7-1.4,11.7-3.9,17.4l-0.1,0.1c-2.8,6.4-4.3,12.6-4.9,19.4c-0.6,7-1.4,12.9-3.5,18.8
		c-0.9,2.6-2.1,5.4-3.5,8.6c-0.3,0.6-0.6,1.4-0.9,2.2c-0.5,1.2-1.1,3-1.7,4.1c-1.2,0.8-2.1,2-2.5,3.4l-0.1,0.4
		c-0.5,1.7-0.2,3.4,0.8,4.8c2.8,3.8,10.1,3.9,10.2,3.9h0c8.9-0.1,12.1-7.8,14.5-13.5c0.3-0.7,0.6-1.4,0.9-2.1
		c3.7-8.5,5.9-16.2,6.5-23.7c0.2-2.4,0.4-4.6,0.7-6.5c3.7-1.1,7.6-0.8,11.9-0.6c1.4,0.1,2.7,0.2,4.1,0.2c0.5,0,1,0,1.4,0
		c0.1,0.8,0.1,1.6,0.2,2.4c0.5,6.1,0.8,13.1-1.7,19.4c-1,2.5-2.4,4.8-4.1,6.8c-0.4,0.4-0.8,0.9-1.4,1.4c-1.6,1.5-3.5,3.3-4.1,6.3
		c-0.3,1.6,0.1,3.1,1.2,4.4c2.6,3.1,8.3,3.1,8.4,3.1c5.6-0.1,10.6-2.4,14.5-6.4c2.5-2.7,4.4-6,5.8-9.5c-0.2,1.3-0.2,2.6,0.1,4
		c0.4,1.9,1.7,3.5,3.7,4.4c1.4,0.7,3.2,0.9,4.9,0.9c2.2,0,4.3-0.5,5.7-1.2c4.1-2.2,6.2-5.8,7.3-9.7c0.6,1.4,1.5,2.7,2.6,3.9
		c4.3,4.5,10.8,5.9,14.3,6.4c2.9,0.4,6,0.4,8.9,0c1.4,0.4,3.2,0.7,5,0.7c3.3,0,6.6-0.9,8.3-3c3.6-4.5,5.1-10.6,6.4-16.6
		c0.4,1.2,0.8,2.5,1.3,3.6c3,6.8,8.3,11.4,15.2,13.3c2.5,0.7,5.1,1,7.7,1c7.5,0,15.2-2.7,20.4-7.4c5.5-5,7.8-11.7,6.5-19
		C350.5,383.8,347.2,381.5,342.6,381z M221.8,410.4c-2.6,2.8-5.7,4.2-9.6,4.2c-0.4,0-1.2-0.1-1.9-0.3c0.4-0.4,0.9-0.9,1.4-1.4
		c0.6-0.6,1.3-1.2,1.9-1.9c2.2-2.6,4-5.5,5.2-8.8c3-7.6,2.7-15.6,2.2-22.5c-0.1-1.7-0.3-3.5-0.4-5.2l-0.1-0.6l-3.7-3.2
		c-1.3,0.1-2.6,0.1-4.1,0.1c-1.3,0-2.6-0.1-3.9-0.2c-5.4-0.3-11.1-0.7-16.9,1.7l-2.1,2.7c-0.4,2.7-0.8,5.6-1.1,9.1
		c-0.6,6.8-2.5,13.6-5.9,21.5c-0.3,0.7-0.6,1.4-0.9,2.2c-2.6,6.2-4.3,9.2-8.1,9.2c-0.7,0-2.2-0.3-3.3-0.6l0.2-0.1
		c1.3-1.7,2.3-4.3,3.1-6.4c0.3-0.7,0.5-1.4,0.7-1.8c1.5-3.4,2.7-6.4,3.7-9.2c2.3-6.6,3.2-13,3.9-20.6c0.5-6.1,1.9-11.5,4.4-17.2
		l0.1-0.1c2.7-6.2,5.7-13.2,4.5-20.6c1.4-0.1,3.8,0.4,4.5,1.1c2.5,5.6,1.3,11-1.6,18.5c-0.7,1.7-1.3,3.5-1.8,5.4l3.9,4.5
		c1.3-0.2,2.6-0.4,4.1-0.5c1.7-0.1,3.4-0.2,5.1-0.2c3.9-0.1,8-0.1,12.5-1.8l2.3-3.4c-0.3-7.5,0.3-16.1,5.9-24c0.6-0.2,1.7-0.1,2.6,0
		c-5.5,10.8-3.5,22.6-1.5,34.1c0.9,5,1.7,9.8,1.8,14.3C228.7,395,227.1,404.8,221.8,410.4z M234.9,397.2c0,0.1,0,0.2-0.1,0.3
		c0-0.1,0.1-0.3,0.1-0.4C234.9,397.1,234.9,397.2,234.9,397.2z M245.8,349.6L245.8,349.6L245.8,349.6l0.1-0.2c0,0.1,0,0.2-0.1,0.3
		L245.8,349.6z M245.6,349L245.6,349l-0.1-0.3C245.6,348.9,245.6,348.9,245.6,349z M245.6,349.9C245.6,350,245.6,350,245.6,349.9
		c0,0.1,0,0.1-0.1,0.1L245.6,349.9z M245.4,350.5l0.1-0.2c0,0,0,0,0,0C245.5,350.4,245.4,350.5,245.4,350.5z M247.7,388.2l0.2,1.5
		c1.3,9.9-0.1,15.8-4.1,17.9c-0.8,0.4-3.2,0.5-4.2,0.2c-0.2-1.4,0.4-3,1-4.9c0.5-1.5,1-3.1,1.3-4.8c0.6-3.9,0.3-7.8,0-11.5
		c-0.1-0.9-0.1-1.7-0.2-2.6c-0.5-7.2,0.3-12.7,5.2-17.6c0.5-0.2,1.6-0.2,2.5-0.1C245.7,373.2,246.8,381.5,247.7,388.2z M247.1,366.4
		C247.1,366.4,247.1,366.4,247.1,366.4L247.1,366.4C247.1,366.4,247.1,366.4,247.1,366.4z M249.8,353.2c-1.5-0.1-2.7-0.4-3.4-0.9
		c-0.8-0.5-0.8-0.8-0.8-0.9c0,0.2,0,0.4-0.1,0.4l0.2-1.6c0.1-0.1,0.3-0.1,0.5-0.2c0.9-0.2,1.9-0.3,2.9-0.2l1.5,0.3l1.2,0.4
		c0.1,0.1,0.3,0.1,0.4,0.2c0.4,0.2,0.7,0.4,1,0.5c0.1,0.1,0.3,0.2,0.5,0.6c-0.3,0.3-0.7,0.7-1.1,1
		C252.2,353.1,251.5,353.3,249.8,353.2z M279.8,388.9c-0.6,3.2-1.5,6.2-2.6,9.5l-0.1,0.4c-1.6,1.2-2.5,1.5-2.9,1.6
		c-0.5-0.8-0.9-3-0.5-8.8c0-0.5,0.1-0.9,0.1-1.3c0.1-3.3,1-8.2,2.9-12c1.4-2.7,2.9-4.1,4.1-4.8C281.1,378,280.8,383,279.8,388.9z
		 M293.3,392.9c-0.8,4.3-2.1,10.8-5.1,14.7c-0.9,0.5-4.3,0.8-6.3,0l-1.9-0.2c-2.5,0.4-5.2,0.5-7.7,0.1c-4.3-0.6-8.1-2.2-10.1-4.3
		c-1.8-1.9-2.3-4.4-2.5-8.4c-0.5-11,2-19.1,7.4-24.1c3.5-3.1,8.2-4.7,13.1-4.5c-4,1.1-7.4,4.1-9.8,8.9c-2.1,4.1-3.4,9.7-3.6,14.9
		c0,0.3,0,0.7-0.1,1.1c-0.3,5.1-0.9,14.6,5.8,16.1c2.9,0.6,6.1-0.6,9.8-3.7l1.1-1.6l0.4-1.4c1.1-3.3,2.2-6.7,2.8-10.4
		c1.3-7.6,1.6-13.9,0.8-19.8c-0.1-0.5-0.1-1-0.2-1.5l-3.4-3c-0.4,0-0.7,0-1,0l3.4-3.5c-1.6-9.5-3.2-18.6,1.6-27.2
		c0.7-0.2,1.9-0.1,2.8,0.2c-3.8,9.3-1.2,19.2,1.1,28c1.2,4.4,2.2,8.5,2.6,12.4C294.8,381.2,294.4,386.9,293.3,392.9z M339.8,400.9
		c-5.2,4.8-14.3,6.8-21.6,4.8c-6.1-1.7-9.2-6-10.7-9.4c-2.9-6.6-2.6-15.5,0.8-22.2c2.5-4.9,7.4-8.6,13.1-9.9
		c1.7-0.4,3.5-0.5,5.3-0.5c4.9,0,9.9,1.4,12.3,4.3c0.7,0.9,1,2,0.8,3.2c-0.4,2.9-2.9,6-5,7.6c-3.1,2.4-7.2,3.6-12.7,3.8
		c1.6-0.4,3.3-1.1,4.8-2.3c1.8-1.3,5.5-5.5,6.1-9.5c0.3-2.3-0.4-3.8-1.1-4.8c-0.8-1.1-2-1.7-3.3-1.9c-3.3-0.3-7.1,2.8-8.5,4.1
		c-3.5,3.2-5.3,7.4-6.1,10.4l2.9,3.8c-0.1,0-0.2,0-0.3,0l-3.7,3.3c-0.1,2.6,0,5.2,0.5,7.7c1.4,7.2,3.9,11.2,7.5,12.3
		c5.2,1.6,10.6-3.3,12.9-6.4c2.5-3.4,3.8-7.4,5-11c1.1-0.7,4.3-0.5,5.4,0.2C345.1,394.6,342.3,398.6,339.8,400.9z M331.5,388.3
		c-0.9,2.6-1.9,5-3.3,7c-1.8,2.4-4.5,4.1-5.2,3.9c0,0-1.5-0.9-2.7-6.9c-0.2-0.8-0.3-1.6-0.3-2.5
		C323.5,389.8,327.5,389.5,331.5,388.3z"/>
	<path class="st0" d="M409.7,380.3c-2.5-1.9-7.7-2-10.6-0.2c3.4-5.1,6.2-12.5-1.3-19.7c-4.1-4-16.5-7.1-22.4-3.5
		c-1.5,0.9-4.9,3.8-3,9.7c1.6,5.3,3.9,10.3,5.9,14.5c-3.1,3-6.4,6.5-7.9,11.3c-1.8,5.7-0.6,10.8,3.4,14.4c3.4,3.1,8.6,4.8,13.8,4.8
		c3,0,6-0.5,8.7-1.7c0.4-0.2,0.9-0.4,1.4-0.6c2.9,0.7,7.7,0.9,10.3-1.3c1.4-1.3,2-3,1.6-4.9c0-0.7-0.1-1.4-0.3-2.1
		c3.8-4,5.7-8.1,5.5-11.9C414.8,386.9,413.8,383.4,409.7,380.3z M387.8,398.8c0,0,0-0.1,0-0.1C387.8,398.7,387.8,398.7,387.8,398.8
		C387.8,398.7,387.8,398.8,387.8,398.8z M402.6,403C402.6,403,402.6,402.9,402.6,403c0-0.2,0-0.3,0-0.3L402.6,403
		C402.7,403,402.6,403,402.6,403z M402.7,404.2l0,0.5C402.7,404.6,402.7,404.4,402.7,404.2z M402.8,397.8l-0.6,4.5
		c0.2,0.3,0.3,0.6,0.4,0.7c-1.1,0.1-2.8-0.1-3.5-0.3l0,0l-3.2,0c-0.8,0.4-1.5,0.7-2.1,1c-0.3,0.1-0.7,0.3-1.1,0.4
		c0.1-0.1,0.2-0.1,0.3-0.2l0.5-0.3c0.3-0.2,0.7-0.4,1.2-0.8l1.1-4.8c-0.7-1.1-1.6-2.5-2.4-3.6c-0.5-0.7-1.1-1.6-1.2-1.8
		c-0.8-1.4-1.5-2.8-2.3-4.2l-6-0.3c-0.6,0.8-1,1.6-1.4,2.2c-1.8,3.4-2.3,7.4-1.4,10.7v0c0.3,1.3,0.8,2.2,1.4,2.9
		c-1.5-0.5-2.9-1.2-3.9-2.1c-1.9-1.8-2.4-4.1-1.4-7.2c1.1-3.4,3.8-6.1,6.6-8.9c0.4-0.4,0.9-0.9,1.3-1.3l0.7-4
		c-2.1-4.3-4.8-10-6.6-15.8c-0.4-1.4-0.1-1.6,0-1.7c0.7-0.4,2.1-0.6,3.7-0.6c-1.5,2.1-0.4,4.8,0.2,6.1c0.8,1.9,1.6,3.8,2.6,6
		l6.5-0.4c0.8-2.3,0.9-4.6,0.4-6.7c-0.2-1-0.8-2.1-1.4-3.1c0.8,0.4,1.4,0.8,1.9,1.2c4,3.8,3.4,7.3-2.4,14.3l-0.4,3.9
		c1,1.9,1.9,3.6,2.9,5.2c1.2,2.1,2.6,4.2,4.2,6.7l5.5,0.4c2.6-2.9,3.8-5.6,3.6-8.2c0-0.4-0.1-0.8-0.2-1.2c1.6,1.4,1.6,2.6,1.6,3
		C408,391.7,406.1,394.7,402.8,397.8z"/>
	<path class="st0" d="M629,415.3L629,415.3c-2.2-2-5.5-3.2-9-3.5c-0.3-0.2-0.6-0.3-1-0.5c-0.7-0.3-1.3-0.5-1.9-0.7
		c-0.5-0.2-1-0.3-1.4-0.5c-0.5-0.6-1-1.2-1.5-1.9c-0.2-0.3-0.5-0.6-0.7-1c-0.2-0.5-0.4-1-0.6-1.6l0-0.1c-0.6-1.7-1.1-3.5-1.6-5.4
		c-0.8-3.2-1.7-6.5-3.3-9.8c-1.4-2.8-3.2-5.3-5.4-7.3c1.3-0.7,2.7-1.5,4.1-2.5c8.9-6.3,13.2-12.7,13.4-19.7c0.1-4-3.8-7.1-9.5-7.5
		c-5.1-0.4-8.8,1.9-9.2,5.6c-0.3,2.7-2.3,5.3-6.1,8c0.3-2.9,0.7-5.7,1.2-8.7c1.1-6.7,1.4-14.1-3.9-21.9c-2.9-4.2-12.5-4.6-16.3-2.3
		c-2.6,1.5-3.4,4.4-2.1,7c2.6,5,1.5,10.2,0.4,16.1l-0.2,1.2c-1.3,6.8-1.4,13.8-1.4,19.6c0,3.6,0.1,7.1,0,10.6
		c-1.1-1.9-3.2-3.3-6-3.9c-1.2-0.2-2.4-0.3-3.6-0.3c2.6-4.5,3.8-9.9,1.9-14.9c-3.2-8.5-13.9-11.9-22.5-10.3
		c-7.2,1.4-13.4,6.8-17,15.1c-2,4.6-3.2,9.6-3.5,14.6c-0.2-0.1-0.4-0.2-0.7-0.3c-2.3-0.8-5.3-0.9-7.9-0.2c7.6-4.4,11.2-12.3,9-19.6
		c-2.6-8.4-11.2-12.1-18.4-11.9c-7.2,0.1-13.9,4.1-19.2,11.4c-2.1,2.8-3.6,6-4.5,9.3c-2.8-4.3-7.3-7.4-13.2-8.8
		c-0.9-0.2-1.8-0.3-2.6-0.4c-1.7-0.2-2.6-0.4-3.2-1c-1.5-1.4-2.6-3.7-3-6.1c-0.6-4,1.4-7.7,5.3-10c0,0,0,0,0,0.1
		c0.4,1.3,0.4,2.5,0,3.6c-0.8,2.5,0.1,5.8,4.7,7.7c4.6,1.9,12.2,2,14.5-2.6c4.6-9.1,1.1-15.2-1.4-18c-5.9-6.7-18.2-9.2-28-5.7
		c-8.1,2.8-14,8.7-16.2,15.9c-2.1,6.7-0.7,13.8,3.8,20c2.5,3.4,5.9,6.1,9.8,7.9c1.7,0.8,3.6,1.1,5.5,1.4c1.4,0.2,3.5,0.6,4.1,1
		c0.8,0.6,1.3,4.2,0.3,8.7c-0.7,3.3-2.3,6.3-4.3,8c-2.2,1.9-6,3.1-8.2,2c-1-0.5-1.9-1.6-2.3-2.8c-0.2-0.5-0.3-1.3,0.1-2
		c0.6-1.1,2.4-2.4,3.9-3.4c0.7-0.5,1.4-0.9,2-1.4c3.3-2.5,2.4-5.4,2.1-6.2c-1.9-4.5-10.5-5.1-11.9-4.9c-8.3,1.2-13.6,4.3-16.4,9.4
		c-3.6,6.8-0.3,14.3,4.5,18.9c4.8,4.5,12.8,7.9,22.2,7.9c4,0,8.3-0.6,12.7-2.1c7.7-2.6,13.6-8.3,16.3-15.4c1.6,4.7,4,9.4,7.9,12.7
		c4,3.4,9.4,5.2,14.8,5.2c3.4,0,6.7-0.7,9.8-2.1c4-1.9,8-5.5,10.5-9.9c0.1,0.1,0.1,0.3,0.2,0.4c2.9,6.4,8,10.9,14.6,12.9
		c2.8,0.8,5.5,1.3,8.2,1.3c4.4,0,8.7-1.2,12.4-3.4l-0.1,0.5c-0.1,1.9,0.5,3.5,1.8,4.9l0.8,0.7c2.9,2.6,8.9,4.7,13.9,3.9
		c2.7-0.4,4.8-1.7,6.2-3.6c0.3-0.2,0.5-0.5,0.7-0.8c3.8-5,6.2-10.6,7.7-16.2c0.7,3.5,1.1,5.6,1.8,7c1.6,3.3,4.2,6.1,7.5,8.2
		c4.4,4.6,11.2,7.2,17.9,7.2c2.9,0,5.7-0.5,8.2-1.5c2.6-1,4.3-3,4.7-5.3C631.6,420.1,631.6,417.7,629,415.3z M463.2,408.1
		c-8.3,2.8-20.6,2.6-28-4.3c-2.9-2.7-5-6.9-3.1-10.4c1.7-3.1,5.3-5,11.1-5.8c0,0,0.1,0,0.1,0c0.5,0,1.3,0.1,2.2,0.3
		c-2.1,1.4-4.2,3.1-5.5,5.4c-1.2,2.2-1.4,4.8-0.6,7.3c0.9,2.9,3,5.5,5.7,6.9c5.2,2.7,12,0.6,16-2.9c3.2-2.8,5.6-7.1,6.6-11.9
		c0.7-3.5,1.9-12-3-15.7c-2-1.5-4.6-1.9-7.2-2.3c-1.4-0.2-2.9-0.5-3.7-0.8c-2.8-1.3-5.3-3.3-7.1-5.7c-3.2-4.4-4.2-9.2-2.8-13.8
		c1.6-5.1,6-9.3,11.9-11.4c7-2.5,16.5-0.7,20.5,3.7c2.3,2.6,2.5,5.9,0.6,9.9c-1.3,0.5-4.7,0.2-6.2-0.6c0.5-2.2,0.4-4.4-0.3-6.8
		c-0.3-0.9-0.8-1.7-1.6-2.9c-0.2-0.4-0.5-0.7-0.7-1l-4.3-1.5c-0.3,0.1-0.6,0.2-0.9,0.3c-0.7,0.2-1.4,0.4-2,0.7
		c-6.9,3.7-10.5,10.4-9.5,17.5c0.6,4,2.4,7.7,5.1,10.2c2.3,2.2,5,2.6,7.2,2.8c0.7,0.1,1.4,0.2,2,0.3c4,0.9,9,3.3,10.4,9.6
		C478.3,395,472.6,405,463.2,408.1z M511.4,408.7c-5.5,2.5-12.7,1.7-17.2-2.1c-5.1-4.2-6.9-12.7-7.5-17.4c-0.9-6.3,0.5-11.9,4-16.6
		c2.8-3.8,7.4-8.4,13.7-8.5c0.1,0,0.2,0,0.2,0c4.5,0,9.9,2.2,11.4,7c1.6,5-2.2,9.3-5.8,11.4c-2.5,1.4-5.2,2.1-8.2,2.2
		c3.1-1.3,5.8-4.1,7-6.6c1.2-2.3,1.6-4.8,1.2-7.1c-0.1-0.8-1.4-3.5-1.4-3.6l-2.3-0.6l0.5-2l-2.4-0.4l0-0.2l0,0.2l-0.5-0.1l-2.3,1.9
		l0.5,0.7l0,0c-1.3,1.1-2.6,2.5-3.9,4.3c-2.3,3.1-3.8,6.2-4.6,9.5l2.6,4.2l0,0l-3.3,2.7c0.2,6.2,2.1,12.7,5.3,17.8
		c0.6,1,1.3,2,2.2,2.8l4.1,0.6c2-1.1,3.5-2.8,4.6-4.3c1.1-1.5,2.1-3.1,2.9-4.6c0.9-1.6,1.8-3.1,2.8-4.4c0.3-0.2,1.6-0.6,3.2-0.4
		c1.2,0.1,1.9,0.5,2.2,0.7C520.6,401,515.9,406.6,511.4,408.7z M510.7,390c-0.4,0.3-0.8,0.6-1.1,1c-1.5,1.7-2.5,3.6-3.6,5.4
		c-0.8,1.4-1.6,2.7-2.4,3.9c0,0.1-0.1,0.1-0.1,0.2c-1.4-2.6-2.5-5.7-3.1-8.9C504,391.9,507.5,391.3,510.7,390z M557.3,409.9
		c-4.5,3.1-9.9,3.8-15.7,2c-4.7-1.5-8.2-4.5-10.3-9.1c-3.2-7-2.9-17.2,0.8-25.4c1.3-2.9,5-9.7,11.9-11c0.9-0.2,1.8-0.2,2.8-0.2
		c4.6,0,10.2,1.8,11.8,6.1c1.7,4.7-1.7,10.8-6,14.1c-2.7,2-6.1,3.2-9.8,3.2c3.3-1.6,5.9-5.6,6.7-7c1.2-1.9,1.9-3.8,2.2-5.6
		c0.3-1.5,0.4-3.1,0.2-4.7l0-0.2c-0.1-0.8-0.4-1.6-0.8-2.4l-5.2-1.3l-0.1,0.1c-2.1,1.6-3.6,3.9-4.7,5.7c-2.1,3.4-3.5,7.4-4.3,11.9
		l3.1,3.4l-3.8,3.3c0,3.2,0.4,6.2,1.3,9c0.6,2.1,1.6,4.7,3.4,7c0.2,0.3,0.4,0.5,0.8,0.8c0.2,0.2,0.8,0.7,0.9,0.9
		c-0.5-0.6-0.9-2-0.2-3.4c0.6-1.2,1.9-1.9,3.2-1.8c0,0,0,0,0,0c0,0,0,0,0.1,0l-0.6,7c5.1,0.5,9-5.4,10.9-8.2c2.3-3.4,4.3-7.5,6-12.1
		c0.9-0.5,3.6-0.4,4.7,0.2C566,399.7,562.6,406.3,557.3,409.9z M553.6,393.9c-1.1,2.3-2.2,4.5-3.4,6.3c-1.7,2.5-2.8,3.8-3.6,4.4
		c0,0-0.1-0.1-0.1-0.1c-0.1-0.1-0.2-0.2-0.2-0.2c-1-1.3-1.7-3.1-2.1-4.6c-0.3-1-0.6-2.1-0.7-3.2
		C547.1,396.4,550.6,395.5,553.6,393.9z M605.4,415.9l-0.8-0.7c-2.4-1.4-4.2-3.4-5.3-5.6c-0.4-0.8-1-3.9-1.5-6.4
		c-1-5.4-2.2-11.6-4.4-15.4l-5.4-0.9l-1.3,2.5c-0.7,9.3-2.4,19.8-8.8,28.2c0.1-0.2,0.3-0.3,0.3-0.3l-1.1,1.2
		c-0.1,0.2-0.4,0.7-1.7,0.9c-2.6,0.4-6.6-0.9-8.2-2.3l-0.1-0.1c0.1-0.2,0.2-0.4,0.3-0.6c0.1-0.1,0.3-0.2,0.8-0.3l1.9-1.3
		c2.5-3.4,4.8-7.1,6.8-10.9c0.7-1.3,1.3-2.7,1.7-3.7l0.2-0.8c1-7,1-14.4,0.9-21.3c-0.1-5.8,0-12,1.2-18.2l0.2-1.2
		c1.2-6.1,2.5-12.4-0.2-18.9c1.9-0.2,4.7,0.1,5.6,0.8c3.2,4.8,3.9,9.3,2.7,16.7c-0.9,5.5-1.5,10.8-1.9,16.1l5.1,3.4
		c6-3.2,14.1-8.3,15.4-16.2c1.2-0.4,3.9,0,4.9,0.7c-0.3,4.4-3.7,8.9-10.4,13.7c-1.3,1-2.8,1.7-4.4,2.6c-1.3,0.7-2.7,1.5-4.1,2.3
		l0.3,6c3.1,1.6,5.6,4.2,7.3,7.6c1.3,2.6,2,5.4,2.8,8.5c0.5,1.9,1,3.9,1.7,5.9l0,0.1c0.2,0.7,0.5,1.5,0.9,2.4l0.4,0.7
		c0.4,0.5,0.7,1,1.1,1.4c0.7,0.9,1.4,1.8,2.2,2.7l0.9,0.7c1.1,0.6,2.1,1,3.1,1.3c0.5,0.2,0.9,0.3,1.4,0.5c0.2,0.1,0.3,0.2,0.5,0.3
		l2,0.7c1.9,0,3.8,0.6,5,1.4C618,422.5,609.6,420.5,605.4,415.9z"/>
	<path class="st0" d="M637.2,263.6c-0.6-2.5-2-4.4-3.9-5c-1.6-0.6-3.4-0.2-4.8,1c-2.5,2-6,2.5-9.7,2.6c0-0.4,0-0.9,0.1-1.3
		c0.5-1.7,1.1-3.4,1.8-5c0.6-1.2,1.5-2.5,2.4-3.8c1.4-1.9,3-4.1,3.7-6.8c0.8-2.8-0.3-5.4-2.9-7.1c-4.4-2.8-13.6-3-16.8-0.3
		c-3.8,3.2-5.2,8.2-6.4,12.2l-0.2,0.6c-1.2,4.2-1.7,8.6-1.6,13.9c-4.8,1.8-8.9,4.4-12.7,7.1c-1.3,0.4-2.6,1.3-3.6,2.6
		c0-0.1,0-0.2,0.1-0.3c0.6-0.9,0.9-1.9,0.9-2.9c0.2-2.1-0.7-4.6-4.1-5.8c-3.1-1.6-6.9-1.3-9.6-0.6c-8.2,2.4-18.2,6.4-23.8,17.1
		c-0.6,1.1-1.1,2.3-1.7,3.5c0.1-1.8-0.2-3.6-1-5.3c-3.1-7.1-12.2-9.2-19.5-8.7c-5.9,0.4-11.6,2.7-16.4,6.6c-0.1-2-0.7-4-1.7-5.9
		c-2.4-4.2-7.3-7.6-12.8-8.9c-0.7-0.2-1.3-0.3-2-0.4c0.7-0.9,1.3-2,1.7-3.4c1-3.2,1-8-1.1-10.8c-3.7-5.2-10.4-6.3-15.7-7.3l-0.5-0.1
		c-5.2-0.9-10.6-0.9-17,0.1c-2.1,0.3-4.3,0.8-6.4,1.2c-8.1,1.6-16.5,3.3-22.8-0.8c-2.5-1.6-5.4-1.2-7.2,1.1
		c-2.7,3.4-3.2,11.7,0,14.9c6.1,6.1,13.3,7.4,19.8,7.3c-1.1,6-0.7,12.3-0.2,17.8c0.6,6.1,1.2,12.6,0.5,19.3
		c-0.2,2.5-0.8,5.1-1.5,7.8c-0.9,4-1.9,8.2-1.7,12.6c0.1,3,2.2,5.5,5.6,6.6c1.4,0.5,3,0.7,4.6,0.7c3,0,6.1-0.9,7.8-2.9
		c2.7-3.1,4.6-7,5.8-11.7c0.5,1.2,1.4,2.3,2.7,3.2c2,1.2,5.1,2,8.1,2c2.7,0,5.3-0.6,6.7-1.9c7.3-6.6,6.4-16.8,5.7-24.2
		c-0.6-6.3-0.7-11.5,0.8-16.3c0.2,0.5,0.3,1,0.2,1.6c-0.4,3.8,2.5,6.9,7.5,7.9c1.7,0.3,3.4,0.4,5.1,0.2c-2,4-2.8,8.5-2.4,12.8
		c0.7,7.1,4.6,13.4,11,17.6c5,3.3,11.2,5.1,17.2,5.1c3.1,0,6.1-0.5,8.8-1.4c4.9-1.7,8.5-4.8,10.8-8.9c5.5,6.6,16,8.1,25.1,5.7
		c0.9,1.8,2.7,3.1,5.3,3.9c1.3,0.4,2.9,0.6,4.4,0.6c2.4,0,4.8-0.6,6.3-2c4.3-4.1,4.2-8.1,3.7-12.1c-0.6-4.6-1.7-9.2-2.9-13.4
		c-0.2-0.8-0.5-1.6-0.7-2.4c3.5,0.2,6.5-2.3,8.9-4.3c0.8-0.7,1.7-1.4,2.3-1.7c0.9-0.5,1.9-1,2.8-1.4c0,0,0,0.1,0,0.1
		c0.2,6.1-0.3,12.5-0.8,18.6c-0.7,8.4-1.4,17-0.4,25.6c0.5,4.5,5.7,7.1,10.5,7.4c0.2,0,0.4,0,0.6,0c4.3,0,7.6-2.1,8.3-5.5
		c3.2-15.3,2.6-32.4,1.9-43.8c-0.2-2.3-0.4-4.7-0.6-7c5.3-1.1,10.5-3,14.9-7.9C637,270.5,637.9,266.8,637.2,263.6z M456.2,285.3
		c0.2,1.2,0.4,2.5,0.5,3.7c2,15.8,0.3,27.4-4.9,33.4c-0.3,0.3-1.7,0.7-3.6,0.5c-1.3-0.1-2-0.5-2.2-0.7c-0.1-3.4,0.7-6.9,1.5-10.6
		c0.7-2.8,1.3-5.8,1.6-8.8c0.7-7.3,0.1-14.2-0.6-20.6c-0.7-6.3-1.1-13.5,1.1-19.7l-3.7-4.6c-8.8,0.9-14.5-0.6-18.9-4.9
		c-0.4-0.8-0.4-2.9-0.1-4.3c8.4,4.5,18,2.6,26.5,0.9c2.1-0.4,4.1-0.8,6-1.1c5.6-0.9,10.3-0.9,14.7-0.1l0.5,0.1
		c4.3,0.8,9.1,1.6,11.2,4.5c0.8,1.1,0.4,5.1-0.5,5.8c-1.1,0.4-1.8,0.2-3.7-0.4c-0.6-0.2-1.2-0.4-1.8-0.6c-3.3-1-6.3-1.6-9.1-2
		c-3.2-0.4-6.6-0.3-10.7,0.1l-2.8,2.1C453.6,266.5,455,276.5,456.2,285.3z M467.8,274.4c-1.9,4.6-2.7,9.5-2.5,14.8
		c0.1,1.3,0.1,2.6,0.2,4c0.2,2.9,0.4,5.6,0.2,8.3c-0.1,2-0.7,3.8-1.4,5.7c0.5-5.6,0.3-12-0.6-19.2c-0.2-1.2-0.3-2.5-0.5-3.7
		c-1.1-7.5-2.2-15.3,0-21.8c2.6-0.2,4.8-0.2,7,0.1c1.7,0.2,3.4,0.5,5.2,1c-0.6,0.3-1.1,0.7-1.5,1.2c-1.4,1.6-2.6,3.2-3.6,4.9
		c-0.6,0.8-1.2,1.5-1.6,2.3C468.1,272.9,467.9,273.7,467.8,274.4z M500.3,280.3c-0.4,0.2-1.5,0.5-3.1,0.4c-1.5-0.1-2.6-0.6-3.1-0.9
		c0.2-2.2-0.4-4.3-1.6-6.2c-0.3-0.5-0.7-0.8-1.1-1.3c-0.2-0.2-0.4-0.4-0.6-0.6c0,0,0.1,0.1,0.1,0.1l-3.7-1.5
		c-0.9,0.2-1.7,0.5-2.5,0.9c-0.7,0.3-1.4,0.6-2.2,1l-1.7,1.9c-2.4,6.4-2.4,12.9-1.6,20.7c0.7,7.9,1,14.2-3.2,18.2
		c-1.2,0.4-4.6,0.2-6.2-0.4c0.2-0.8,0.5-1.5,0.8-2.3c0.9-2.6,1.8-5.3,2.1-8.5c0.2-3.2,0-6.3-0.2-9.3c-0.1-1.3-0.2-2.5-0.2-3.8
		c-0.2-4.5,0.6-8.6,2.2-12.4l0.3-1.9c0.1,0.4,0,0.7-0.1,0.8c0.3-0.5,0.6-1,1.1-1.5l0.3-0.4c0.8-1.4,1.8-2.7,2.9-4
		c0.6-0.2,2.3-0.4,4.1,0.1l1.3,0.1c2.3-0.3,4.7-0.1,7,0.4c3.6,0.9,6.9,3.1,8.3,5.6C500.5,277.2,500.7,278.7,500.3,280.3z M532,315.2
		c-6,2.1-14.2,0.9-19.8-2.9c-4.6-3.1-7.5-7.5-7.9-12.5c-0.5-5.1,1.6-10.4,5.7-14.5c4.1-4.1,9.2-6.5,14.4-6.8c0.5,0,1,0,1.5,0
		c4.7,0,9.8,1.4,11.2,4.6c1.7,3.9-2.4,8.9-5.8,11.1c-3.2,2.1-7.1,3.2-12,3.5c4.6-1.7,8-5.2,10.7-10.7l0.3-1.8
		c-0.1,0.2-0.2,0.4-0.3,0.5l-1.9-6.2l0-0.3c0,0-0.1,0-0.1,0l0-0.1l-0.5,0.1c-2,0-3.9,1.2-5.2,2.1c-0.2,0.1-0.3,0.2-0.5,0.3
		c-3,1.9-5.6,4.5-7.6,7.7c-1,1.5-1.7,3.2-2.2,4.9l3.1,3.5c-0.1,0-0.1,0-0.2,0l-3.6,3.9c0.5,4,2.3,7.6,5.2,10.4c3,2.9,6,3.2,8,3
		c3.4-0.4,6.8-2.7,9.5-6.6c1.1-0.5,4.2-0.4,5.8,0.2C538.2,311.7,535.6,313.9,532,315.2z M529.4,302.8c-0.5,0.4-0.9,0.8-1.3,1.3
		c-1.5,2.2-3.3,3.7-4.6,3.8c-0.3,0-1.1,0.1-2.4-1.1c-0.7-0.7-1.3-1.4-1.8-2.2C523.1,304.4,526.4,303.8,529.4,302.8z M541.1,301.6
		c-2.5-0.7-5.7-0.9-8.3-0.3c0.8-0.4,1.5-0.8,2.3-1.3c2.8-1.8,5.3-4.3,7-7.1C541.3,295.7,541,298.7,541.1,301.6z M577,270.1l-0.3,0.6
		C576.8,270.5,576.9,270.3,577,270.1z M576.7,270.3l0,0.5l0,0C576.6,270.7,576.6,270.5,576.7,270.3z M581.6,315.9
		c-1.1,0.5-4.1,0.2-5.1-0.5c-0.1-0.5-0.2-1-0.2-1.6l-4.8-2.9c-8,3.3-19.1,2.3-22.2-4.4c-2.6-5.7-0.4-14.8,3-21.3
		c3.4-6.6,9.3-10.6,19.6-13.6c1.5-0.4,3.3-0.4,4.3,0c-2.3,6.9,0.2,14,2.4,20.3c0.7,1.9,1.3,3.8,1.8,5.5c1.1,4,2.2,8.2,2.7,12.4
		C583.5,313.3,583.2,314.3,581.6,315.9z M629.5,268.4c-3.7,4.2-8.8,5.4-14,6.3l-2.9,3.8l0.1,1.4c0.3,2.8,0.6,5.7,0.8,8.6
		c0.7,11,1.3,27.2-1.7,41.7c-0.4,0.2-1.4,0.4-2.9,0.1c-1.6-0.3-2.5-0.9-2.8-1.2c-0.9-7.8-0.2-15.7,0.4-24c0.5-6.3,1.1-12.9,0.9-19.4
		c-0.1-1.7-0.1-3.4-0.2-5l-4.5-3.2c-3.2,1-6,2.2-8.6,3.7c-1.1,0.6-2.1,1.5-3.3,2.4c-1,0.8-2.8,2.3-3.8,2.7c-0.4-1-0.4-3.6,0-5.1
		l0.1-0.2c0.4-1.3,0.9-2.2,1.2-2.4c-0.1,0.1-0.3,0.2-0.7,0.2l1.9-0.6c4.3-3.1,9.1-6.1,14.6-7.6l1.5-5.9c0,0,0.1,0.2,0.1,0.5
		c-0.2-4.7,0.2-8.6,1.3-12.2l0.2-0.6c1-3.4,2-6.8,4.1-8.7c1.6-0.7,6.7-0.4,8.4,0.6c-0.5,1.3-1.5,2.6-2.5,4.1c-1.1,1.5-2.2,3.1-3.1,5
		c-0.9,2-1.7,4.1-2.3,6.4l-0.1,0.7c-0.1,1.8-0.2,3.7-0.2,5.8l3.5,3.5c4.7,0,10.3,0,15.1-2.6C630.2,267.3,629.9,268,629.5,268.4z"/>
</g>
<g>
	<path d="M363.7,218.5c0,2.3,5.2,2.9,6.4,1.2c1.6-2.3,2.6-5,3.3-7.9c0.7,1.2,1.4,2.4,1.7,3.7c0.9,3.3,1,5.7,4.4,7.3
		c1.3,0.6,7,0.9,5.2-1.9c-1.6-2.4-1.5-5.5-3-8c-1.4-2.3-3.3-4.5-5.4-6.4c1.7-1.8,3.5-3.4,5.2-5.1c2-2,3.3-4.6,2.4-7.4
		c-0.7-2.1-7.6-2.9-7.4-0.4c0.2,2.4-1.1,4.1-2.7,5.8c-0.4-3.6-0.7-7.2,1.5-10.4c1.4-2.1-4.6-3.1-5.9-1.6c-3.7,4.1-3.2,8.7-3.1,13.9
		C366.4,207.2,363.7,212.7,363.7,218.5z"/>
	<path d="M318.9,202.1c0.2,2.3,0.5,4.6,0.3,6.9c-0.3,2.7-1.2,5.2-1.2,7.9c0,2.5,5.8,3.3,6.9,1.3c5.1-8.8-0.3-18.8,3-28.1
		c0.7-2-5.1-2.7-6-1.2C319.3,193.2,318.4,197.2,318.9,202.1z"/>
	<path d="M298.8,223.4c3.9,0.1,8.3-1.6,11.6-3.1c3.8-1.8,7-5,7.5-9.4c0.5-3.9-1.3-6.4-4-7.6c1.4-1,2.6-2.4,3.4-3.9
		c1.8-3.4,2.3-7.8-0.8-10.6c-3-2.6-7.7-3-11.3-1.8c-1.4,0.5-3,1.4-4.2,2.7c-0.6,0.1-1,0.4-1.2,0.8c-2.2,4.6-1.8,9.1-2,14.1
		c-0.2,5.7-1.4,10.8-3.8,15.9C293,222.6,296.3,223.7,298.8,223.4z M309.4,191.7c0.4,1.8,0.2,3.7-0.6,5.4c-0.5,1.2-1.3,2.5-2.4,3.3
		c-0.3,0.2-0.5,0.3-0.8,0.4c-0.1-2.1-0.2-4.1-0.3-6.1C306.7,193.8,307.9,192.5,309.4,191.7z M306.9,215.5c-0.7,0.6-1.6,1.1-2.4,1.5
		c1.1-3.1,1.4-6.6,1.4-10c0.8-0.3,1.7-0.5,2.5-0.6c1.5-0.3,1.4-0.4,1.8,1C310.9,210.2,308.9,213.7,306.9,215.5z"/>
	<path d="M363.6,211.3c-0.1-2-4.3-2.4-5.3-1c-1,1.3-2.2,3-2.7,4.6c-0.1-1-0.5-2.2-0.5-3.2c0.1-2.2,0.7-4.3,1.5-6.3
		c0.5-1.1,1-2.2,1.7-3.2c0.2-0.2,0.4-0.3,0.7-0.5c0,0.2,0,0.4,0.2,0.6c0.3,1.6,4.6,2,5.4,0.7c2.4-4.4-4.7-5.7-7.7-5.5
		c-6.2,0.6-8.5,7.1-9.1,12.6c-0.5,5.3,2,9.5,7.5,10C360.9,220.7,363.9,216.5,363.6,211.3z"/>
	<path d="M327.9,215c1.8,4,7.8,4,11.6,3.3c0.2,2.5,7,3.3,7.6,0.6c1.4-5.9-2-13.2,2.2-18.4c1-1.2-1.1-2.2-3.1-2.5
		c-3.6-1.8-8.3-1-11.2,1.8c-2.2,2.1-4.1,5-5.8,7.6C327.8,209.8,326.7,212.4,327.9,215z M335.6,214c-0.1-0.7-0.1-1.4,0.1-2
		c0.3-0.8,0.7-1.6,1.2-2.4c0.6-1,1.3-1.9,1.9-2.8c0.3-0.5,0.6-0.9,0.9-1.4c-0.2,1.3-0.3,2.7-0.3,4.1c-0.6,1.5-0.9,3.1-2.2,4.1
		c-0.4,0.3-0.8,0.4-1.3,0.5c-0.4,0.1-0.8,0.1-1.2,0.2C334.3,214.3,334.5,214.2,335.6,214z"/>
	<path d="M395.6,220.1c0.4,1.8,4.3,1.9,5.5,1.1c3.4-2.2,5-7.8,5.3-11.8c0,0.1,0.1,0.2,0.1,0.3c1,3,0.9,6.1,1.8,9.1
		c0.6,2,5.2,2.3,6.3,0.8c0.9-1.2,1.4-2.6,1.5-4c0.8-2,1.9-3.8,3-5.6c0,0.1,0,0.3,0,0.4c0,3-1.1,5.5-1.6,8.4
		c-0.4,2.4,5.2,2.8,6.4,1.7c4.3-3.6,3.8-9.1,2.9-14.2c-0.6-3.5-1.1-6.7-1.2-10.3c0-1.4,0-2.7-0.2-3.8c0.1-0.6,0.2-1.3,0.3-1.9
		c0.5-2.6-6.6-3.5-7.4-0.9c-1.6,5.2-2.9,10.2-5.5,15c0-0.1-0.1-0.1-0.1-0.2c-1.3-2.5-3-4.8-4.2-7.3c-1.3-2.6-0.7-5.1-1.7-7.6
		c-1.2-2.9-10.1-3-8.9,0.2c0.1,0.2,0.1,0.3,0.2,0.5c-1.3,6.1,0,11.6-0.2,17.9C397.9,211.8,394.7,216.1,395.6,220.1z"/>
	<path d="M429.9,215.9c3.2,2.7,8.3,3.1,12.1,1.5c1.4,1.2,5.2,1.1,6.1,0c1.9-2.4,0.5-5.5-0.1-8.3c-0.9-3.9-1.8-7.6-0.8-11.7
		c0.3-1.3-1.8-1.9-3.5-1.8c-0.8-0.1-1.5-0.1-2.1,0c-4.7,0.9-8.8,3.4-11.2,7.6C428.2,206.8,426.1,212.7,429.9,215.9z M436.2,208.9
		c0.6-2.4,1.8-4.6,3.5-6.4c0,0.8,0,1.5,0.1,2.4c0.1,0.8,0.2,1.5,0.4,2.3c-0.4,1.8-0.6,3.9-1.7,5.3
		C435.7,216.2,435.6,211,436.2,208.9z"/>
	<path d="M456.3,217c0.9,0.2,2.7,0.3,4.4,0.1c0.3,3.2,0.1,6.6-2.4,8.9c-2.1,1.9-5.1,2.2-7.9,2.3c-0.1-0.1-0.2-0.3-0.3-0.5
		c-0.4-1-1-2.2-1.1-3.3c-0.2-2-4.5-2.4-5.3-0.6c-0.7,1.7-1.6,2.9-1,4.8c0.9,2.6,4.3,3.6,6.7,3.5c0.1,0,0.2,0,0.3,0
		c6.4,0.3,15-0.3,17.9-7.1c1.5-3.5,0.7-7.1,0.1-10.7c-0.9-5.7-0.7-9.3,2.3-14.4c1-1.7-2.6-2.5-4.5-2c-2.7-1.1-6.4-1.4-8.1-1.1
		c-4.9,0.7-8.3,4.8-8.9,9.6C448.1,211.5,451.3,215.8,456.3,217z M457,207.4c0.1-1.4,0.6-2.8,1.3-4c0.7-1.2,2.9-3.6,4.3-2
		c-1.9,3.1-2.5,6.1-2.4,9.8c-0.5,0.3-1,0.6-1.5,0.9c-0.3,0.1-0.4,0.2-0.5,0.3c0-0.1-0.1-0.1-0.2-0.3
		C456.9,210.9,456.8,208.9,457,207.4z"/>
	<path d="M474.7,218.2c5.2,2.4,14.4,1.6,14.7-5.6c0.1-2.1-5.3-2.9-6.1-1.2c-1.2,2.6-3.7,5.8-6,2.1c-0.5-0.8-0.8-1.7-1-2.6
		c5.7-0.8,16.3-4.1,10.9-11.4c-4.3-5.8-12.6-3.4-16.2,1.7C467,207,468,215.1,474.7,218.2z M479.2,201.9c1.8-1.9,1.7-1.1,1.6,0.8
		c-0.1,2-2.1,3.1-4.3,3.9c0.2-0.6,0.4-1.2,0.7-1.8C477.7,203.7,478.4,202.7,479.2,201.9z"/>
	<path d="M213.6,269.7c-5.2,5.1-5.2,11.2-4.5,18.1c0.4,3.4,0.5,6.8,0,10.2c-0.5,3.7-2.1,7.1-2.2,10.9c-0.1,4.8,9.4,4.7,11.8,2.3
		c4.7-4.8,5.2-12.7,4.5-19.1c-0.4-3.5-1.4-7-1.7-10.4c1.7-1.9,3.6-3.6,4.7-4.4c0.2-0.1,1-0.5,1.7-0.9c0.4,1,0.9,2.2,0.9,2.6
		c0.1,1.6-0.2,2.9,0.1,4.5c0.8,4.1,10.3,4.7,12.9,2.5c6.7-5.5-0.2-13-6-15.6c-4.1-1.8-8.9-2.1-13.2-0.9
		C219.9,268.4,215.2,268.2,213.6,269.7z"/>
	<path d="M244.1,310.7c-3.1,4.5,10.2,7.1,13.2,3.6c4.5-5.4,4.4-11.7,3.4-18.4c-1.3-8.7-2.5-16,2.2-23.9c2.5-4.2-9.1-6.4-11.4-3.1
		c-4.4,6.3-6.1,13.2-5.3,20.9C246.8,296.8,248.5,304.4,244.1,310.7z"/>
	<path d="M301.8,320.9c0.2,4.4,8.9,4.7,11.2,2.2c4-4.5,4.4-13.2,4.7-18.9c0.1-1.7,0.1-3.4,0.1-5.1c0.6-0.1,1.2-0.3,1.7-0.5
		c0.8,2,1.3,4.2,1.8,5.8c1.2,3.9,1.4,8.2,2.7,12.1c2.5,7.2,11.5,9.6,18.3,9.7c2.7,0,5.8-1.9,2.9-4.2c-2.7-2.2-6.4-2.8-7.7-6.3
		c-1.4-3.7-1.9-7.7-3.4-11.4c-2-5-4.3-9.3-8.2-12.2c2.3-2.9,4.5-5.9,7.1-8.5c4.2-4.3,7.5-9.3,5-15.4c-1.5-3.5-12.5-4.8-11.8,0.2
		c0.8,5.9-5.4,10.4-9.2,14.2c-0.7-13-0.3-24.8,4.4-37.2c1.6-4.3-10.7-5.3-12.8-2.5c-8.2,11-7.7,25.4-6.2,38.4
		c0.8,6.6,1.7,13.2,1.9,19.9c0.1,3.1,0,6.2-0.4,9.3C303.4,313.8,301.7,317.5,301.8,320.9z"/>
	<path d="M288.8,295.9c-1.4,3.3-2.3,9.6-5.5,11.6c-1.6,1-0.2,0.6-1.2-0.2c-1.1-0.8-1.9-2.2-2.5-3.5c-1.2-2.4-1.6-5.1-1.6-7.8
		c0-4.9,0.8-10.6,2.9-15.1c0.8-1.7,2.3-4.6,4.3-5.3c0.9-0.3,1-0.4,1.1-0.3c1.2,0.6,1.9,3.2,2.1,4.3c0.4,3.7,10.5,5.2,10.7,1.3
		c0.5-10.5-11.2-14.5-19.9-12.3c-11,2.8-14.9,15.5-14.8,25.7c0,11.4,7.5,19.9,18.9,20.8c11.1,0.9,18.7-7.1,16.4-18
		C298.9,294.1,290.1,292.9,288.8,295.9z"/>
	<path d="M254.7,255.9c1.4,1.7,4,2.5,6.1,2.7c2,0.2,4.1,0.1,5.9-0.7c1-0.4,1.7-0.9,2.4-1.7c0.4-0.5,0.6-1.1,0.8-1.7
		c0.1-0.3,0.2-0.7,0.2-1c0-0.7-0.3-1.4-0.4-2.1c-0.2-1.1-2.1-2.2-3-2.6c-1.7-0.7-3.6-1-5.4-1c-3.1,0-7.5,1.4-8,5
		c-0.1,0.9,0.3,1.7,1,2.3C254.3,255.4,254.5,255.7,254.7,255.9z"/>
	<path d="M186.1,255.1c-1.9,6-1.4,13-0.4,19.4c1.2,7,3,14,2.6,21.1c-0.4,6.9-3.6,12.3-6.2,18.6c-1.8,4.4,7.7,5.3,10.1,3.5
		c10.6-8.1,11-22.2,8.7-34.3c-2-10.7-4.4-20.9-0.8-31.1c1.8-0.2,3.6-0.4,5.5-0.4c3.1,0,6,0.5,9,1.2c2.2,0.6,5,2.1,7.3,2.1
		c1.6,0.8,3.4-2,3.9-3c1.2-2.5,1.4-5.8,0.5-8.3c-1.7-4.7-9-5.7-13.4-6.4c-5.7-0.9-11.4-0.1-17,1.1c-10.6,2.2-22.6,6.2-33,0.9
		c-4.6-2.4-6.4,9.3-3.2,11.7C167.5,257.3,176.9,256.9,186.1,255.1z"/>
	<path d="M389.8,313.7c3.2-8.4,0.8-20.8-8.8-23.6c-6-1.7-17.3-0.2-16.8,8.2c0,0.3,0.1,0.5,0.2,0.7c-2.6,6.4-3.6,14.4,1.3,19.4
		C372.9,325.9,386.2,323.4,389.8,313.7z M373.5,315.2c-1.1-2-1.4-4.3-1.4-6.5c0-2.9,0.3-6,1-8.9c1.2-1.5,2.1-3.8,3.8-4.6
		c0.2-0.1,0.3-0.2,0.3-0.3c1.9,1.1,2.5,6.3,2.6,7.8c0.3,3.1,0,6.4-1.2,9.3C377.7,314.4,375.5,318.7,373.5,315.2z"/>
	<path d="M404.4,288.5c-1.5-1.6-7-2.3-8.6-0.6c-4,4.2-3.6,9-3.2,14.4c0.4,6.4-1,12.1-1.5,18.4c-0.3,4,9.8,5.4,11.3,2.2
		c2.5-5.1,2.8-10.8,2.2-16.4c-0.2-1.8-0.8-3.9-1.2-6c0.2-0.2,0.5-0.4,0.6-0.6c0.7-1.1,1.5-2.2,2.4-3.2c0.8-0.9,1.9-1.3,2.7-1.9
		c0.1,1,0.8,2,1.5,2.6c2.1,2.2,9.8,3.9,11-0.2C423.7,289.5,412.7,286.2,404.4,288.5z"/>
	<path d="M483.9,266.2c-2.7-0.7-6.3-0.5-7.5,0.9c-1.3,1.5-2.4,3.1-3.4,4.7c-0.5,0.6-1,1.3-1.4,2c-0.3,0.5-0.4,1-0.3,1.4
		c-1.9,4.3-2.7,8.9-2.5,13.9c0.2,4.2,0.7,8.4,0.4,12.6c-0.3,4-1.9,7.2-3,11c-1.2,4.3,9.9,5.1,12,3.2c6-5.4,5.2-13.9,4.5-21.3
		c-0.6-6.8-0.8-13.1,1.4-19.2c0.7-0.3,1.4-0.7,2.1-1c0.6-0.3,1.3-0.5,1.9-0.7c0.3,0.4,1.4,1.4,1.6,1.7c0.9,1.4,1.2,2.8,1,4.4
		c-0.5,4.7,11.6,6,13,1.6c2.3-7.6-4.7-13.3-11.4-14.9C489.5,266,486.7,265.8,483.9,266.2z"/>
	<path d="M446.5,261.3c-2.3,6.5-2.1,13.9-1.3,21.2c0.7,6.7,1.2,13.3,0.6,19.9c-0.6,6.7-3.5,13.3-3.2,19.9c0.2,4.6,9.5,5.1,11.9,2.3
		c7.8-9,7.2-25.1,5.8-36.2c-1.2-9.4-3.6-20.4,0.4-29.3c3.3-0.4,6.5-0.5,9.9-0.1c2.9,0.3,5.8,1,8.5,1.8c2.9,0.8,4.7,2,7.6,1
		c3.5-1.2,4-8.5,2.1-11.1c-3-4.2-9-5.1-13.9-6c-5.3-0.9-10.5-0.7-15.8,0.1c-10.1,1.6-22.2,6-31.6-0.2c-4-2.6-5.2,8.2-2.9,10.6
		C430.7,261.4,438.5,262.1,446.5,261.3z"/>
	<path d="M543.3,308.4c1.4-4.2-10.3-5.3-12.3-2.4c-3.1,4.6-7.9,7.6-12.3,3.3c-2.4-2.3-3.8-5.2-4.1-8.3c6.5,0.3,13-0.4,18.6-4
		c4.7-3.1,9.7-9.5,7.1-15.5c-2.5-5.7-10.7-7-16.1-6.6c-6.3,0.4-12.2,3.4-16.6,7.8c-9.8,9.8-9,24.5,2.8,32.4
		C520.5,322.1,538.9,322,543.3,308.4z M523.5,284.4c1-0.6,2.9-2,4-1.9c0.3,0,0.6-0.1,0.8-0.1c-1.3,0.6-1.8,1.6-1.6,2.9
		c-2.6,5.5-6.1,8.8-11.6,9.7c0.4-1.4,1-2.8,1.8-4C518.6,288.4,520.9,286.1,523.5,284.4z"/>
	<path d="M572.8,314.1c0.1,0.8,0.2,1.6,0.4,2.4c0.8,3.2,8.6,4.1,10.7,2.1c2.9-2.8,3.1-5.2,2.7-9.1c-0.5-4.3-1.6-8.7-2.8-12.9
		c-2-7.4-6.9-16.2-4.2-24c0.4-0.4,0.6-0.9,0.5-1.4c0.3-1.2-0.7-2-2-2.4c-2.1-1.2-5.1-1.1-7.2-0.4c-9.1,2.6-17.1,6.6-21.7,15.3
		c-3.5,6.7-6.5,17.1-3.1,24.4C550.2,316.8,563.5,317.9,572.8,314.1z M559.1,296.6c0.6-4.8,2.1-9.4,4.9-13.4c1.2-1.8,2.6-3.2,4.2-4.4
		c-0.2,3.7,0.6,7.6,1.5,11.5c0.4,1.5,0.7,3.1,1,4.6c-0.5,0.4-0.9,0.8-1.1,1.5c-1.3,3.9-3.8,11-8.5,11.8c-1.7,0.3-0.4,0.5-1-0.5
		c-0.7-1-1-2.2-1.2-3.4C558.5,301.9,558.8,299.1,559.1,296.6z"/>
	<path d="M223,337.6c-6,8.2-7.1,17.2-6.7,26.5c-5.7,2.1-10.7,1.3-16.6,1.8c-1.5,0.1-2.9,0.3-4.3,0.5c0.5-1.7,1.1-3.4,1.7-5.1
		c2.8-7.2,4.8-14.1,1.4-21.4c-1.5-3.2-12.3-4.6-11.2,0.2c1.5,6.8-1.5,13.6-4.1,19.7c-2.6,6-4.1,11.8-4.6,18.3
		c-0.6,6.8-1.4,13.2-3.7,19.7c-1.1,3-2.3,6-3.6,8.9c-0.8,1.7-1.9,5.6-3.3,7.4c-0.8,0.4-1.4,1-1.6,1.9c0,0.1-0.1,0.3-0.1,0.4
		c-1,3.1,6.2,4.2,7.7,4.2c7.5-0.1,9.6-7.6,12.2-13.5c3.2-7.2,5.5-14.7,6.2-22.6c0.3-3.1,0.6-6,1-8.8c6.3-2.6,12.6-1.5,19.3-1.3
		c1.3,0,2.9,0.1,4.5-0.1c0.2,1.9,0.3,3.8,0.5,5.7c0.5,7,0.7,14.2-1.9,20.9c-1.1,2.8-2.7,5.5-4.6,7.8c-1.6,1.9-4.2,3.4-4.7,6
		c-0.5,2.5,4.6,3.3,6,3.3c15-0.3,20.1-17.5,19.7-29.9c-0.5-15.6-8.5-33.6,0.2-48.2C234.2,336.7,224.9,335,223,337.6z"/>
	<path d="M244.6,363.9c-6,5.8-7,12.5-6.5,20.5c0.3,4.4,0.9,8.9,0.2,13.3c-0.6,3.9-3,7.4-2.2,11.3c0.7,3.3,7.1,2.9,9.2,1.8
		c7.3-3.9,6.8-14.4,5.9-21.5c-0.9-7.3-2.6-16.7,2.4-23C256.1,363.3,246.8,361.9,244.6,363.9z"/>
	<path d="M257.2,351.3c-0.2-0.3-0.3-0.6-0.4-1c-0.4-0.8-0.9-1.5-1.7-2c-0.6-0.4-1.2-0.7-1.9-1c-0.5-0.2-1.1-0.4-1.6-0.6
		c-0.6-0.1-1.2-0.2-1.9-0.4c-1.5-0.2-2.9-0.1-4.4,0.3c-0.9,0.2-1.7,0.6-2.4,1.2c-0.3,0.2-0.5,0.5-0.6,0.9c-0.3,0.5-0.3,0.9-0.1,1.5
		c0,0,0,0.1,0,0.1c-0.2,0.4-0.3,0.8-0.3,1.2c0.1,1.6,1,2.7,2.2,3.6c1.5,1.1,3.5,1.5,5.3,1.6c1.6,0.1,3.5,0,4.9-1
		c1-0.7,1.9-1.5,2.5-2.5C257.4,352.6,257.5,352,257.2,351.3z"/>
	<path d="M294.3,335.5c1.8-3.6-7.7-5.4-9.4-2.5c-5.7,9.8-4,19.7-2.2,30c-6.4-0.9-13.2,0.9-18,5.2c-7.5,6.7-9.1,17.3-8.6,26.8
		c0.2,3.9,0.6,7.7,3.4,10.7c3,3.2,8,4.8,12.2,5.3c2.8,0.4,5.8,0.4,8.7-0.1c3.3,1.3,8.8,0.9,10.2-0.9c3.5-4.4,4.9-11,5.9-16.4
		c1.2-5.9,1.6-12.1,1.1-18.2C296.6,362.6,288.2,348,294.3,335.5z M273.2,403.8c-4.2-0.9-3.1-10.5-3-13.6c0.3-7.8,3.9-21.1,13.6-20.9
		c0.1,0.5,0.1,1,0.2,1.4c0.8,6.3,0.3,12.6-0.8,18.8c-0.7,3.9-2,7.6-3.1,11.3C278,402.5,275.4,404.2,273.2,403.8z"/>
	<path d="M335.6,387c-1.2,3.5-2.4,7.3-4.6,10.3c-1.7,2.2-5.8,6.1-9.1,5.2c-3.2-1-4.6-6.8-5.1-9.6c-0.4-2.2-0.6-4.5-0.5-6.8
		c7.1,0.5,14.7,0,20.6-4.4c4.5-3.4,9-10.5,4.8-15.8c-4.5-5.8-14.5-6.5-21.1-5.1c-6.5,1.4-12.4,5.7-15.5,11.7
		c-6.5,12.8-3.3,32.4,12.1,36.6c13.9,3.8,33.1-4.8,30.3-21.4C346.9,383.7,336.8,383.3,335.6,387z M322.5,371.1
		c1.3-1.2,5.4-4.4,6.7-2.7c1.9,2.6-2.5,8-4.3,9.3c-2.2,1.6-4.8,2.1-7.5,2.2C318.3,376.6,320,373.4,322.5,371.1z"/>
	<path d="M480,358.6c8.1-16.3-12.4-23.3-25.1-18.8c-13.3,4.7-19.6,18.6-10.7,30.6c2.2,2.9,5.1,5.3,8.5,6.8c2.8,1.3,7.9,1,10.2,2.8
		c3,2.3,2.3,9,1.7,12.2c-0.8,3.7-2.6,7.5-5.5,10c-3,2.6-8.3,4.4-12.1,2.4c-3.2-1.7-5.5-6.1-3.6-9.5c1.3-2.5,4.7-4.3,6.9-5.9
		c4.3-3.3-5.3-5.2-7.2-4.9c-5.3,0.8-11.1,2.6-13.8,7.6c-2.7,5.1-0.1,11,3.8,14.6c8,7.5,21.4,8.4,31.5,5
		c11.1-3.7,17.8-15.3,15.3-26.7c-1.5-6.7-6.6-10.8-13.1-12.3c-2.7-0.6-5.4-0.3-7.5-2.3c-2.2-2.1-3.6-5.2-4-8.2
		c-0.9-6,2.4-11.1,7.7-13.9c0.6-0.3,1.7-0.5,2.5-0.9c0.6,1,1.7,2.5,1.9,3.2c0.6,2,0.7,3.8,0.1,5.8
		C465.9,360.3,478.2,362.1,480,358.6z"/>
	<path d="M512.3,393.3c-2.3,2.8-3.7,6.2-5.9,9.2c-0.9,1.3-2.1,2.6-3.5,3.3c-0.6-0.6-1.2-1.3-1.6-2.1c-2.8-4.5-4.6-10.4-4.8-16
		c5.2,1.1,10.6,0.7,15.4-2.1c5.5-3.2,9.4-9.1,7.4-15.5c-2-6.4-8.7-9.5-15-9.4c-7,0.1-12.5,4.5-16.4,9.9c-4.1,5.7-5.5,12.3-4.6,19.2
		c0.9,6.7,3.3,15.1,8.8,19.6c5.6,4.7,14.3,5.6,20.9,2.6c5.8-2.7,11.4-9.7,11-16.3C523.5,391.2,514.6,390.5,512.3,393.3z
		 M504.9,367.8C504.9,367.9,504.9,367.9,504.9,367.8C504.8,367.8,504.9,367.8,504.9,367.8z M504.4,369.7c0.3-0.3,0.7-0.5,1-0.8
		c0.5,1.1,1.1,2.6,1.1,2.7c0.3,1.7,0,3.4-0.8,4.9c-1.4,2.8-5.1,6.1-8.4,5.2c-0.1,0-0.3-0.1-0.4-0.1c0.7-3,2.1-5.7,4-8.2
		C502.1,372.1,503.2,370.8,504.4,369.7z"/>
	<path d="M558.8,390.5c-1.4,4-3.3,8.1-5.7,11.6c-1.4,2.1-4.6,6.9-7.7,6.6c0.7,0.1-1.5-1.9-1.8-2.2c-1.4-1.7-2.2-3.8-2.8-5.8
		c-0.8-2.6-1.1-5.2-1.1-7.9c5.3,0.6,10.7-0.5,15.1-3.8c5.1-3.9,9.6-11.5,7.1-18.1c-2.6-7-11.9-9.4-18.5-8.1
		c-6.9,1.3-11.8,6.8-14.5,13c-5.9,13.4-4.8,34.3,11.7,39.3c16.4,5,28.5-7.6,29.6-23.3C570.5,387.6,560.1,386.8,558.8,390.5z
		 M544.2,376c1-1.7,2.3-3.5,3.9-4.7c0,0,0,0,0.1,0c0.2,0.5,0.4,1,0.5,1.5c0.2,1.2,0.1,2.3-0.1,3.5c-0.3,1.6-1,3.1-1.8,4.5
		c-0.9,1.6-3.9,5.7-6.3,5.9C541,382.9,542.2,379.3,544.2,376z"/>
	<path d="M407.6,383.1c-2.1-1.6-9.7-0.8-6.1,2.3c2.7,2.3,1.3,5.4-1.3,8.3c-1.4-2.1-2.8-4.3-4.1-6.5c-1-1.7-1.9-3.4-2.8-5.1
		c5-6,9-12.5,2.1-19.1c-4.4-4.2-22.9-7.8-19.6,2.7c1.7,5.6,4.2,11,6.8,16.3c-3.5,3.5-7.3,6.8-8.8,11.7c-4,12.9,11.9,17.1,21.2,13.3
		c0.7-0.3,1.6-0.7,2.4-1.2c0,0,0.1,0,0.1,0.1c1.7,0.8,9.9,1.6,8.5-2.2c0,0,0,0,0-0.1c0-0.1,0-0.1,0-0.2c0.1-0.9-0.3-2-1-2.9
		C410.8,395.2,414.6,388.4,407.6,383.1z M389.1,368.3c0.4,1.6,0.2,3.3-0.3,4.8c-0.9-1.9-1.8-3.9-2.6-5.9
		C383.9,361.7,388.4,365.4,389.1,368.3z M384.5,400.2c-0.7-2.7-0.1-5.8,1.1-8.2c0.3-0.6,0.7-1.2,1.2-1.9c0.8,1.4,1.5,2.8,2.3,4.2
		c0.4,0.8,2.5,3.6,3.7,5.6c-0.4,0.3-0.8,0.5-1.1,0.7C388.8,402.2,385.6,404.4,384.5,400.2z"/>
	<path d="M626.7,418c-1.9-1.7-5-2.6-7.7-2.6c-0.4-0.3-0.8-0.5-1.2-0.7c-1.4-0.6-2.8-0.9-4.1-1.6c-0.7-0.8-1.4-1.7-2.1-2.6
		c-0.4-0.5-0.7-0.9-1-1.4c-0.3-0.8-0.6-1.5-0.8-2.3c-1.7-4.9-2.4-10.1-4.7-14.7c-2.1-4.2-5.1-7.3-8.8-9.2c2.7-1.7,5.8-3,8.5-5
		c5.6-3.9,11.8-9.6,11.9-16.9c0.1-4.3-11.2-5.7-11.8-1.4c-0.8,6.5-7.8,11-13.7,14.2c0.4-5.3,1-10.5,1.9-15.8
		c1.2-7.3,0.8-13.2-3.4-19.4c-2-3-14.6-3.2-12.4,1.1c3.3,6.5,1.8,12.9,0.4,19.7c-1.2,6.3-1.4,12.6-1.3,18.9
		c0.1,7.2,0.1,14.1-0.9,20.7c-0.5,1.2-1,2.3-1.6,3.4c-1.9,3.6-4.1,7.2-6.6,10.5c-1.3,0.3-2.3,0.9-2.8,1.7c-0.5,0.8-0.8,1.6-1.1,2.5
		c0,0.9,0.2,1.6,0.8,2.3c0.2,0.2,0.4,0.3,0.6,0.5c3.3,2.9,12.4,5.3,15.2,0.5c0.2-0.2,0.4-0.3,0.6-0.5c6.6-8.6,8.6-19.3,9.5-30
		c0.1-0.1,0.1-0.1,0.2-0.2c3.2,5.6,4.3,18.5,5.8,21.6c1.4,2.9,3.8,5.3,6.6,7c5.2,5.9,15.3,8.1,22.5,5.2C628,422.3,629,420,626.7,418
		z"/>
	<path d="M633.8,264.4c-0.4-1.5-1.4-3.5-3.1-2.1c-4.2,3.4-9.9,3.5-15.4,3.5c0-1.8,0-3.6,0.2-5.5c0.5-2,1.2-3.9,2.1-5.8
		c1.6-3.6,4.9-6.4,5.9-10.1c1.5-5.2-11.6-5.9-14.1-3.8c-3.2,2.7-4.3,7.2-5.5,11.2c-1.3,4.3-1.6,8.8-1.4,13.3c0,0.7,0.4,1.4,0.9,1.9
		c-5.8,1.6-10.7,4.6-15.7,8.2c-2,0-3.2,3-3.7,4.6c0,0.1,0,0.2-0.1,0.2c-0.7,2.3-1.2,9,2.5,9.6c3.2,0.5,7-4.1,9.6-5.6
		c2.5-1.4,5.2-2.5,7.9-3.4c0.1,1.6,0.1,3.3,0.2,5c0.5,14.6-2.9,29.4-1.2,43.9c0.5,4.4,11.5,6.2,12.5,1.5c2.9-13.7,2.7-29,1.8-42.9
		c-0.2-3.4-0.6-6.7-0.9-10.1c6-1,11.7-2.4,16.1-7.4C633.6,269.1,634.3,266.6,633.8,264.4z"/>
</g>
</svg>
