<?xml version="1.0" encoding="utf-8"?>
<!-- Generator: Adobe Illustrator 26.2.1, SVG Export Plug-In . SVG Version: 6.00 Build 0)  -->
<svg version="1.1" id="Layer_1" xmlns="http://www.w3.org/2000/svg" xmlns:xlink="http://www.w3.org/1999/xlink" x="0px" y="0px"
	 viewBox="0 0 475.9 238.3" style="enable-background:new 0 0 475.9 238.3;" xml:space="preserve">
<g>
	<path d="M205.6,32.1c0,2.3,5.2,2.9,6.4,1.2c1.6-2.3,2.6-5,3.3-7.9c0.7,1.2,1.4,2.4,1.7,3.7c0.9,3.3,1,5.7,4.4,7.3
		c1.3,0.6,7,0.9,5.2-1.9c-1.6-2.4-1.5-5.5-3-8c-1.4-2.3-3.3-4.5-5.4-6.4c1.7-1.8,3.5-3.4,5.2-5.1c2-2,3.3-4.6,2.4-7.4
		c-0.7-2.1-7.6-2.9-7.4-0.4c0.2,2.4-1.1,4.1-2.7,5.8c-0.4-3.6-0.7-7.2,1.5-10.4c1.4-2.1-4.6-3.1-5.9-1.6c-3.7,4.1-3.2,8.7-3.1,13.9
		C208.3,20.8,205.6,26.3,205.6,32.1z"/>
	<path d="M160.8,15.7c0.2,2.3,0.5,4.6,0.3,6.9c-0.3,2.7-1.2,5.2-1.2,7.9c0,2.5,5.8,3.3,6.9,1.3c5.1-8.8-0.3-18.8,3-28.1
		c0.7-2-5.1-2.7-6-1.2C161.2,6.8,160.3,10.8,160.8,15.7z"/>
	<path d="M140.8,37c3.9,0.1,8.3-1.6,11.6-3.1c3.8-1.8,7-5,7.5-9.4c0.5-3.9-1.3-6.4-4-7.6c1.4-1,2.6-2.4,3.4-3.9
		c1.8-3.4,2.3-7.8-0.8-10.6c-3-2.6-7.7-3-11.3-1.8c-1.4,0.5-3,1.4-4.2,2.7c-0.6,0.1-1,0.4-1.2,0.8c-2.2,4.6-1.8,9.1-2,14.1
		c-0.2,5.7-1.4,10.8-3.8,15.9C134.9,36.2,138.2,37.2,140.8,37z M151.3,5.3c0.4,1.8,0.2,3.7-0.6,5.4c-0.5,1.2-1.3,2.5-2.4,3.3
		c-0.3,0.2-0.5,0.3-0.8,0.4c-0.1-2.1-0.2-4.1-0.3-6.1C148.6,7.3,149.8,6.1,151.3,5.3z M148.8,29.1c-0.7,0.6-1.6,1.1-2.4,1.5
		c1.1-3.1,1.4-6.6,1.4-10c0.8-0.3,1.7-0.5,2.5-0.6c1.5-0.3,1.4-0.4,1.8,1C152.8,23.8,150.8,27.3,148.8,29.1z"/>
	<path d="M205.5,24.9c-0.1-2-4.3-2.4-5.3-1c-1,1.3-2.2,3-2.7,4.6c-0.1-1-0.5-2.2-0.5-3.2c0.1-2.2,0.7-4.3,1.5-6.3
		c0.5-1.1,1-2.2,1.7-3.2c0.2-0.2,0.4-0.3,0.7-0.5c0,0.2,0,0.4,0.2,0.6c0.3,1.6,4.6,2,5.4,0.7c2.4-4.4-4.7-5.7-7.7-5.5
		c-6.2,0.6-8.5,7.1-9.1,12.6c-0.5,5.3,2,9.5,7.5,10C202.8,34.3,205.8,30.1,205.5,24.9z"/>
	<path d="M169.8,28.6c1.8,4,7.8,4,11.6,3.3c0.2,2.5,7,3.3,7.6,0.6c1.4-5.9-2-13.2,2.2-18.4c1-1.2-1.1-2.2-3.1-2.5
		c-3.6-1.8-8.3-1-11.2,1.8c-2.2,2.1-4.1,5-5.8,7.6C169.7,23.3,168.6,26,169.8,28.6z M177.5,27.6c-0.1-0.7-0.1-1.4,0.1-2
		c0.3-0.8,0.7-1.6,1.2-2.4c0.6-1,1.3-1.9,1.9-2.8c0.3-0.5,0.6-0.9,0.9-1.4c-0.2,1.3-0.3,2.7-0.3,4.1c-0.6,1.5-0.9,3.1-2.2,4.1
		c-0.4,0.3-0.8,0.4-1.3,0.5c-0.4,0.1-0.8,0.1-1.2,0.2C176.2,27.9,176.4,27.8,177.5,27.6z"/>
	<path d="M237.5,33.7c0.4,1.8,4.3,1.9,5.5,1.1c3.4-2.2,5-7.8,5.3-11.8c0,0.1,0.1,0.2,0.1,0.3c1,3,0.9,6.1,1.8,9.1
		c0.6,2,5.2,2.3,6.3,0.8c0.9-1.2,1.4-2.6,1.5-4c0.8-2,1.9-3.8,3-5.6c0,0.1,0,0.3,0,0.4c0,3-1.1,5.5-1.6,8.4
		c-0.4,2.4,5.2,2.8,6.4,1.7c4.3-3.6,3.8-9.1,2.9-14.2c-0.6-3.5-1.1-6.7-1.2-10.3c0-1.4,0-2.7-0.2-3.8c0.1-0.6,0.2-1.3,0.3-1.9
		c0.5-2.6-6.6-3.5-7.4-0.9c-1.6,5.2-2.9,10.2-5.5,15c0-0.1-0.1-0.1-0.1-0.2c-1.3-2.5-3-4.8-4.2-7.3c-1.3-2.6-0.7-5.1-1.7-7.6
		c-1.2-2.9-10.1-3-8.9,0.2c0.1,0.2,0.1,0.3,0.2,0.5c-1.3,6.1,0,11.6-0.2,17.9C239.8,25.3,236.6,29.7,237.5,33.7z"/>
	<path d="M271.8,29.4c3.2,2.7,8.3,3.1,12.1,1.5c1.4,1.2,5.2,1.1,6.1,0c1.9-2.4,0.5-5.5-0.1-8.3c-0.9-3.9-1.8-7.6-0.8-11.7
		c0.3-1.3-1.8-1.9-3.5-1.8c-0.8-0.1-1.5-0.1-2.1,0c-4.7,0.9-8.8,3.4-11.2,7.6C270.1,20.3,268.1,26.2,271.8,29.4z M278.1,22.5
		c0.6-2.4,1.8-4.6,3.5-6.4c0,0.8,0,1.5,0.1,2.4c0.1,0.8,0.2,1.5,0.4,2.3c-0.4,1.8-0.6,3.9-1.7,5.3C277.6,29.7,277.5,24.6,278.1,22.5
		z"/>
	<path d="M298.3,30.5c0.9,0.2,2.7,0.3,4.4,0.1c0.3,3.2,0.1,6.6-2.4,8.9c-2.1,1.9-5.1,2.2-7.9,2.3c-0.1-0.1-0.2-0.3-0.3-0.5
		c-0.4-1-1-2.2-1.1-3.3c-0.2-2-4.5-2.4-5.3-0.6c-0.7,1.7-1.6,2.9-1,4.8c0.9,2.6,4.3,3.6,6.7,3.5c0.1,0,0.2,0,0.3,0
		c6.4,0.3,15-0.3,17.9-7.1c1.5-3.5,0.7-7.1,0.1-10.7c-0.9-5.7-0.7-9.3,2.3-14.4c1-1.7-2.6-2.5-4.5-2c-2.7-1.1-6.4-1.4-8.1-1.1
		c-4.9,0.7-8.3,4.8-8.9,9.6C290,25.1,293.3,29.4,298.3,30.5z M298.9,20.9c0.1-1.4,0.6-2.8,1.3-4c0.7-1.2,2.9-3.6,4.3-2
		c-1.9,3.1-2.5,6.1-2.4,9.8c-0.5,0.3-1,0.6-1.5,0.9c-0.3,0.1-0.4,0.2-0.5,0.3c0-0.1-0.1-0.1-0.2-0.3
		C298.8,24.5,298.7,22.5,298.9,20.9z"/>
	<path d="M316.7,31.8c5.2,2.4,14.4,1.6,14.7-5.6c0.1-2.1-5.3-2.9-6.1-1.2c-1.2,2.6-3.7,5.8-6,2.1c-0.5-0.8-0.8-1.7-1-2.6
		c5.7-0.8,16.3-4.1,10.9-11.4c-4.3-5.8-12.6-3.4-16.2,1.7C308.9,20.6,310,28.7,316.7,31.8z M321.1,15.4c1.8-1.9,1.7-1.1,1.6,0.8
		c-0.1,2-2.1,3.1-4.3,3.9c0.2-0.6,0.4-1.2,0.7-1.8C319.7,17.3,320.3,16.3,321.1,15.4z"/>
	<path d="M55.5,83.3c-5.2,5.1-5.2,11.2-4.5,18.1c0.4,3.4,0.5,6.8,0,10.2c-0.5,3.7-2.1,7.1-2.2,10.9c-0.1,4.8,9.4,4.7,11.8,2.3
		c4.7-4.8,5.2-12.7,4.5-19.1c-0.4-3.5-1.4-7-1.7-10.4c1.7-1.9,3.6-3.6,4.7-4.4c0.2-0.1,1-0.5,1.7-0.9c0.4,1,0.9,2.2,0.9,2.6
		c0.1,1.6-0.2,2.9,0.1,4.5c0.8,4.1,10.3,4.7,12.9,2.5c6.7-5.5-0.2-13-6-15.6c-4.1-1.8-8.9-2.1-13.2-0.9C61.8,82,57.1,81.7,55.5,83.3
		z"/>
	<path d="M86,124.2c-3.1,4.5,10.2,7.1,13.2,3.6c4.5-5.4,4.4-11.7,3.4-18.4c-1.3-8.7-2.5-16,2.2-23.9c2.5-4.2-9.1-6.4-11.4-3.1
		c-4.4,6.3-6.1,13.2-5.3,20.9C88.7,110.4,90.4,117.9,86,124.2z"/>
	<path d="M143.7,134.5c0.2,4.4,8.9,4.7,11.2,2.2c4-4.5,4.4-13.2,4.7-18.9c0.1-1.7,0.1-3.4,0.1-5.1c0.6-0.1,1.2-0.3,1.7-0.5
		c0.8,2,1.3,4.2,1.8,5.8c1.2,3.9,1.4,8.2,2.7,12.1c2.5,7.2,11.5,9.6,18.3,9.7c2.7,0,5.8-1.9,2.9-4.2c-2.7-2.2-6.4-2.8-7.7-6.3
		c-1.4-3.7-1.9-7.7-3.4-11.4c-2-5-4.3-9.3-8.2-12.2c2.3-2.9,4.5-5.9,7.1-8.5c4.2-4.3,7.5-9.3,5-15.4c-1.5-3.5-12.5-4.8-11.8,0.2
		c0.8,5.9-5.4,10.4-9.2,14.2c-0.7-13-0.3-24.8,4.4-37.2c1.6-4.3-10.7-5.3-12.8-2.5c-8.2,11-7.7,25.4-6.2,38.4
		c0.8,6.6,1.7,13.2,1.9,19.9c0.1,3.1,0,6.2-0.4,9.3C145.3,127.3,143.6,131,143.7,134.5z"/>
	<path d="M130.7,109.4c-1.4,3.3-2.3,9.6-5.5,11.6c-1.6,1-0.2,0.6-1.2-0.2c-1.1-0.8-1.9-2.2-2.5-3.5c-1.2-2.4-1.6-5.1-1.6-7.8
		c0-4.9,0.8-10.6,2.9-15.1c0.8-1.7,2.3-4.6,4.3-5.3c0.9-0.3,1-0.4,1.1-0.3c1.2,0.6,1.9,3.2,2.1,4.3c0.4,3.7,10.5,5.2,10.7,1.3
		c0.5-10.5-11.2-14.5-19.9-12.3c-11,2.8-14.9,15.5-14.8,25.7c0,11.4,7.5,19.9,18.9,20.8c11.1,0.9,18.7-7.1,16.4-18
		C140.8,107.7,132,106.5,130.7,109.4z"/>
	<path d="M96.6,69.5c1.4,1.7,4,2.5,6.1,2.7c2,0.2,4.1,0.1,5.9-0.7c1-0.4,1.7-0.9,2.4-1.7c0.4-0.5,0.6-1.1,0.8-1.7
		c0.1-0.3,0.2-0.7,0.2-1c0-0.7-0.3-1.4-0.4-2.1c-0.2-1.1-2.1-2.2-3-2.6c-1.7-0.7-3.6-1-5.4-1c-3.1,0-7.5,1.4-8,5
		c-0.1,0.9,0.3,1.7,1,2.3C96.3,69,96.4,69.2,96.6,69.5z"/>
	<path d="M28,68.7c-1.9,6-1.4,13-0.4,19.4c1.2,7,3,14,2.6,21.1c-0.4,6.9-3.6,12.3-6.2,18.6c-1.8,4.4,7.7,5.3,10.1,3.5
		c10.6-8.1,11-22.2,8.7-34.3c-2-10.7-4.4-20.9-0.8-31.1c1.8-0.2,3.6-0.4,5.5-0.4c3.1,0,6,0.5,9,1.2c2.2,0.6,5,2.1,7.3,2.1
		c1.6,0.8,3.4-2,3.9-3c1.2-2.5,1.4-5.8,0.5-8.3c-1.7-4.7-9-5.7-13.4-6.4c-5.7-0.9-11.4-0.1-17,1.1c-10.6,2.2-22.6,6.2-33,0.9
		c-4.6-2.4-6.4,9.3-3.2,11.7C9.4,70.8,18.8,70.4,28,68.7z"/>
	<path d="M231.8,127.3c3.2-8.4,0.8-20.8-8.8-23.6c-6-1.7-17.3-0.2-16.8,8.2c0,0.3,0.1,0.5,0.2,0.7c-2.6,6.4-3.6,14.4,1.3,19.4
		C214.8,139.4,228.2,136.9,231.8,127.3z M215.4,128.7c-1.1-2-1.4-4.3-1.4-6.5c0-2.9,0.3-6,1-8.9c1.2-1.5,2.1-3.8,3.8-4.6
		c0.2-0.1,0.3-0.2,0.3-0.3c1.9,1.1,2.5,6.3,2.6,7.8c0.3,3.1,0,6.4-1.2,9.3C219.6,127.9,217.5,132.3,215.4,128.7z"/>
	<path d="M246.3,102.1c-1.5-1.6-7-2.3-8.6-0.6c-4,4.2-3.6,9-3.2,14.4c0.4,6.4-1,12.1-1.5,18.4c-0.3,4,9.8,5.4,11.3,2.2
		c2.5-5.1,2.8-10.8,2.2-16.4c-0.2-1.8-0.8-3.9-1.2-6c0.2-0.2,0.5-0.4,0.6-0.6c0.7-1.1,1.5-2.2,2.4-3.2c0.8-0.9,1.9-1.3,2.7-1.9
		c0.1,1,0.8,2,1.5,2.6c2.1,2.2,9.8,3.9,11-0.2C265.6,103,254.6,99.8,246.3,102.1z"/>
	<path d="M325.9,79.7c-2.7-0.7-6.3-0.5-7.5,0.9c-1.3,1.5-2.4,3.1-3.4,4.7c-0.5,0.6-1,1.3-1.4,2c-0.3,0.5-0.4,1-0.3,1.4
		c-1.9,4.3-2.7,8.9-2.5,13.9c0.2,4.2,0.7,8.4,0.4,12.6c-0.3,4-1.9,7.2-3,11c-1.2,4.3,9.9,5.1,12,3.2c6-5.4,5.2-13.9,4.5-21.3
		c-0.6-6.8-0.8-13.1,1.4-19.2c0.7-0.3,1.4-0.7,2.1-1c0.6-0.3,1.3-0.5,1.9-0.7c0.3,0.4,1.4,1.4,1.6,1.7c0.9,1.4,1.2,2.8,1,4.4
		c-0.5,4.7,11.6,6,13,1.6c2.3-7.6-4.7-13.3-11.4-14.9C331.4,79.6,328.6,79.4,325.9,79.7z"/>
	<path d="M288.4,74.9c-2.3,6.5-2.1,13.9-1.3,21.2c0.7,6.7,1.2,13.3,0.6,19.9c-0.6,6.7-3.5,13.3-3.2,19.9c0.2,4.6,9.5,5.1,11.9,2.3
		c7.8-9,7.2-25.1,5.8-36.2c-1.2-9.4-3.6-20.4,0.4-29.3c3.3-0.4,6.5-0.5,9.9-0.1c2.9,0.3,5.8,1,8.5,1.8c2.9,0.8,4.7,2,7.6,1
		c3.5-1.2,4-8.5,2.1-11.1c-3-4.2-9-5.1-13.9-6c-5.3-0.9-10.5-0.7-15.8,0.1c-10.1,1.6-22.2,6-31.6-0.2c-4-2.6-5.2,8.2-2.9,10.6
		C272.6,75,280.4,75.7,288.4,74.9z"/>
	<path d="M385.2,122c1.4-4.2-10.3-5.3-12.3-2.4c-3.1,4.6-7.9,7.6-12.3,3.3c-2.4-2.3-3.8-5.2-4.1-8.3c6.5,0.3,13-0.4,18.6-4
		c4.7-3.1,9.7-9.5,7.1-15.5c-2.5-5.7-10.7-7-16.1-6.6c-6.3,0.4-12.2,3.4-16.6,7.8c-9.8,9.8-9,24.5,2.8,32.4
		C362.4,135.7,380.8,135.6,385.2,122z M365.4,98c1-0.6,2.9-2,4-1.9c0.3,0,0.6-0.1,0.8-0.1c-1.3,0.6-1.8,1.6-1.6,2.9
		c-2.6,5.5-6.1,8.8-11.6,9.7c0.4-1.4,1-2.8,1.8-4C360.5,102,362.8,99.6,365.4,98z"/>
	<path d="M414.7,127.6c0.1,0.8,0.2,1.6,0.4,2.4c0.8,3.2,8.6,4.1,10.7,2.1c2.9-2.8,3.1-5.2,2.7-9.1c-0.5-4.3-1.6-8.7-2.8-12.9
		c-2-7.4-6.9-16.2-4.2-24c0.4-0.4,0.6-0.9,0.5-1.4c0.3-1.2-0.7-2-2-2.4c-2.1-1.2-5.1-1.1-7.2-0.4c-9.1,2.6-17.1,6.6-21.7,15.3
		c-3.5,6.7-6.5,17.1-3.1,24.4C392.1,130.4,405.4,131.4,414.7,127.6z M401,110.2c0.6-4.8,2.1-9.4,4.9-13.4c1.2-1.8,2.6-3.2,4.2-4.4
		c-0.2,3.7,0.6,7.6,1.5,11.5c0.4,1.5,0.7,3.1,1,4.6c-0.5,0.4-0.9,0.8-1.1,1.5c-1.3,3.9-3.8,11-8.5,11.8c-1.7,0.3-0.4,0.5-1-0.5
		c-0.7-1-1-2.2-1.2-3.4C400.4,115.4,400.7,112.7,401,110.2z"/>
	<path d="M65,151.2c-6,8.2-7.1,17.2-6.7,26.5c-5.7,2.1-10.7,1.3-16.6,1.8c-1.5,0.1-2.9,0.3-4.3,0.5c0.5-1.7,1.1-3.4,1.7-5.1
		c2.8-7.2,4.8-14.1,1.4-21.4c-1.5-3.2-12.3-4.6-11.2,0.2c1.5,6.8-1.5,13.6-4.1,19.7c-2.6,6-4.1,11.8-4.6,18.3
		c-0.6,6.8-1.4,13.2-3.7,19.7c-1.1,3-2.3,6-3.6,8.9c-0.8,1.7-1.9,5.6-3.3,7.4c-0.8,0.4-1.4,1-1.6,1.9c0,0.1-0.1,0.3-0.1,0.4
		c-1,3.1,6.2,4.2,7.7,4.2c7.5-0.1,9.6-7.6,12.2-13.5c3.2-7.2,5.5-14.7,6.2-22.6c0.3-3.1,0.6-6,1-8.8c6.3-2.6,12.6-1.5,19.3-1.3
		c1.3,0,2.9,0.1,4.5-0.1c0.2,1.9,0.3,3.8,0.5,5.7c0.5,7,0.7,14.2-1.9,20.9c-1.1,2.8-2.7,5.5-4.6,7.8c-1.6,1.9-4.2,3.4-4.7,6
		c-0.5,2.5,4.6,3.3,6,3.3c15-0.3,20.1-17.5,19.7-29.9c-0.5-15.6-8.5-33.6,0.2-48.2C76.1,150.3,66.8,148.6,65,151.2z"/>
	<path d="M86.5,177.5c-6,5.8-7,12.5-6.5,20.5c0.3,4.4,0.9,8.9,0.2,13.3c-0.6,3.9-3,7.4-2.2,11.3c0.7,3.3,7.1,2.9,9.2,1.8
		c7.3-3.9,6.8-14.4,5.9-21.5c-0.9-7.3-2.6-16.7,2.4-23C98,176.9,88.7,175.4,86.5,177.5z"/>
	<path d="M99.1,164.9c-0.2-0.3-0.3-0.6-0.4-1c-0.4-0.8-0.9-1.5-1.7-2c-0.6-0.4-1.2-0.7-1.9-1c-0.5-0.2-1.1-0.4-1.6-0.6
		c-0.6-0.1-1.2-0.2-1.9-0.4c-1.5-0.2-2.9-0.1-4.4,0.3c-0.9,0.2-1.7,0.6-2.4,1.2c-0.3,0.2-0.5,0.5-0.6,0.9c-0.3,0.5-0.3,0.9-0.1,1.5
		v0.1c-0.2,0.4-0.3,0.8-0.3,1.2c0.1,1.6,1,2.7,2.2,3.6c1.5,1.1,3.5,1.5,5.3,1.6c1.6,0.1,3.5,0,4.9-1c1-0.7,1.9-1.5,2.5-2.5
		C99.3,166.2,99.4,165.6,99.1,164.9z"/>
	<path d="M136.3,149.1c1.8-3.6-7.7-5.4-9.4-2.5c-5.7,9.8-4,19.7-2.2,30c-6.4-0.9-13.2,0.9-18,5.2c-7.5,6.7-9.1,17.3-8.6,26.8
		c0.2,3.9,0.6,7.7,3.4,10.7c3,3.2,8,4.8,12.2,5.3c2.8,0.4,5.8,0.4,8.7-0.1c3.3,1.3,8.8,0.9,10.2-0.9c3.5-4.4,4.9-11,5.9-16.4
		c1.2-5.9,1.6-12.1,1.1-18.2C138.5,176.2,130.1,161.6,136.3,149.1z M115.1,217.3c-4.2-0.9-3.1-10.5-3-13.6
		c0.3-7.8,3.9-21.1,13.6-20.9c0.1,0.5,0.1,1,0.2,1.4c0.8,6.3,0.3,12.6-0.8,18.8c-0.7,3.9-2,7.6-3.1,11.3
		C119.9,216.1,117.3,217.8,115.1,217.3z"/>
	<path d="M177.5,200.6c-1.2,3.5-2.4,7.3-4.6,10.3c-1.7,2.2-5.8,6.1-9.1,5.2c-3.2-1-4.6-6.8-5.1-9.6c-0.4-2.2-0.6-4.5-0.5-6.8
		c7.1,0.5,14.7,0,20.6-4.4c4.5-3.4,9-10.5,4.8-15.8c-4.5-5.8-14.5-6.5-21.1-5.1c-6.5,1.4-12.4,5.7-15.5,11.7
		c-6.5,12.8-3.3,32.4,12.1,36.6c13.9,3.8,33.1-4.8,30.3-21.4C188.8,197.3,178.7,196.9,177.5,200.6z M164.4,184.7
		c1.3-1.2,5.4-4.4,6.7-2.7c1.9,2.6-2.5,8-4.3,9.3c-2.2,1.6-4.8,2.1-7.5,2.2C160.2,190.1,161.9,186.9,164.4,184.7z"/>
	<path d="M321.9,172.2c8.1-16.3-12.4-23.3-25.1-18.8c-13.3,4.7-19.6,18.6-10.7,30.6c2.2,2.9,5.1,5.3,8.5,6.8c2.8,1.3,7.9,1,10.2,2.8
		c3,2.3,2.3,9,1.7,12.2c-0.8,3.7-2.6,7.5-5.5,10c-3,2.6-8.3,4.4-12.1,2.4c-3.2-1.7-5.5-6.1-3.6-9.5c1.3-2.5,4.7-4.3,6.9-5.9
		c4.3-3.3-5.3-5.2-7.2-4.9c-5.3,0.8-11.1,2.6-13.8,7.6c-2.7,5.1-0.1,11,3.8,14.6c8,7.5,21.4,8.4,31.5,5
		c11.1-3.7,17.8-15.3,15.3-26.7c-1.5-6.7-6.6-10.8-13.1-12.3c-2.7-0.6-5.4-0.3-7.5-2.3c-2.2-2.1-3.6-5.2-4-8.2
		c-0.9-6,2.4-11.1,7.7-13.9c0.6-0.3,1.7-0.5,2.5-0.9c0.6,1,1.7,2.5,1.9,3.2c0.6,2,0.7,3.8,0.1,5.8
		C307.8,173.8,320.1,175.7,321.9,172.2z"/>
	<path d="M354.2,206.9c-2.3,2.8-3.7,6.2-5.9,9.2c-0.9,1.3-2.1,2.6-3.5,3.3c-0.6-0.6-1.2-1.3-1.6-2.1c-2.8-4.5-4.6-10.4-4.8-16
		c5.2,1.1,10.6,0.7,15.4-2.1c5.5-3.2,9.4-9.1,7.4-15.5s-8.7-9.5-15-9.4c-7,0.1-12.5,4.5-16.4,9.9c-4.1,5.7-5.5,12.3-4.6,19.2
		c0.9,6.7,3.3,15.1,8.8,19.6c5.6,4.7,14.3,5.6,20.9,2.6c5.8-2.7,11.4-9.7,11-16.3C365.4,204.7,356.6,204.1,354.2,206.9z
		 M346.8,181.4L346.8,181.4L346.8,181.4z M346.4,183.3c0.3-0.3,0.7-0.5,1-0.8c0.5,1.1,1.1,2.6,1.1,2.7c0.3,1.7,0,3.4-0.8,4.9
		c-1.4,2.8-5.1,6.1-8.4,5.2c-0.1,0-0.3-0.1-0.4-0.1c0.7-3,2.1-5.7,4-8.2C344,185.7,345.1,184.4,346.4,183.3z"/>
	<path d="M400.7,204.1c-1.4,4-3.3,8.1-5.7,11.6c-1.4,2.1-4.6,6.9-7.7,6.6c0.7,0.1-1.5-1.9-1.8-2.2c-1.4-1.7-2.2-3.8-2.8-5.8
		c-0.8-2.6-1.1-5.2-1.1-7.9c5.3,0.6,10.7-0.5,15.1-3.8c5.1-3.9,9.6-11.5,7.1-18.1c-2.6-7-11.9-9.4-18.5-8.1
		c-6.9,1.3-11.8,6.8-14.5,13c-5.9,13.4-4.8,34.3,11.7,39.3c16.4,5,28.5-7.6,29.6-23.3C412.4,201.2,402.1,200.3,400.7,204.1z
		 M386.1,189.6c1-1.7,2.3-3.5,3.9-4.7c0,0,0,0,0.1,0c0.2,0.5,0.4,1,0.5,1.5c0.2,1.2,0.1,2.3-0.1,3.5c-0.3,1.6-1,3.1-1.8,4.5
		c-0.9,1.6-3.9,5.7-6.3,5.9C382.9,196.5,384.1,192.8,386.1,189.6z"/>
	<path d="M249.5,196.7c-2.1-1.6-9.7-0.8-6.1,2.3c2.7,2.3,1.3,5.4-1.3,8.3c-1.4-2.1-2.8-4.3-4.1-6.5c-1-1.7-1.9-3.4-2.8-5.1
		c5-6,9-12.5,2.1-19.1c-4.4-4.2-22.9-7.8-19.6,2.7c1.7,5.6,4.2,11,6.8,16.3c-3.5,3.5-7.3,6.8-8.8,11.7c-4,12.9,11.9,17.1,21.2,13.3
		c0.7-0.3,1.6-0.7,2.4-1.2c0,0,0.1,0,0.1,0.1c1.7,0.8,9.9,1.6,8.5-2.2c0,0,0,0,0-0.1s0-0.1,0-0.2c0.1-0.9-0.3-2-1-2.9
		C252.7,208.8,256.5,201.9,249.5,196.7z M231,181.8c0.4,1.6,0.2,3.3-0.3,4.8c-0.9-1.9-1.8-3.9-2.6-5.9
		C225.9,175.2,230.3,179,231,181.8z M226.4,213.7c-0.7-2.7-0.1-5.8,1.1-8.2c0.3-0.6,0.7-1.2,1.2-1.9c0.8,1.4,1.5,2.8,2.3,4.2
		c0.4,0.8,2.5,3.6,3.7,5.6c-0.4,0.3-0.8,0.5-1.1,0.7C230.7,215.8,227.5,218,226.4,213.7z"/>
	<path d="M468.6,231.5c-1.9-1.7-5-2.6-7.7-2.6c-0.4-0.3-0.8-0.5-1.2-0.7c-1.4-0.6-2.8-0.9-4.1-1.6c-0.7-0.8-1.4-1.7-2.1-2.6
		c-0.4-0.5-0.7-0.9-1-1.4c-0.3-0.8-0.6-1.5-0.8-2.3c-1.7-4.9-2.4-10.1-4.7-14.7c-2.1-4.2-5.1-7.3-8.8-9.2c2.7-1.7,5.8-3,8.5-5
		c5.6-3.9,11.8-9.6,11.9-16.9c0.1-4.3-11.2-5.7-11.8-1.4c-0.8,6.5-7.8,11-13.7,14.2c0.4-5.3,1-10.5,1.9-15.8
		c1.2-7.3,0.8-13.2-3.4-19.4c-2-3-14.6-3.2-12.4,1.1c3.3,6.5,1.8,12.9,0.4,19.7c-1.2,6.3-1.4,12.6-1.3,18.9
		c0.1,7.2,0.1,14.1-0.9,20.7c-0.5,1.2-1,2.3-1.6,3.4c-1.9,3.6-4.1,7.2-6.6,10.5c-1.3,0.3-2.3,0.9-2.8,1.7c-0.5,0.8-0.8,1.6-1.1,2.5
		c0,0.9,0.2,1.6,0.8,2.3c0.2,0.2,0.4,0.3,0.6,0.5c3.3,2.9,12.4,5.3,15.2,0.5c0.2-0.2,0.4-0.3,0.6-0.5c6.6-8.6,8.6-19.3,9.5-30
		c0.1-0.1,0.1-0.1,0.2-0.2c3.2,5.6,4.3,18.5,5.8,21.6c1.4,2.9,3.8,5.3,6.6,7c5.2,5.9,15.3,8.1,22.5,5.2
		C470,235.9,470.9,233.6,468.6,231.5z"/>
	<path d="M475.7,78c-0.4-1.5-1.4-3.5-3.1-2.1c-4.2,3.4-9.9,3.5-15.4,3.5c0-1.8,0-3.6,0.2-5.5c0.5-2,1.2-3.9,2.1-5.8
		c1.6-3.6,4.9-6.4,5.9-10.1c1.5-5.2-11.6-5.9-14.1-3.8c-3.2,2.7-4.3,7.2-5.5,11.2c-1.3,4.3-1.6,8.8-1.4,13.3c0,0.7,0.4,1.4,0.9,1.9
		c-5.8,1.6-10.7,4.6-15.7,8.2c-2,0-3.2,3-3.7,4.6c0,0.1,0,0.2-0.1,0.2c-0.7,2.3-1.2,9,2.5,9.6c3.2,0.5,7-4.1,9.6-5.6
		c2.5-1.4,5.2-2.5,7.9-3.4c0.1,1.6,0.1,3.3,0.2,5c0.5,14.6-2.9,29.4-1.2,43.9c0.5,4.4,11.5,6.2,12.5,1.5c2.9-13.7,2.7-29,1.8-42.9
		c-0.2-3.4-0.6-6.7-0.9-10.1c6-1,11.7-2.4,16.1-7.4C475.5,82.7,476.2,80.1,475.7,78z"/>
</g>
</svg>
